<?xml version="1.0" encoding="utf-8"?>
<!-- Generator: Adobe Illustrator 21.0.0, SVG Export Plug-In . SVG Version: 6.00 Build 0)  -->
<svg version="1.1" id="Layer_1" xmlns="http://www.w3.org/2000/svg" xmlns:xlink="http://www.w3.org/1999/xlink" x="0px" y="0px"
	 viewBox="0 0 216 167.61" enable-background="new 0 0 216 167.61" xml:space="preserve">
<g>
	<defs>
		<rect id="SVGID_1_" width="216" height="167.61"/>
	</defs>
	<clipPath id="SVGID_2_">
		<use xlink:href="#SVGID_1_"  overflow="visible"/>
	</clipPath>
	<g clip-path="url(#SVGID_2_)">
		<g>
			<path fill="#0033A0" d="M27-101.98c0,0-36,0-36,36v306c0,0,0,36,36,36h162c0,0,36,0,36-36v-306c0,0,0-36-36-36H27z"/>
		</g>
		<g>
			<path fill="#0D6FB7" d="M202.39,201.09c0.74,3.61,3.56,5.26,5.42,8.42c-0.77,10.86-11.78,11.49-12.04,22.87
				c-2.31,0.3-2.26,2.96-4.21,3.61c1.16,4.3-0.16,5.21-1.81,7.82c0.24,4.77,5.13,4.9,4.81,10.23c-2.19,2.83-8.19,1.84-9.63,5.42
				c-19.89-1.98-40.18-3.55-60.18-5.42c0.49-5.7-3.61-6.82-4.21-11.43c2.44-4.04,6.31-7.16,3.01-13.84
				c-1.08-2.19-3.15-2.34-4.82-4.21c-3.1-3.49-4.36-8.46-7.22-9.63c-1.82-1.19-6.1,0.08-7.82-1.2c-0.96-3.77,2.46-3.16,1.81-6.62
				c-1.07-5.72-7.86-3.67-12.04-5.42c-3.51-1.47-4.95-5.74-8.42-6.02c-2.03-3.79-4.12-6.85-7.22-10.23
				c-1.31-1.43-2.12-2.81-3.61-3.61c-1.47-0.79-3.2-0.11-4.81-0.6c-1.5-0.45-4-2.08-6.02-3.01c-4.57-2.11-8.64-4.06-12.04-7.22
				c-1.93-8,3.18-21.73-4.21-25.28c3.3-12.95-11.98-15.68-9.03-28.29c-3.63-6-8.58-10.68-7.82-21.06c2.11-1.81,3.62,0.84,6.02,0.6
				c3.33-8.41-3.16-12.04-8.42-13.84c-1.25-7.43-5.45-21.1,0.6-25.28c5.05,0.57,3.26,7.98,7.22,9.63c0.86-2.47-0.54-7.33,0-11.43
				c1.09-1.85,3.38,1.21,4.21-0.6c-0.37-4.24-8.34-0.89-8.43-5.42c-5.05,7.76-11.1-2.27-15.04-4.81c-0.29-3.5,4.17-2.25,4.81-4.81
				c-1.51-6.32-5.41-10.24-7.82-15.65c2.63-5.73-2.81-8.64-3.61-13.24c-1.44-8.27,5.44-15.38,1.81-23.47
				c7.77-9.02-7.82-11.62-4.21-24.07c2.1-3.32,4.83-6.01,7.82-8.42c0.86-3.56,2.42-6.4,4.81-8.42c-0.2-2.41,1.07-3.34,0.6-6.02
				c7.46-4.38,5.43-18.25,8.43-27.08c31.42,7.5,62.08,15.76,91.47,25.28c-7.4,31.12-14.09,62.94-21.66,93.88
				c30.2,46.17,64.44,95.37,96.89,142.62c2.26,3.29,5.25,7.09,6.02,9.63C203.33,190.54,201.49,196.73,202.39,201.09"/>
		</g>
	</g>
</g>
</svg>
