<?xml version="1.0" encoding="utf-8"?>
<!-- Generator: Adobe Illustrator 21.0.0, SVG Export Plug-In . SVG Version: 6.00 Build 0)  -->
<svg version="1.1" xmlns="http://www.w3.org/2000/svg" xmlns:xlink="http://www.w3.org/1999/xlink" x="0px" y="0px"
	 viewBox="0 0 1280 350" style="enable-background:new 0 0 1280 350;" xml:space="preserve">
<style type="text/css">
	.st0{fill:#051D49;}
	.st1{opacity:0.1;fill:#FFFFFE;}
	.st2{fill:#0033A0;stroke:#FFFFFF;stroke-width:1.3981;stroke-miterlimit:10;}
	.st3{fill:#DE988C;stroke:#FFFFFF;stroke-width:1.3981;stroke-miterlimit:10;}
	.st4{fill:#AB2C29;stroke:#FFFFFF;stroke-width:3.48;stroke-miterlimit:10;}
</style>
<g id="Layer_1">
	<rect x="-9" y="-84" class="st0" width="1298" height="521.8"/>
</g>
<g id="Dots">
	<circle class="st1" cx="-3.1" cy="-69" r="6.9"/>
	<circle class="st1" cx="21.6" cy="-69" r="6.9"/>
	<circle class="st1" cx="46.2" cy="-69" r="6.9"/>
	<circle class="st1" cx="70.8" cy="-69" r="6.9"/>
	<circle class="st1" cx="95.4" cy="-69" r="6.9"/>
	<circle class="st1" cx="120" cy="-69" r="6.9"/>
	<circle class="st1" cx="144.6" cy="-69" r="6.9"/>
	<circle class="st1" cx="169.2" cy="-69" r="6.9"/>
	<circle class="st1" cx="193.8" cy="-69" r="6.9"/>
	<circle class="st1" cx="218.4" cy="-69" r="6.9"/>
	<circle class="st1" cx="243" cy="-69" r="6.9"/>
	<circle class="st1" cx="267.6" cy="-69" r="6.9"/>
	<circle class="st1" cx="292.3" cy="-69" r="6.9"/>
	<circle class="st1" cx="316.9" cy="-69" r="6.9"/>
	<circle class="st1" cx="341.5" cy="-69" r="6.9"/>
	<circle class="st1" cx="366.1" cy="-69" r="6.9"/>
	<circle class="st1" cx="390.7" cy="-69" r="6.9"/>
	<circle class="st1" cx="415.3" cy="-69" r="6.9"/>
	<circle class="st1" cx="439.9" cy="-69" r="6.9"/>
	<circle class="st1" cx="464.5" cy="-69" r="6.9"/>
	<circle class="st1" cx="489.1" cy="-69" r="6.9"/>
	<circle class="st1" cx="513.7" cy="-69" r="6.9"/>
	<circle class="st1" cx="538.3" cy="-69" r="6.9"/>
	<circle class="st1" cx="562.9" cy="-69" r="6.9"/>
	<circle class="st1" cx="587.6" cy="-69" r="6.9"/>
	<circle class="st1" cx="612.2" cy="-69" r="6.9"/>
	<circle class="st1" cx="636.8" cy="-69" r="6.9"/>
	<circle class="st1" cx="661.4" cy="-69" r="6.9"/>
	<circle class="st1" cx="686" cy="-69" r="6.9"/>
	<circle class="st1" cx="710.6" cy="-69" r="6.9"/>
	<circle class="st1" cx="735.2" cy="-69" r="6.9"/>
	<circle class="st1" cx="759.8" cy="-69" r="6.9"/>
	<circle class="st1" cx="784.4" cy="-69" r="6.9"/>
	<circle class="st1" cx="809" cy="-69" r="6.9"/>
	<circle class="st1" cx="833.6" cy="-69" r="6.9"/>
	<circle class="st1" cx="858.2" cy="-69" r="6.9"/>
	<circle class="st1" cx="882.9" cy="-69" r="6.9"/>
	<circle class="st1" cx="907.5" cy="-69" r="6.9"/>
	<circle class="st1" cx="932.1" cy="-69" r="6.9"/>
	<circle class="st1" cx="956.7" cy="-69" r="6.9"/>
	<circle class="st1" cx="981.3" cy="-69" r="6.9"/>
	<circle class="st1" cx="1005.9" cy="-69" r="6.9"/>
	<circle class="st1" cx="1030.5" cy="-69" r="6.9"/>
	<circle class="st1" cx="1055.1" cy="-69" r="6.9"/>
	<circle class="st1" cx="1079.7" cy="-69" r="6.9"/>
	<circle class="st1" cx="1104.3" cy="-69" r="6.9"/>
	<circle class="st1" cx="1128.9" cy="-69" r="6.9"/>
	<circle class="st1" cx="1153.5" cy="-69" r="6.9"/>
	<circle class="st1" cx="1178.2" cy="-69" r="6.9"/>
	<circle class="st1" cx="1202.8" cy="-69" r="6.9"/>
	<circle class="st1" cx="1227.4" cy="-69" r="6.9"/>
	<circle class="st1" cx="1252" cy="-69" r="6.9"/>
	<circle class="st1" cx="26.9" cy="-34.5" r="6.9"/>
	<circle class="st1" cx="51.5" cy="-34.5" r="6.9"/>
	<circle class="st1" cx="76.1" cy="-34.5" r="6.9"/>
	<circle class="st1" cx="100.8" cy="-34.5" r="6.9"/>
	<circle class="st1" cx="125.4" cy="-34.5" r="6.9"/>
	<circle class="st1" cx="150" cy="-34.5" r="6.9"/>
	<circle class="st1" cx="174.6" cy="-34.5" r="6.9"/>
	<circle class="st1" cx="199.2" cy="-34.5" r="6.9"/>
	<circle class="st1" cx="223.8" cy="-34.5" r="6.9"/>
	<circle class="st1" cx="248.4" cy="-34.5" r="6.9"/>
	<circle class="st1" cx="273" cy="-34.5" r="6.9"/>
	<circle class="st1" cx="297.6" cy="-34.5" r="6.9"/>
	<circle class="st1" cx="322.2" cy="-34.5" r="6.9"/>
	<circle class="st1" cx="346.8" cy="-34.5" r="6.9"/>
	<circle class="st1" cx="371.5" cy="-34.5" r="6.9"/>
	<circle class="st1" cx="396.1" cy="-34.5" r="6.9"/>
	<circle class="st1" cx="420.7" cy="-34.5" r="6.9"/>
	<circle class="st1" cx="445.3" cy="-34.5" r="6.9"/>
	<circle class="st1" cx="469.9" cy="-34.5" r="6.9"/>
	<circle class="st1" cx="494.5" cy="-34.5" r="6.9"/>
	<circle class="st1" cx="519.1" cy="-34.5" r="6.9"/>
	<circle class="st1" cx="543.7" cy="-34.5" r="6.9"/>
	<circle class="st1" cx="568.3" cy="-34.5" r="6.9"/>
	<circle class="st1" cx="592.9" cy="-34.5" r="6.9"/>
	<circle class="st1" cx="617.5" cy="-34.5" r="6.9"/>
	<circle class="st1" cx="642.1" cy="-34.5" r="6.9"/>
	<circle class="st1" cx="666.8" cy="-34.5" r="6.9"/>
	<circle class="st1" cx="691.4" cy="-34.5" r="6.9"/>
	<circle class="st1" cx="716" cy="-34.5" r="6.9"/>
	<circle class="st1" cx="740.6" cy="-34.5" r="6.9"/>
	<circle class="st1" cx="765.2" cy="-34.5" r="6.9"/>
	<circle class="st1" cx="789.8" cy="-34.5" r="6.9"/>
	<circle class="st1" cx="814.4" cy="-34.5" r="6.9"/>
	<circle class="st1" cx="839" cy="-34.5" r="6.9"/>
	<circle class="st1" cx="863.6" cy="-34.5" r="6.9"/>
	<circle class="st1" cx="888.2" cy="-34.5" r="6.9"/>
	<circle class="st1" cx="912.8" cy="-34.5" r="6.9"/>
	<circle class="st1" cx="937.4" cy="-34.5" r="6.9"/>
	<circle class="st1" cx="962.1" cy="-34.5" r="6.9"/>
	<circle class="st1" cx="986.7" cy="-34.5" r="6.9"/>
	<circle class="st1" cx="1011.3" cy="-34.5" r="6.9"/>
	<circle class="st1" cx="1035.9" cy="-34.5" r="6.9"/>
	<circle class="st1" cx="1060.5" cy="-34.5" r="6.9"/>
	<circle class="st1" cx="1085.1" cy="-34.5" r="6.9"/>
	<circle class="st1" cx="1109.7" cy="-34.5" r="6.9"/>
	<circle class="st1" cx="1134.3" cy="-34.5" r="6.9"/>
	<circle class="st1" cx="1158.9" cy="-34.5" r="6.9"/>
	<circle class="st1" cx="1183.5" cy="-34.5" r="6.9"/>
	<circle class="st1" cx="1208.1" cy="-34.5" r="6.9"/>
	<circle class="st1" cx="1232.7" cy="-34.5" r="6.9"/>
	<circle class="st1" cx="1257.4" cy="-34.5" r="6.9"/>
	<circle class="st1" cx="1282" cy="-34.5" r="6.9"/>
	<circle class="st1" cx="7.7" cy="-0.1" r="6.9"/>
	<circle class="st1" cx="32.3" cy="-0.1" r="6.9"/>
	<circle class="st1" cx="56.9" cy="-0.1" r="6.9"/>
	<circle class="st1" cx="81.5" cy="-0.1" r="6.9"/>
	<circle class="st1" cx="106.1" cy="-0.1" r="6.9"/>
	<circle class="st1" cx="130.7" cy="-0.1" r="6.9"/>
	<circle class="st1" cx="155.4" cy="-0.1" r="6.9"/>
	<circle class="st1" cx="180" cy="-0.1" r="6.9"/>
	<circle class="st1" cx="204.6" cy="-0.1" r="6.9"/>
	<circle class="st1" cx="229.2" cy="-0.1" r="6.9"/>
	<circle class="st1" cx="253.8" cy="-0.1" r="6.9"/>
	<circle class="st1" cx="278.4" cy="-0.1" r="6.9"/>
	<circle class="st1" cx="303" cy="-0.1" r="6.9"/>
	<circle class="st1" cx="327.6" cy="-0.1" r="6.9"/>
	<circle class="st1" cx="352.2" cy="-0.1" r="6.9"/>
	<circle class="st1" cx="376.8" cy="-0.1" r="6.9"/>
	<circle class="st1" cx="401.4" cy="-0.1" r="6.9"/>
	<circle class="st1" cx="426" cy="-0.1" r="6.9"/>
	<circle class="st1" cx="450.7" cy="-0.1" r="6.9"/>
	<circle class="st1" cx="475.3" cy="-0.1" r="6.9"/>
	<circle class="st1" cx="499.9" cy="-0.1" r="6.9"/>
	<circle class="st1" cx="524.5" cy="-0.1" r="6.9"/>
	<circle class="st1" cx="549.1" cy="-0.1" r="6.9"/>
	<circle class="st1" cx="573.7" cy="-0.1" r="6.9"/>
	<circle class="st1" cx="598.3" cy="-0.1" r="6.9"/>
	<circle class="st1" cx="622.9" cy="-0.1" r="6.9"/>
	<circle class="st1" cx="647.5" cy="-0.1" r="6.9"/>
	<circle class="st1" cx="672.1" cy="-0.1" r="6.9"/>
	<circle class="st1" cx="696.7" cy="-0.1" r="6.9"/>
	<circle class="st1" cx="721.3" cy="-0.1" r="6.9"/>
	<circle class="st1" cx="746" cy="-0.1" r="6.9"/>
	<circle class="st1" cx="770.6" cy="-0.1" r="6.9"/>
	<circle class="st1" cx="795.2" cy="-0.1" r="6.9"/>
	<circle class="st1" cx="819.8" cy="-0.1" r="6.9"/>
	<circle class="st1" cx="844.4" cy="-0.1" r="6.9"/>
	<circle class="st1" cx="869" cy="-0.1" r="6.9"/>
	<circle class="st1" cx="893.6" cy="-0.1" r="6.9"/>
	<circle class="st1" cx="918.2" cy="-0.1" r="6.9"/>
	<circle class="st1" cx="942.8" cy="-0.1" r="6.9"/>
	<circle class="st1" cx="967.4" cy="-0.1" r="6.9"/>
	<circle class="st1" cx="992" cy="-0.1" r="6.9"/>
	<circle class="st1" cx="1016.6" cy="-0.1" r="6.9"/>
	<circle class="st1" cx="1041.3" cy="-0.1" r="6.9"/>
	<circle class="st1" cx="1065.9" cy="-0.1" r="6.9"/>
	<circle class="st1" cx="1090.5" cy="-0.1" r="6.9"/>
	<circle class="st1" cx="1115.1" cy="-0.1" r="6.9"/>
	<circle class="st1" cx="1139.7" cy="-0.1" r="6.9"/>
	<circle class="st1" cx="1164.3" cy="-0.1" r="6.9"/>
	<circle class="st1" cx="1188.9" cy="-0.1" r="6.9"/>
	<circle class="st1" cx="1213.5" cy="-0.1" r="6.9"/>
	<circle class="st1" cx="1238.1" cy="-0.1" r="6.9"/>
	<circle class="st1" cx="1262.7" cy="-0.1" r="6.9"/>
	<circle class="st1" cx="20" cy="34.4" r="6.9"/>
	<circle class="st1" cx="44.6" cy="34.4" r="6.9"/>
	<circle class="st1" cx="69.2" cy="34.4" r="6.9"/>
	<circle class="st1" cx="93.8" cy="34.4" r="6.9"/>
	<circle class="st1" cx="118.4" cy="34.4" r="6.9"/>
	<circle class="st1" cx="143" cy="34.4" r="6.9"/>
	<circle class="st1" cx="167.7" cy="34.4" r="6.9"/>
	<circle class="st1" cx="192.3" cy="34.4" r="6.9"/>
	<circle class="st1" cx="216.9" cy="34.4" r="6.9"/>
	<circle class="st1" cx="241.5" cy="34.4" r="6.9"/>
	<circle class="st1" cx="266.1" cy="34.4" r="6.9"/>
	<circle class="st1" cx="290.7" cy="34.4" r="6.9"/>
	<circle class="st1" cx="315.3" cy="34.4" r="6.9"/>
	<circle class="st1" cx="339.9" cy="34.4" r="6.9"/>
	<circle class="st1" cx="364.5" cy="34.4" r="6.9"/>
	<circle class="st1" cx="389.1" cy="34.4" r="6.9"/>
	<circle class="st1" cx="413.7" cy="34.4" r="6.9"/>
	<circle class="st1" cx="438.3" cy="34.4" r="6.9"/>
	<circle class="st1" cx="463" cy="34.4" r="6.9"/>
	<circle class="st1" cx="487.6" cy="34.4" r="6.9"/>
	<circle class="st1" cx="512.2" cy="34.4" r="6.9"/>
	<circle class="st1" cx="536.8" cy="34.4" r="6.9"/>
	<circle class="st1" cx="561.4" cy="34.4" r="6.9"/>
	<circle class="st1" cx="586" cy="34.4" r="6.9"/>
	<circle class="st1" cx="610.6" cy="34.4" r="6.9"/>
	<circle class="st1" cx="635.2" cy="34.4" r="6.9"/>
	<circle class="st1" cx="659.8" cy="34.4" r="6.9"/>
	<circle class="st1" cx="684.4" cy="34.4" r="6.9"/>
	<circle class="st1" cx="709" cy="34.4" r="6.9"/>
	<circle class="st1" cx="733.7" cy="34.4" r="6.9"/>
	<circle class="st1" cx="758.3" cy="34.4" r="6.9"/>
	<circle class="st1" cx="782.9" cy="34.4" r="6.9"/>
	<circle class="st1" cx="807.5" cy="34.4" r="6.9"/>
	<circle class="st1" cx="832.1" cy="34.4" r="6.9"/>
	<circle class="st1" cx="856.7" cy="34.4" r="6.9"/>
	<circle class="st1" cx="881.3" cy="34.4" r="6.9"/>
	<circle class="st1" cx="905.9" cy="34.4" r="6.9"/>
	<circle class="st1" cx="930.5" cy="34.4" r="6.9"/>
	<circle class="st1" cx="955.1" cy="34.4" r="6.9"/>
	<circle class="st1" cx="979.7" cy="34.4" r="6.9"/>
	<circle class="st1" cx="1004.3" cy="34.4" r="6.9"/>
	<circle class="st1" cx="1029" cy="34.4" r="6.9"/>
	<circle class="st1" cx="1053.6" cy="34.4" r="6.9"/>
	<circle class="st1" cx="1078.2" cy="34.4" r="6.9"/>
	<circle class="st1" cx="1102.8" cy="34.4" r="6.9"/>
	<circle class="st1" cx="1127.4" cy="34.4" r="6.9"/>
	<circle class="st1" cx="1152" cy="34.4" r="6.9"/>
	<circle class="st1" cx="1176.6" cy="34.4" r="6.9"/>
	<circle class="st1" cx="1201.2" cy="34.4" r="6.9"/>
	<circle class="st1" cx="1225.8" cy="34.4" r="6.9"/>
	<circle class="st1" cx="1250.4" cy="34.4" r="6.9"/>
	<circle class="st1" cx="1275" cy="34.4" r="6.9"/>
	<circle class="st1" cx="3.9" cy="68.9" r="6.9"/>
	<circle class="st1" cx="28.5" cy="68.9" r="6.9"/>
	<circle class="st1" cx="53.1" cy="68.9" r="6.9"/>
	<circle class="st1" cx="77.7" cy="68.9" r="6.9"/>
	<circle class="st1" cx="102.3" cy="68.9" r="6.9"/>
	<circle class="st1" cx="126.9" cy="68.9" r="6.9"/>
	<circle class="st1" cx="151.5" cy="68.9" r="6.9"/>
	<circle class="st1" cx="176.1" cy="68.9" r="6.9"/>
	<circle class="st1" cx="200.7" cy="68.9" r="6.9"/>
	<circle class="st1" cx="225.4" cy="68.9" r="6.9"/>
	<circle class="st1" cx="250" cy="68.9" r="6.9"/>
	<circle class="st1" cx="274.6" cy="68.9" r="6.9"/>
	<circle class="st1" cx="299.2" cy="68.9" r="6.9"/>
	<circle class="st1" cx="323.8" cy="68.9" r="6.9"/>
	<circle class="st1" cx="348.4" cy="68.9" r="6.9"/>
	<circle class="st1" cx="373" cy="68.9" r="6.9"/>
	<circle class="st1" cx="397.6" cy="68.9" r="6.9"/>
	<circle class="st1" cx="422.2" cy="68.9" r="6.9"/>
	<circle class="st1" cx="446.8" cy="68.9" r="6.9"/>
	<circle class="st1" cx="471.4" cy="68.9" r="6.9"/>
	<circle class="st1" cx="496" cy="68.9" r="6.9"/>
	<circle class="st1" cx="520.7" cy="68.9" r="6.9"/>
	<circle class="st1" cx="545.3" cy="68.9" r="6.9"/>
	<circle class="st1" cx="569.9" cy="68.9" r="6.9"/>
	<circle class="st1" cx="594.5" cy="68.9" r="6.9"/>
	<circle class="st1" cx="619.1" cy="68.9" r="6.9"/>
	<circle class="st1" cx="643.7" cy="68.9" r="6.9"/>
	<circle class="st1" cx="668.3" cy="68.9" r="6.9"/>
	<circle class="st1" cx="692.9" cy="68.9" r="6.9"/>
	<circle class="st1" cx="717.5" cy="68.9" r="6.9"/>
	<circle class="st1" cx="742.1" cy="68.9" r="6.9"/>
	<circle class="st1" cx="766.7" cy="68.9" r="6.9"/>
	<circle class="st1" cx="791.3" cy="68.9" r="6.9"/>
	<circle class="st1" cx="816" cy="68.9" r="6.9"/>
	<circle class="st1" cx="840.6" cy="68.9" r="6.9"/>
	<circle class="st1" cx="865.2" cy="68.9" r="6.9"/>
	<circle class="st1" cx="889.8" cy="68.9" r="6.9"/>
	<circle class="st1" cx="914.4" cy="68.9" r="6.9"/>
	<circle class="st1" cx="939" cy="68.9" r="6.9"/>
	<circle class="st1" cx="963.6" cy="68.9" r="6.9"/>
	<circle class="st1" cx="988.2" cy="68.9" r="6.9"/>
	<circle class="st1" cx="1012.8" cy="68.9" r="6.9"/>
	<circle class="st1" cx="1037.4" cy="68.9" r="6.9"/>
	<circle class="st1" cx="1062" cy="68.9" r="6.9"/>
	<circle class="st1" cx="1086.7" cy="68.9" r="6.9"/>
	<circle class="st1" cx="1111.3" cy="68.9" r="6.9"/>
	<circle class="st1" cx="1135.9" cy="68.9" r="6.9"/>
	<circle class="st1" cx="1160.5" cy="68.9" r="6.9"/>
	<circle class="st1" cx="1185.1" cy="68.9" r="6.9"/>
	<circle class="st1" cx="1209.7" cy="68.9" r="6.9"/>
	<circle class="st1" cx="1234.3" cy="68.9" r="6.9"/>
	<circle class="st1" cx="1258.9" cy="68.9" r="6.9"/>
	<circle class="st1" cx="20" cy="103.4" r="6.9"/>
	<circle class="st1" cx="44.6" cy="103.4" r="6.9"/>
	<circle class="st1" cx="69.2" cy="103.4" r="6.9"/>
	<circle class="st1" cx="93.8" cy="103.4" r="6.9"/>
	<circle class="st1" cx="118.4" cy="103.4" r="6.9"/>
	<circle class="st1" cx="143" cy="103.4" r="6.9"/>
	<circle class="st1" cx="167.7" cy="103.4" r="6.9"/>
	<circle class="st1" cx="192.3" cy="103.4" r="6.9"/>
	<circle class="st1" cx="216.9" cy="103.4" r="6.9"/>
	<circle class="st1" cx="241.5" cy="103.4" r="6.9"/>
	<circle class="st1" cx="266.1" cy="103.4" r="6.9"/>
	<circle class="st1" cx="290.7" cy="103.4" r="6.9"/>
	<circle class="st1" cx="315.3" cy="103.4" r="6.9"/>
	<circle class="st1" cx="339.9" cy="103.4" r="6.9"/>
	<circle class="st1" cx="364.5" cy="103.4" r="6.9"/>
	<circle class="st1" cx="389.1" cy="103.4" r="6.9"/>
	<circle class="st1" cx="413.7" cy="103.4" r="6.9"/>
	<circle class="st1" cx="438.3" cy="103.4" r="6.9"/>
	<circle class="st1" cx="463" cy="103.4" r="6.9"/>
	<circle class="st1" cx="487.6" cy="103.4" r="6.9"/>
	<circle class="st1" cx="512.2" cy="103.4" r="6.9"/>
	<circle class="st1" cx="536.8" cy="103.4" r="6.9"/>
	<circle class="st1" cx="561.4" cy="103.4" r="6.9"/>
	<circle class="st1" cx="586" cy="103.4" r="6.9"/>
	<circle class="st1" cx="610.6" cy="103.4" r="6.9"/>
	<circle class="st1" cx="635.2" cy="103.4" r="6.9"/>
	<circle class="st1" cx="659.8" cy="103.4" r="6.9"/>
	<circle class="st1" cx="684.4" cy="103.4" r="6.9"/>
	<circle class="st1" cx="709" cy="103.4" r="6.9"/>
	<circle class="st1" cx="733.7" cy="103.4" r="6.9"/>
	<circle class="st1" cx="758.3" cy="103.4" r="6.9"/>
	<circle class="st1" cx="782.9" cy="103.4" r="6.9"/>
	<circle class="st1" cx="807.5" cy="103.4" r="6.9"/>
	<circle class="st1" cx="832.1" cy="103.4" r="6.9"/>
	<circle class="st1" cx="856.7" cy="103.4" r="6.9"/>
	<circle class="st1" cx="881.3" cy="103.4" r="6.9"/>
	<circle class="st1" cx="905.9" cy="103.4" r="6.9"/>
	<circle class="st1" cx="930.5" cy="103.4" r="6.9"/>
	<circle class="st1" cx="955.1" cy="103.4" r="6.9"/>
	<circle class="st1" cx="979.7" cy="103.4" r="6.9"/>
	<circle class="st1" cx="1004.3" cy="103.4" r="6.9"/>
	<circle class="st1" cx="1029" cy="103.4" r="6.9"/>
	<circle class="st1" cx="1053.6" cy="103.4" r="6.9"/>
	<circle class="st1" cx="1078.2" cy="103.4" r="6.9"/>
	<circle class="st1" cx="1102.8" cy="103.4" r="6.9"/>
	<circle class="st1" cx="1127.4" cy="103.4" r="6.9"/>
	<circle class="st1" cx="1152" cy="103.4" r="6.9"/>
	<circle class="st1" cx="1176.6" cy="103.4" r="6.9"/>
	<circle class="st1" cx="1201.2" cy="103.4" r="6.9"/>
	<circle class="st1" cx="1225.8" cy="103.4" r="6.9"/>
	<circle class="st1" cx="1250.4" cy="103.4" r="6.9"/>
	<circle class="st1" cx="1275" cy="103.4" r="6.9"/>
	<circle class="st1" cx="-10" cy="137.8" r="6.9"/>
	<circle class="st1" cx="14.6" cy="137.8" r="6.9"/>
	<circle class="st1" cx="39.2" cy="137.8" r="6.9"/>
	<circle class="st1" cx="63.8" cy="137.8" r="6.9"/>
	<circle class="st1" cx="88.5" cy="137.8" r="6.9"/>
	<circle class="st1" cx="113.1" cy="137.8" r="6.9"/>
	<circle class="st1" cx="137.7" cy="137.8" r="6.9"/>
	<circle class="st1" cx="162.3" cy="137.8" r="6.9"/>
	<circle class="st1" cx="186.9" cy="137.8" r="6.9"/>
	<circle class="st1" cx="211.5" cy="137.8" r="6.9"/>
	<circle class="st1" cx="236.1" cy="137.8" r="6.9"/>
	<circle class="st1" cx="260.7" cy="137.8" r="6.9"/>
	<circle class="st1" cx="285.3" cy="137.8" r="6.9"/>
	<circle class="st1" cx="309.9" cy="137.8" r="6.9"/>
	<circle class="st1" cx="334.5" cy="137.8" r="6.9"/>
	<circle class="st1" cx="359.1" cy="137.8" r="6.9"/>
	<circle class="st1" cx="383.8" cy="137.8" r="6.9"/>
	<circle class="st1" cx="408.4" cy="137.8" r="6.9"/>
	<circle class="st1" cx="433" cy="137.8" r="6.9"/>
	<circle class="st1" cx="457.6" cy="137.8" r="6.9"/>
	<circle class="st1" cx="482.2" cy="137.8" r="6.9"/>
	<circle class="st1" cx="506.8" cy="137.8" r="6.9"/>
	<circle class="st1" cx="531.4" cy="137.8" r="6.9"/>
	<circle class="st1" cx="556" cy="137.8" r="6.9"/>
	<circle class="st1" cx="580.6" cy="137.8" r="6.9"/>
	<circle class="st1" cx="605.2" cy="137.8" r="6.9"/>
	<circle class="st1" cx="629.8" cy="137.8" r="6.9"/>
	<circle class="st1" cx="654.4" cy="137.8" r="6.9"/>
	<circle class="st1" cx="679.1" cy="137.8" r="6.9"/>
	<circle class="st1" cx="703.7" cy="137.8" r="6.9"/>
	<circle class="st1" cx="728.3" cy="137.8" r="6.9"/>
	<circle class="st1" cx="752.9" cy="137.8" r="6.9"/>
	<circle class="st1" cx="777.5" cy="137.8" r="6.9"/>
	<circle class="st1" cx="802.1" cy="137.8" r="6.9"/>
	<circle class="st1" cx="826.7" cy="137.8" r="6.9"/>
	<circle class="st1" cx="851.3" cy="137.8" r="6.9"/>
	<circle class="st1" cx="875.9" cy="137.8" r="6.9"/>
	<circle class="st1" cx="900.5" cy="137.8" r="6.9"/>
	<circle class="st1" cx="925.1" cy="137.8" r="6.9"/>
	<circle class="st1" cx="949.8" cy="137.8" r="6.9"/>
	<circle class="st1" cx="974.4" cy="137.8" r="6.9"/>
	<circle class="st1" cx="999" cy="137.8" r="6.9"/>
	<circle class="st1" cx="1023.6" cy="137.8" r="6.9"/>
	<circle class="st1" cx="1048.2" cy="137.8" r="6.9"/>
	<circle class="st1" cx="1072.8" cy="137.8" r="6.9"/>
	<circle class="st1" cx="1097.4" cy="137.8" r="6.9"/>
	<circle class="st1" cx="1122" cy="137.8" r="6.9"/>
	<circle class="st1" cx="1146.6" cy="137.8" r="6.9"/>
	<circle class="st1" cx="1171.2" cy="137.8" r="6.9"/>
	<circle class="st1" cx="1195.8" cy="137.8" r="6.9"/>
	<circle class="st1" cx="1220.4" cy="137.8" r="6.9"/>
	<circle class="st1" cx="1245.1" cy="137.8" r="6.9"/>
	<circle class="st1" cx="21.6" cy="172.3" r="6.9"/>
	<circle class="st1" cx="46.2" cy="172.3" r="6.9"/>
	<circle class="st1" cx="70.8" cy="172.3" r="6.9"/>
	<circle class="st1" cx="95.4" cy="172.3" r="6.9"/>
	<circle class="st1" cx="120" cy="172.3" r="6.9"/>
	<circle class="st1" cx="144.6" cy="172.3" r="6.9"/>
	<circle class="st1" cx="169.2" cy="172.3" r="6.9"/>
	<circle class="st1" cx="193.8" cy="172.3" r="6.9"/>
	<circle class="st1" cx="218.4" cy="172.3" r="6.9"/>
	<circle class="st1" cx="243" cy="172.3" r="6.9"/>
	<circle class="st1" cx="267.6" cy="172.3" r="6.9"/>
	<circle class="st1" cx="292.3" cy="172.3" r="6.9"/>
	<circle class="st1" cx="316.9" cy="172.3" r="6.9"/>
	<circle class="st1" cx="341.5" cy="172.3" r="6.9"/>
	<circle class="st1" cx="366.1" cy="172.3" r="6.9"/>
	<circle class="st1" cx="390.7" cy="172.3" r="6.9"/>
	<circle class="st1" cx="415.3" cy="172.3" r="6.9"/>
	<circle class="st1" cx="439.9" cy="172.3" r="6.9"/>
	<circle class="st1" cx="464.5" cy="172.3" r="6.9"/>
	<circle class="st1" cx="489.1" cy="172.3" r="6.9"/>
	<circle class="st1" cx="513.7" cy="172.3" r="6.9"/>
	<circle class="st1" cx="538.3" cy="172.3" r="6.9"/>
	<circle class="st1" cx="562.9" cy="172.3" r="6.9"/>
	<circle class="st1" cx="587.6" cy="172.3" r="6.9"/>
	<circle class="st1" cx="612.2" cy="172.3" r="6.9"/>
	<circle class="st1" cx="636.8" cy="172.3" r="6.9"/>
	<circle class="st1" cx="661.4" cy="172.3" r="6.9"/>
	<circle class="st1" cx="686" cy="172.3" r="6.9"/>
	<circle class="st1" cx="710.6" cy="172.3" r="6.9"/>
	<circle class="st1" cx="735.2" cy="172.3" r="6.9"/>
	<circle class="st1" cx="759.8" cy="172.3" r="6.9"/>
	<circle class="st1" cx="784.4" cy="172.3" r="6.9"/>
	<circle class="st1" cx="809" cy="172.3" r="6.9"/>
	<circle class="st1" cx="833.6" cy="172.3" r="6.9"/>
	<circle class="st1" cx="858.2" cy="172.3" r="6.9"/>
	<circle class="st1" cx="882.9" cy="172.3" r="6.9"/>
	<circle class="st1" cx="907.5" cy="172.3" r="6.9"/>
	<circle class="st1" cx="932.1" cy="172.3" r="6.9"/>
	<circle class="st1" cx="956.7" cy="172.3" r="6.9"/>
	<circle class="st1" cx="981.3" cy="172.3" r="6.9"/>
	<circle class="st1" cx="1005.9" cy="172.3" r="6.9"/>
	<circle class="st1" cx="1030.5" cy="172.3" r="6.9"/>
	<circle class="st1" cx="1055.1" cy="172.3" r="6.9"/>
	<circle class="st1" cx="1079.7" cy="172.3" r="6.9"/>
	<circle class="st1" cx="1104.3" cy="172.3" r="6.9"/>
	<circle class="st1" cx="1128.9" cy="172.3" r="6.9"/>
	<circle class="st1" cx="1153.5" cy="172.3" r="6.9"/>
	<circle class="st1" cx="1178.2" cy="172.3" r="6.9"/>
	<circle class="st1" cx="1202.8" cy="172.3" r="6.9"/>
	<circle class="st1" cx="1227.4" cy="172.3" r="6.9"/>
	<circle class="st1" cx="1252" cy="172.3" r="6.9"/>
	<circle class="st1" cx="1276.6" cy="172.3" r="6.9"/>
	<circle class="st1" cx="0.8" cy="206.8" r="6.9"/>
	<circle class="st1" cx="25.4" cy="206.8" r="6.9"/>
	<circle class="st1" cx="50" cy="206.8" r="6.9"/>
	<circle class="st1" cx="74.6" cy="206.8" r="6.9"/>
	<circle class="st1" cx="99.2" cy="206.8" r="6.9"/>
	<circle class="st1" cx="123.8" cy="206.8" r="6.9"/>
	<circle class="st1" cx="148.4" cy="206.8" r="6.9"/>
	<circle class="st1" cx="173" cy="206.8" r="6.9"/>
	<circle class="st1" cx="197.6" cy="206.8" r="6.9"/>
	<circle class="st1" cx="222.2" cy="206.8" r="6.9"/>
	<circle class="st1" cx="246.9" cy="206.8" r="6.9"/>
	<circle class="st1" cx="271.5" cy="206.8" r="6.9"/>
	<circle class="st1" cx="296.1" cy="206.8" r="6.9"/>
	<circle class="st1" cx="320.7" cy="206.8" r="6.9"/>
	<circle class="st1" cx="345.3" cy="206.8" r="6.9"/>
	<circle class="st1" cx="369.9" cy="206.8" r="6.9"/>
	<circle class="st1" cx="394.5" cy="206.8" r="6.9"/>
	<circle class="st1" cx="419.1" cy="206.8" r="6.9"/>
	<circle class="st1" cx="443.7" cy="206.8" r="6.9"/>
	<circle class="st1" cx="468.3" cy="206.8" r="6.9"/>
	<circle class="st1" cx="492.9" cy="206.8" r="6.9"/>
	<circle class="st1" cx="517.6" cy="206.8" r="6.9"/>
	<circle class="st1" cx="542.2" cy="206.8" r="6.9"/>
	<circle class="st1" cx="566.8" cy="206.8" r="6.9"/>
	<circle class="st1" cx="591.4" cy="206.8" r="6.9"/>
	<circle class="st1" cx="616" cy="206.8" r="6.9"/>
	<circle class="st1" cx="640.6" cy="206.8" r="6.9"/>
	<circle class="st1" cx="665.2" cy="206.8" r="6.9"/>
	<circle class="st1" cx="689.8" cy="206.8" r="6.9"/>
	<circle class="st1" cx="714.4" cy="206.8" r="6.9"/>
	<circle class="st1" cx="739" cy="206.8" r="6.9"/>
	<circle class="st1" cx="763.6" cy="206.8" r="6.9"/>
	<circle class="st1" cx="788.2" cy="206.8" r="6.9"/>
	<circle class="st1" cx="812.9" cy="206.8" r="6.9"/>
	<circle class="st1" cx="837.5" cy="206.8" r="6.9"/>
	<circle class="st1" cx="862.1" cy="206.8" r="6.9"/>
	<circle class="st1" cx="886.7" cy="206.8" r="6.9"/>
	<circle class="st1" cx="911.3" cy="206.8" r="6.9"/>
	<circle class="st1" cx="935.9" cy="206.8" r="6.9"/>
	<circle class="st1" cx="960.5" cy="206.8" r="6.9"/>
	<circle class="st1" cx="985.1" cy="206.8" r="6.9"/>
	<circle class="st1" cx="1009.7" cy="206.8" r="6.9"/>
	<circle class="st1" cx="1034.3" cy="206.8" r="6.9"/>
	<circle class="st1" cx="1058.9" cy="206.8" r="6.9"/>
	<circle class="st1" cx="1083.5" cy="206.8" r="6.9"/>
	<circle class="st1" cx="1108.2" cy="206.8" r="6.9"/>
	<circle class="st1" cx="1132.8" cy="206.8" r="6.9"/>
	<circle class="st1" cx="1157.4" cy="206.8" r="6.9"/>
	<circle class="st1" cx="1182" cy="206.8" r="6.9"/>
	<circle class="st1" cx="1206.6" cy="206.8" r="6.9"/>
	<circle class="st1" cx="1231.2" cy="206.8" r="6.9"/>
	<circle class="st1" cx="1255.8" cy="206.8" r="6.9"/>
	<circle class="st1" cx="33.9" cy="241.3" r="6.9"/>
	<circle class="st1" cx="58.5" cy="241.3" r="6.9"/>
	<circle class="st1" cx="83.1" cy="241.3" r="6.9"/>
	<circle class="st1" cx="107.7" cy="241.3" r="6.9"/>
	<circle class="st1" cx="132.3" cy="241.3" r="6.9"/>
	<circle class="st1" cx="156.9" cy="241.3" r="6.9"/>
	<circle class="st1" cx="181.5" cy="241.3" r="6.9"/>
	<circle class="st1" cx="206.1" cy="241.3" r="6.9"/>
	<circle class="st1" cx="230.7" cy="241.3" r="6.9"/>
	<circle class="st1" cx="255.3" cy="241.3" r="6.9"/>
	<circle class="st1" cx="279.9" cy="241.3" r="6.9"/>
	<circle class="st1" cx="304.6" cy="241.3" r="6.9"/>
	<circle class="st1" cx="329.2" cy="241.3" r="6.9"/>
	<circle class="st1" cx="353.8" cy="241.3" r="6.9"/>
	<circle class="st1" cx="378.4" cy="241.3" r="6.9"/>
	<circle class="st1" cx="403" cy="241.3" r="6.9"/>
	<circle class="st1" cx="427.6" cy="241.3" r="6.9"/>
	<circle class="st1" cx="452.2" cy="241.3" r="6.9"/>
	<circle class="st1" cx="476.8" cy="241.3" r="6.9"/>
	<circle class="st1" cx="501.4" cy="241.3" r="6.9"/>
	<circle class="st1" cx="526" cy="241.3" r="6.9"/>
	<circle class="st1" cx="550.6" cy="241.3" r="6.9"/>
	<circle class="st1" cx="575.2" cy="241.3" r="6.9"/>
	<circle class="st1" cx="599.9" cy="241.3" r="6.9"/>
	<circle class="st1" cx="624.5" cy="241.3" r="6.9"/>
	<circle class="st1" cx="649.1" cy="241.3" r="6.9"/>
	<circle class="st1" cx="673.7" cy="241.3" r="6.9"/>
	<circle class="st1" cx="698.3" cy="241.3" r="6.9"/>
	<circle class="st1" cx="722.9" cy="241.3" r="6.9"/>
	<circle class="st1" cx="747.5" cy="241.3" r="6.9"/>
	<circle class="st1" cx="772.1" cy="241.3" r="6.9"/>
	<circle class="st1" cx="796.7" cy="241.3" r="6.9"/>
	<circle class="st1" cx="821.3" cy="241.3" r="6.9"/>
	<circle class="st1" cx="845.9" cy="241.3" r="6.9"/>
	<circle class="st1" cx="870.6" cy="241.3" r="6.9"/>
	<circle class="st1" cx="895.2" cy="241.3" r="6.9"/>
	<circle class="st1" cx="919.8" cy="241.3" r="6.9"/>
	<circle class="st1" cx="944.4" cy="241.3" r="6.9"/>
	<circle class="st1" cx="969" cy="241.3" r="6.9"/>
	<circle class="st1" cx="993.6" cy="241.3" r="6.9"/>
	<circle class="st1" cx="1018.2" cy="241.3" r="6.9"/>
	<circle class="st1" cx="1042.8" cy="241.3" r="6.9"/>
	<circle class="st1" cx="1067.4" cy="241.3" r="6.9"/>
	<circle class="st1" cx="1092" cy="241.3" r="6.9"/>
	<circle class="st1" cx="1116.6" cy="241.3" r="6.9"/>
	<circle class="st1" cx="1141.2" cy="241.3" r="6.9"/>
	<circle class="st1" cx="1165.9" cy="241.3" r="6.9"/>
	<circle class="st1" cx="1190.5" cy="241.3" r="6.9"/>
	<circle class="st1" cx="1215.1" cy="241.3" r="6.9"/>
	<circle class="st1" cx="1239.7" cy="241.3" r="6.9"/>
	<circle class="st1" cx="1264.3" cy="241.3" r="6.9"/>
	<circle class="st1" cx="1288.9" cy="241.3" r="6.9"/>
	<circle class="st1" cx="13.1" cy="275.8" r="6.9"/>
	<circle class="st1" cx="37.7" cy="275.8" r="6.9"/>
	<circle class="st1" cx="62.3" cy="275.8" r="6.9"/>
	<circle class="st1" cx="86.9" cy="275.8" r="6.9"/>
	<circle class="st1" cx="111.5" cy="275.8" r="6.9"/>
	<circle class="st1" cx="136.1" cy="275.8" r="6.9"/>
	<circle class="st1" cx="160.7" cy="275.8" r="6.9"/>
	<circle class="st1" cx="185.3" cy="275.8" r="6.9"/>
	<circle class="st1" cx="209.9" cy="275.8" r="6.9"/>
	<circle class="st1" cx="234.6" cy="275.8" r="6.9"/>
	<circle class="st1" cx="259.2" cy="275.8" r="6.9"/>
	<circle class="st1" cx="283.8" cy="275.8" r="6.9"/>
	<circle class="st1" cx="308.4" cy="275.8" r="6.9"/>
	<circle class="st1" cx="333" cy="275.8" r="6.9"/>
	<circle class="st1" cx="357.6" cy="275.8" r="6.9"/>
	<circle class="st1" cx="382.2" cy="275.8" r="6.9"/>
	<circle class="st1" cx="406.8" cy="275.8" r="6.9"/>
	<circle class="st1" cx="431.4" cy="275.8" r="6.9"/>
	<circle class="st1" cx="456" cy="275.8" r="6.9"/>
	<circle class="st1" cx="480.6" cy="275.8" r="6.9"/>
	<circle class="st1" cx="505.2" cy="275.8" r="6.9"/>
	<circle class="st1" cx="529.9" cy="275.8" r="6.9"/>
	<circle class="st1" cx="554.5" cy="275.8" r="6.9"/>
	<circle class="st1" cx="579.1" cy="275.8" r="6.9"/>
	<circle class="st1" cx="603.7" cy="275.8" r="6.9"/>
	<circle class="st1" cx="628.3" cy="275.8" r="6.9"/>
	<circle class="st1" cx="652.9" cy="275.8" r="6.9"/>
	<circle class="st1" cx="677.5" cy="275.8" r="6.9"/>
	<circle class="st1" cx="702.1" cy="275.8" r="6.9"/>
	<circle class="st1" cx="726.7" cy="275.8" r="6.9"/>
	<circle class="st1" cx="751.3" cy="275.8" r="6.9"/>
	<circle class="st1" cx="775.9" cy="275.8" r="6.9"/>
	<circle class="st1" cx="800.5" cy="275.8" r="6.9"/>
	<circle class="st1" cx="825.2" cy="275.8" r="6.9"/>
	<circle class="st1" cx="849.8" cy="275.8" r="6.9"/>
	<circle class="st1" cx="874.4" cy="275.8" r="6.9"/>
	<circle class="st1" cx="899" cy="275.8" r="6.9"/>
	<circle class="st1" cx="923.6" cy="275.8" r="6.9"/>
	<circle class="st1" cx="948.2" cy="275.8" r="6.9"/>
	<circle class="st1" cx="972.8" cy="275.8" r="6.9"/>
	<circle class="st1" cx="997.4" cy="275.8" r="6.9"/>
	<circle class="st1" cx="1022" cy="275.8" r="6.9"/>
	<circle class="st1" cx="1046.6" cy="275.8" r="6.9"/>
	<circle class="st1" cx="1071.2" cy="275.8" r="6.9"/>
	<circle class="st1" cx="1095.9" cy="275.8" r="6.9"/>
	<circle class="st1" cx="1120.5" cy="275.8" r="6.9"/>
	<circle class="st1" cx="1145.1" cy="275.8" r="6.9"/>
	<circle class="st1" cx="1169.7" cy="275.8" r="6.9"/>
	<circle class="st1" cx="1194.3" cy="275.8" r="6.9"/>
	<circle class="st1" cx="1218.9" cy="275.8" r="6.9"/>
	<circle class="st1" cx="1243.5" cy="275.8" r="6.9"/>
	<circle class="st1" cx="1268.1" cy="275.8" r="6.9"/>
	<circle class="st1" cx="30.8" cy="310.2" r="6.9"/>
	<circle class="st1" cx="55.4" cy="310.2" r="6.9"/>
	<circle class="st1" cx="80" cy="310.2" r="6.9"/>
	<circle class="st1" cx="104.6" cy="310.2" r="6.9"/>
	<circle class="st1" cx="129.2" cy="310.2" r="6.9"/>
	<circle class="st1" cx="153.8" cy="310.2" r="6.9"/>
	<circle class="st1" cx="178.4" cy="310.2" r="6.9"/>
	<circle class="st1" cx="203" cy="310.2" r="6.9"/>
	<circle class="st1" cx="227.6" cy="310.2" r="6.9"/>
	<circle class="st1" cx="252.2" cy="310.2" r="6.9"/>
	<circle class="st1" cx="276.8" cy="310.2" r="6.9"/>
	<circle class="st1" cx="301.5" cy="310.2" r="6.9"/>
	<circle class="st1" cx="326.1" cy="310.2" r="6.9"/>
	<circle class="st1" cx="350.7" cy="310.2" r="6.9"/>
	<circle class="st1" cx="375.3" cy="310.2" r="6.9"/>
	<circle class="st1" cx="399.9" cy="310.2" r="6.9"/>
	<circle class="st1" cx="424.5" cy="310.2" r="6.9"/>
	<circle class="st1" cx="449.1" cy="310.2" r="6.9"/>
	<circle class="st1" cx="473.7" cy="310.2" r="6.9"/>
	<circle class="st1" cx="498.3" cy="310.2" r="6.9"/>
	<circle class="st1" cx="522.9" cy="310.2" r="6.9"/>
	<circle class="st1" cx="547.5" cy="310.2" r="6.9"/>
	<circle class="st1" cx="572.1" cy="310.2" r="6.9"/>
	<circle class="st1" cx="596.8" cy="310.2" r="6.9"/>
	<circle class="st1" cx="621.4" cy="310.2" r="6.9"/>
	<circle class="st1" cx="646" cy="310.2" r="6.9"/>
	<circle class="st1" cx="670.6" cy="310.2" r="6.9"/>
	<circle class="st1" cx="695.2" cy="310.2" r="6.9"/>
	<circle class="st1" cx="719.8" cy="310.2" r="6.9"/>
	<circle class="st1" cx="744.4" cy="310.2" r="6.9"/>
	<circle class="st1" cx="769" cy="310.2" r="6.9"/>
	<circle class="st1" cx="793.6" cy="310.2" r="6.9"/>
	<circle class="st1" cx="818.2" cy="310.2" r="6.9"/>
	<circle class="st1" cx="842.8" cy="310.2" r="6.9"/>
	<circle class="st1" cx="867.4" cy="310.2" r="6.9"/>
	<circle class="st1" cx="892.1" cy="310.2" r="6.9"/>
	<circle class="st1" cx="916.7" cy="310.2" r="6.9"/>
	<circle class="st1" cx="941.3" cy="310.2" r="6.9"/>
	<circle class="st1" cx="965.9" cy="310.2" r="6.9"/>
	<circle class="st1" cx="990.5" cy="310.2" r="6.9"/>
	<circle class="st1" cx="1015.1" cy="310.2" r="6.9"/>
	<circle class="st1" cx="1039.7" cy="310.2" r="6.9"/>
	<circle class="st1" cx="1064.3" cy="310.2" r="6.9"/>
	<circle class="st1" cx="1088.9" cy="310.2" r="6.9"/>
	<circle class="st1" cx="1113.5" cy="310.2" r="6.9"/>
	<circle class="st1" cx="1138.1" cy="310.2" r="6.9"/>
	<circle class="st1" cx="1162.7" cy="310.2" r="6.9"/>
	<circle class="st1" cx="1187.4" cy="310.2" r="6.9"/>
	<circle class="st1" cx="1212" cy="310.2" r="6.9"/>
	<circle class="st1" cx="1236.6" cy="310.2" r="6.9"/>
	<circle class="st1" cx="1261.2" cy="310.2" r="6.9"/>
	<circle class="st1" cx="1285.8" cy="310.2" r="6.9"/>
	<circle class="st1" cx="14.6" cy="344.7" r="6.9"/>
	<circle class="st1" cx="39.2" cy="344.7" r="6.9"/>
	<circle class="st1" cx="63.8" cy="344.7" r="6.9"/>
	<circle class="st1" cx="88.5" cy="344.7" r="6.9"/>
	<circle class="st1" cx="113.1" cy="344.7" r="6.9"/>
	<circle class="st1" cx="137.7" cy="344.7" r="6.9"/>
	<circle class="st1" cx="162.3" cy="344.7" r="6.9"/>
	<circle class="st1" cx="186.9" cy="344.7" r="6.9"/>
	<circle class="st1" cx="211.5" cy="344.7" r="6.9"/>
	<circle class="st1" cx="236.1" cy="344.7" r="6.9"/>
	<circle class="st1" cx="260.7" cy="344.7" r="6.9"/>
	<circle class="st1" cx="285.3" cy="344.7" r="6.9"/>
	<circle class="st1" cx="309.9" cy="344.7" r="6.9"/>
	<circle class="st1" cx="334.5" cy="344.7" r="6.9"/>
	<circle class="st1" cx="359.1" cy="344.7" r="6.9"/>
	<circle class="st1" cx="383.8" cy="344.7" r="6.9"/>
	<circle class="st1" cx="408.4" cy="344.7" r="6.9"/>
	<circle class="st1" cx="433" cy="344.7" r="6.9"/>
	<circle class="st1" cx="457.6" cy="344.7" r="6.9"/>
	<circle class="st1" cx="482.2" cy="344.7" r="6.9"/>
	<circle class="st1" cx="506.8" cy="344.7" r="6.9"/>
	<circle class="st1" cx="531.4" cy="344.7" r="6.9"/>
	<circle class="st1" cx="556" cy="344.7" r="6.9"/>
	<circle class="st1" cx="580.6" cy="344.7" r="6.9"/>
	<circle class="st1" cx="605.2" cy="344.7" r="6.9"/>
	<circle class="st1" cx="629.8" cy="344.7" r="6.9"/>
	<circle class="st1" cx="654.4" cy="344.7" r="6.9"/>
	<circle class="st1" cx="679.1" cy="344.7" r="6.9"/>
	<circle class="st1" cx="703.7" cy="344.7" r="6.9"/>
	<circle class="st1" cx="728.3" cy="344.7" r="6.9"/>
	<circle class="st1" cx="752.9" cy="344.7" r="6.9"/>
	<circle class="st1" cx="777.5" cy="344.7" r="6.9"/>
	<circle class="st1" cx="802.1" cy="344.7" r="6.9"/>
	<circle class="st1" cx="826.7" cy="344.7" r="6.9"/>
	<circle class="st1" cx="851.3" cy="344.7" r="6.9"/>
	<circle class="st1" cx="875.9" cy="344.7" r="6.9"/>
	<circle class="st1" cx="900.5" cy="344.7" r="6.9"/>
	<circle class="st1" cx="925.1" cy="344.7" r="6.9"/>
	<circle class="st1" cx="949.8" cy="344.7" r="6.9"/>
	<circle class="st1" cx="974.4" cy="344.7" r="6.9"/>
	<circle class="st1" cx="999" cy="344.7" r="6.9"/>
	<circle class="st1" cx="1023.6" cy="344.7" r="6.9"/>
	<circle class="st1" cx="1048.2" cy="344.7" r="6.9"/>
	<circle class="st1" cx="1072.8" cy="344.7" r="6.9"/>
	<circle class="st1" cx="1097.4" cy="344.7" r="6.9"/>
	<circle class="st1" cx="1122" cy="344.7" r="6.9"/>
	<circle class="st1" cx="1146.6" cy="344.7" r="6.9"/>
	<circle class="st1" cx="1171.2" cy="344.7" r="6.9"/>
	<circle class="st1" cx="1195.8" cy="344.7" r="6.9"/>
	<circle class="st1" cx="1220.4" cy="344.7" r="6.9"/>
	<circle class="st1" cx="1245.1" cy="344.7" r="6.9"/>
	<circle class="st1" cx="1269.7" cy="344.7" r="6.9"/>
	<circle class="st1" cx="32.3" cy="379.2" r="6.9"/>
	<circle class="st1" cx="56.9" cy="379.2" r="6.9"/>
	<circle class="st1" cx="81.5" cy="379.2" r="6.9"/>
	<circle class="st1" cx="106.1" cy="379.2" r="6.9"/>
	<circle class="st1" cx="130.7" cy="379.2" r="6.9"/>
	<circle class="st1" cx="155.4" cy="379.2" r="6.9"/>
	<circle class="st1" cx="180" cy="379.2" r="6.9"/>
	<circle class="st1" cx="204.6" cy="379.2" r="6.9"/>
	<circle class="st1" cx="229.2" cy="379.2" r="6.9"/>
	<circle class="st1" cx="253.8" cy="379.2" r="6.9"/>
	<circle class="st1" cx="278.4" cy="379.2" r="6.9"/>
	<circle class="st1" cx="303" cy="379.2" r="6.9"/>
	<circle class="st1" cx="327.6" cy="379.2" r="6.9"/>
	<circle class="st1" cx="352.2" cy="379.2" r="6.9"/>
	<circle class="st1" cx="376.8" cy="379.2" r="6.9"/>
	<circle class="st1" cx="401.4" cy="379.2" r="6.9"/>
	<circle class="st1" cx="426" cy="379.2" r="6.9"/>
	<circle class="st1" cx="450.7" cy="379.2" r="6.9"/>
	<circle class="st1" cx="475.3" cy="379.2" r="6.9"/>
	<circle class="st1" cx="499.9" cy="379.2" r="6.9"/>
	<circle class="st1" cx="524.5" cy="379.2" r="6.9"/>
	<circle class="st1" cx="549.1" cy="379.2" r="6.9"/>
	<circle class="st1" cx="573.7" cy="379.2" r="6.9"/>
	<circle class="st1" cx="598.3" cy="379.2" r="6.9"/>
	<circle class="st1" cx="622.9" cy="379.2" r="6.9"/>
	<circle class="st1" cx="647.5" cy="379.2" r="6.9"/>
	<circle class="st1" cx="672.1" cy="379.2" r="6.9"/>
	<circle class="st1" cx="696.7" cy="379.2" r="6.9"/>
	<circle class="st1" cx="721.3" cy="379.2" r="6.9"/>
	<circle class="st1" cx="746" cy="379.2" r="6.9"/>
	<circle class="st1" cx="770.6" cy="379.2" r="6.9"/>
	<circle class="st1" cx="795.2" cy="379.2" r="6.9"/>
	<circle class="st1" cx="819.8" cy="379.2" r="6.9"/>
	<circle class="st1" cx="844.4" cy="379.2" r="6.9"/>
	<circle class="st1" cx="869" cy="379.2" r="6.9"/>
	<circle class="st1" cx="893.6" cy="379.2" r="6.9"/>
	<circle class="st1" cx="918.2" cy="379.2" r="6.9"/>
	<circle class="st1" cx="942.8" cy="379.2" r="6.9"/>
	<circle class="st1" cx="967.4" cy="379.2" r="6.9"/>
	<circle class="st1" cx="992" cy="379.2" r="6.9"/>
	<circle class="st1" cx="1016.6" cy="379.2" r="6.9"/>
	<circle class="st1" cx="1041.3" cy="379.2" r="6.9"/>
	<circle class="st1" cx="1065.9" cy="379.2" r="6.9"/>
	<circle class="st1" cx="1090.5" cy="379.2" r="6.9"/>
	<circle class="st1" cx="1115.1" cy="379.2" r="6.9"/>
	<circle class="st1" cx="1139.7" cy="379.2" r="6.9"/>
	<circle class="st1" cx="1164.3" cy="379.2" r="6.9"/>
	<circle class="st1" cx="1188.9" cy="379.2" r="6.9"/>
	<circle class="st1" cx="1213.5" cy="379.2" r="6.9"/>
	<circle class="st1" cx="1238.1" cy="379.2" r="6.9"/>
	<circle class="st1" cx="1262.7" cy="379.2" r="6.9"/>
	<circle class="st1" cx="1287.3" cy="379.2" r="6.9"/>
	<circle class="st1" cx="9.3" cy="413.7" r="6.9"/>
	<circle class="st1" cx="33.9" cy="413.7" r="6.9"/>
	<circle class="st1" cx="58.5" cy="413.7" r="6.9"/>
	<circle class="st1" cx="83.1" cy="413.7" r="6.9"/>
	<circle class="st1" cx="107.7" cy="413.7" r="6.9"/>
	<circle class="st1" cx="132.3" cy="413.7" r="6.9"/>
	<circle class="st1" cx="156.9" cy="413.7" r="6.9"/>
	<circle class="st1" cx="181.5" cy="413.7" r="6.9"/>
	<circle class="st1" cx="206.1" cy="413.7" r="6.9"/>
	<circle class="st1" cx="230.7" cy="413.7" r="6.9"/>
	<circle class="st1" cx="255.3" cy="413.7" r="6.9"/>
	<circle class="st1" cx="279.9" cy="413.7" r="6.9"/>
	<circle class="st1" cx="304.6" cy="413.7" r="6.9"/>
	<circle class="st1" cx="329.2" cy="413.7" r="6.9"/>
	<circle class="st1" cx="353.8" cy="413.7" r="6.9"/>
	<circle class="st1" cx="378.4" cy="413.7" r="6.9"/>
	<circle class="st1" cx="403" cy="413.7" r="6.9"/>
	<circle class="st1" cx="427.6" cy="413.7" r="6.9"/>
	<circle class="st1" cx="452.2" cy="413.7" r="6.9"/>
	<circle class="st1" cx="476.8" cy="413.7" r="6.9"/>
	<circle class="st1" cx="501.4" cy="413.7" r="6.9"/>
	<circle class="st1" cx="526" cy="413.7" r="6.9"/>
	<circle class="st1" cx="550.6" cy="413.7" r="6.9"/>
	<circle class="st1" cx="575.2" cy="413.7" r="6.9"/>
	<circle class="st1" cx="599.9" cy="413.7" r="6.9"/>
	<circle class="st1" cx="624.5" cy="413.7" r="6.9"/>
	<circle class="st1" cx="649.1" cy="413.7" r="6.9"/>
	<circle class="st1" cx="673.7" cy="413.7" r="6.9"/>
	<circle class="st1" cx="698.3" cy="413.7" r="6.9"/>
	<circle class="st1" cx="722.9" cy="413.7" r="6.9"/>
	<circle class="st1" cx="747.5" cy="413.7" r="6.9"/>
	<circle class="st1" cx="772.1" cy="413.7" r="6.9"/>
	<circle class="st1" cx="796.7" cy="413.7" r="6.9"/>
	<circle class="st1" cx="821.3" cy="413.7" r="6.9"/>
	<circle class="st1" cx="845.9" cy="413.7" r="6.9"/>
	<circle class="st1" cx="870.6" cy="413.7" r="6.9"/>
	<circle class="st1" cx="895.2" cy="413.7" r="6.9"/>
	<circle class="st1" cx="919.8" cy="413.7" r="6.9"/>
	<circle class="st1" cx="944.4" cy="413.7" r="6.9"/>
	<circle class="st1" cx="969" cy="413.7" r="6.9"/>
	<circle class="st1" cx="993.6" cy="413.7" r="6.9"/>
	<circle class="st1" cx="1018.2" cy="413.7" r="6.9"/>
	<circle class="st1" cx="1042.8" cy="413.7" r="6.9"/>
	<circle class="st1" cx="1067.4" cy="413.7" r="6.9"/>
	<circle class="st1" cx="1092" cy="413.7" r="6.9"/>
	<circle class="st1" cx="1116.6" cy="413.7" r="6.9"/>
	<circle class="st1" cx="1141.2" cy="413.7" r="6.9"/>
	<circle class="st1" cx="1165.9" cy="413.7" r="6.9"/>
	<circle class="st1" cx="1190.5" cy="413.7" r="6.9"/>
	<circle class="st1" cx="1215.1" cy="413.7" r="6.9"/>
	<circle class="st1" cx="1239.7" cy="413.7" r="6.9"/>
	<circle class="st1" cx="1264.3" cy="413.7" r="6.9"/>
</g>
<g id="Layer_4">
	<path class="st2" d="M1022.5,139.7c0.3,1.4,0.9,1,1.5,2.1c0.6,1.1,0.7,1.8,0.6,2.4s2.1,2.6,1.9,3.1c-0.2,0.5-0.8,3.1,0,3.7
		c0.8,0.5,2,1.7,1.9,2.9c-0.1,1.2,0.5,4.3,0.7,5s-0.6,2.8,0,2.8c0.6-0.1,1.8,3.2,1.8,3.6c0.1,0.4,1.2,1.8,1.5,2
		c0.3,0.2,1.8,1.5,1.2,2.4c-0.6,0.9-7.5,11.1-17.1,10c-9.5-1.1-71.9-4.2-70.9-8.5c1-4.3,8.4-40.8,10.2-41.5
		c0.9-0.4,23.1-8.1,39.7-5.7C1011.7,126.3,1022.3,138.8,1022.5,139.7z"/>
	<path class="st2" d="M974.7,168.8c3.8,0.1,57.6,1.3,59,0.8c1.3-0.5,0.5,1.3,1.4,1.3s2.9-0.4,2.6,0.6c-0.3,1-2.5,2.7-1.8,3.3
		c0.7,0.6,2.7,3.9,3.1,4c0.5,0.2,1.2,0.4,1.3,1.4c0.1,1,0.3,22.3,0,24.4s-27.8,5.4-29.6,5c-1.8-0.4-41.9-2.3-42.2-3.7
		C968.1,204.7,971.9,168.7,974.7,168.8z"/>
	<path class="st2" d="M962.9,203c6.8,0.5,74.1,1.9,77.3,1.7c0.7,2.1,0.5,4.2,0.7,5.4c0.3,1.2,0.5,3.1,0.7,4c0.3,0.9,0.3,3.2,0,3.9
		c-0.3,0.7,0.4,2.4,1,3.2c0.6,0.8,0.7,19.9,0,21.9c-0.7,2-13.5,13.8-13.5,13.8L961,238.7L962.9,203z"/>
	<path class="st2" d="M866.2,48.4c1.4,0.4,6.6,1.6,7.5,1.7c-0.8,1.6-2.2,7.4-2.3,8.9c-0.1,1.4,0,2.6-0.2,3.3
		c-0.2,0.7,1.8,2.8,1.7,3.5s-0.4,2.4,0,3.2c0.4,0.8,2.8,2.4,2.6,3.2c-0.2,0.7,0,3,1.3,3.3c1.3,0.3,1.2,2.7,2,2.8
		c0.8,0.1,2.1,1.6,2.6,2s-0.9,2.5-1.2,3s-1.3,1.8-1.4,2.9c0,1.1,0.3,2.4,0,2.7c-0.3,0.3,0,1.8-0.7,2.2c-0.7,0.3,0,1.9,0.7,2
		s2.2-1,3.3-0.8c1.2,0.2,1.3,2.4,1.3,3.3c-0.1,0.9,0.8,2.6,1.3,2.7c0.6,0.2-0.5,2.5,0,3.1s2.5,1.6,2.6,2.4c0.1,0.8,0.1,3.5,0.8,3.8
		c0.7,0.2,1.5-1,2.5-0.8s2,1.2,2.6,0.8c0.5-0.4,2-1.2,2.6-0.7s2,0.7,2.8,0.8c0.7,0.1,2.7-2.5,3.1-1.6s0.8,2,2.1,2.2
		c0,2-4.8,27.5-4.7,29.5c-2.6-0.5-47.4-7.6-49.9-9.1c0-2.6,3.8-19.3,4.4-20.4s1.9-3.1,1.6-4s-1.7-1.4-2-2.3
		c-0.2-0.9,0.7-2.4,1.2-2.8c0.5-0.5,3.2-2.5,3.3-3.6c0.1-1.1,2.4-3.2,2.6-4.2s2-1.3,1.9-2.5c-0.1-1.1,0.1-1.8-1.1-2.9
		s-2.4-2.7-2-3.3"/>
	<path class="st2" d="M866.2,48.4c-3.1-0.6-37.8-8.7-40.6-9.3c-2.8-0.6-3.7-0.8-4,0s1.2,1.7,0.6,3.3c-0.6,1.7-1.2,2.3-1.3,3.3
		s-1,1.9-1.3,1.9c-0.3,0-2.1-1.2-2.6-1.1c-0.5,0.1-1.1-0.8-2.2-0.8s-3.3,0.3-3.1-0.7s-1.2-2.8-2-2.7c-0.8,0.2-1-1.2-1.9-1.3
		s-2.6,1.1-2.6,2.4c0,1.2,0.8,5,0.6,6.3c-0.2,1.3,0.3,4.8-0.1,5.8c-0.4,1-0.2,2.6,0,3.3c0.2,0.7,0.2,3.3-0.6,3.9
		c-0.8,0.5-1.4,3.1-0.7,3.6c0.7,0.5,4.3,0.9,4.4,1.4c0.1,0.5,1.9,2.3,2.3,1.9s2.4,1.4,2,2.5c-0.4,1-0.5,4-0.2,4.5
		c0.3,0.5,1.5,0.2,1.9,0.8c0.5,0.5,1.9,1.2,2.1,0.8c0.3-0.4,1.5-0.7,2.6-0.7c1.1,0,3,0.5,3.3,0.8c0.4,0.3,2.1,1.3,2.6,1.3
		s2.5-0.1,3.3,0c0.8,0.1,1.8,1.1,2.6,0.8s4.4-0.9,5.2-0.5c0.7,0.4,3.2,0,4.1-0.2c0.9-0.2,4.3-0.4,4.4,0.2s3.8,1.4,4.5,1.4
		c0.8,0,3.2,0.7,4,0.7s4.1,1.3,4.8,1c0.7-0.3,1.4-1.7,1.2-2.6c-0.2-0.9-0.6-1.7,0.1-2.4c0.7-0.7,0.7-3.3,0.9-4.2
		C860.8,73,865.8,50.3,866.2,48.4z"/>
	<path class="st2" d="M804.5,66.5c-1,0.4-0.2,2-0.3,2.7s-1.1,2-1.1,3.1c0.1,1.1-1.1,2.3-1.2,3.3c-0.1,1-1.9,3.9-1.9,4.8
		c0,0.9-1.4,2.1-1.4,3.4c-0.1,1.3-1.5,3.4-1.6,4.5c-0.1,1.1-0.2,3-1,3.9c-0.9,0.9-1.3,2.7-2.4,4.2c-1.1,1.4-3,2.7-2.8,3.5
		s-1.5,1.7-1.5,2.8c0,1.1,0.8,3.1,0,3.9c-0.8,0.8-1.7,3.8-1.3,4.9c0.3,1,0.3,2.4,1.3,2.6c1.2,0.2,57,14.7,59.8,14.6
		c0.1-1.3,3.6-19,4.4-20.4c0.8-1.4,2.1-3.3,1.6-4c-0.5-0.7-2-1.4-2-2.3c0.1-0.8,0.5-2.2,1.2-2.8c0.8-0.7,3-2.7,3.3-3.6
		c0.4-0.9,2.1-3.5,2.6-4.2c0.5-0.7,1.6-1.7,1.9-2.5c0.7-2-3.1-3.7-3.1-5.6c-1.3,0-4.2-0.9-5.3-1.1s-2.7-0.5-4-0.7
		c-1.3-0.2-3.7-1.1-4.5-1.4s-3.2-0.4-4.4-0.2s-3.2,0.3-4.1,0.2c-0.8-0.1-3.6,0.1-5.2,0.5s-1.2-0.2-2.6-0.8c-1.3-0.6-2.5,0.3-3.3,0
		c-0.8-0.3-1.5-0.9-2.6-1.3c-1.1-0.4-2.1-0.9-3.3-0.8c-1.2,0.1-1.7,0.6-2.6,0.7c-0.8,0-1.4-0.4-2.1-0.8c-0.7-0.4-1.1-0.7-1.9-0.8
		c-0.8-0.1,0.4-3.5,0.2-4.5s-1.2-2.9-2.8-2.7s-0.5-1.2-1.5-1.7C807.8,67.4,805.9,66.9,804.5,66.5z"/>
	<path class="st2" d="M824.8,122.8l-8.5,33.9l37.3,55.5c1.1-0.4,1-1.3,1.5-1.8c0.5-0.5-0.2-1.7,0-2.9c0.2-1.2,0.7-2.5,0.2-3.4
		c-0.6-0.9,0.1-2.7,0.3-3.1c0.2-0.4,1.5-1.9,2.2-1.1c0.6,0.8,1.6,2.7,2.6,2.2s2.1-1.8,2-2.7c-0.1-0.9,1.1-4.7,1.3-5.2l10.5-60.9
		C860.3,131.6,832.7,124.8,824.8,122.8z"/>
	<path class="st2" d="M874.2,133.5c2.3,0.4,22.5,3.8,24.9,4.1c-0.2,2.1-1.2,10.4-1.3,11.8c1.7,0.3,14.9,2.1,16.5,2.2
		c0,1.5-5.3,44.5-5.3,46.4c-2.6-0.3-42.2-6.3-44.7-7.1C864.9,186.8,873.6,135.8,874.2,133.5z"/>
	<path class="st2" d="M908.9,198c-0.1,1.8-8,63.6-8,66.3c-1.8,0-16.9-2.4-18.9-3.3c-2-0.9-32.6-17.1-35.1-19c-1.3-0.9-0.6-2.2,0-2.7
		c0.6-0.5,2.5,0.2,3.1-0.6c0.6-0.8,2-2,0.9-2.8c-1-0.8-1.9-3.8-0.9-4.8c0.9-1.1,4.1-4.2,3.5-5.8c-0.6-1.5,4.4-2.8,4.1-4.2
		c-0.4-1.3-2.6-1.9-2.6-3.2c0-1.3-0.6-4.4-1.5-5.8c0.9-0.8,1.3-1.1,1.5-1.8c0.1-0.7-0.1-2.3,0-2.9c0.1-0.7,0.8-2.5,0.2-3.4
		c-0.7-0.8-0.2-2.6,0.3-3.1c0.4-0.5,1.7-1.8,2.2-1.1c0.5,0.7,1.8,2.7,2.6,2.2c0.8-0.5,2.4-1.8,2-2.7s1.7-7.5,1.9-8.6
		C866.5,191.4,907,197.9,908.9,198z"/>
	<path class="st3" d="M824.8,122.8l-8.5,33.9l37.3,55.5c0.6,1.2,1.7,5,1.5,5.8c-0.2,0.8,2.6,2.9,2.6,3.2c-0.1,0.5-4.3,3.1-4.1,4.2
		c0.4,1.9-2.6,4.9-3.5,5.8c-0.9,0.8-0.1,4.2,0.9,4.8c0.7,0.5-0.5,2.5-0.9,2.8s-2.6,0-3.1,0.6c-0.5,0.6-3.1-0.4-3.7-0.4
		c-0.5-0.1-17.8-1.6-18.5-2.1c-0.7-0.5-0.8-2.5-0.7-3.3c0-0.8,0.8-2.5,0.3-3.5c-0.5-1-5.2-8.6-5.9-8.8s-2.3-0.4-2.5-1.1
		s0.2-2.8-0.4-3.1c-0.6-0.3-4.1-1.4-4.5-2c-0.5-0.6-2.3-3.1-2.9-3.4c-0.6-0.3-4.6-2.6-5.2-2.8s-2.7-0.1-3.1-0.5s-2-2.1-1.9-2.9
		c0.1-0.7,0.3-2.7,0.5-3.5c0.2-0.8,1.1-1.9,0.7-2.4s-1.9-1.2-1.9-1.9s0.1-3-0.6-3.8c-0.7-0.8-3.9-9.1-4.7-9.8
		c-0.7-0.7-0.8-3.9-0.4-4.4s2.4-1.6,2.3-2.4s-4.8-5-4.6-6.1c0.2-1,0.7-2.6,0.3-3.4s1-2.3,0.7-3c-0.3-0.6-3.2-3-3.2-3.9
		c0-0.9,0.9-2,0.7-2.6c-0.2-0.6-4.6-7.9-4.5-9c0.2-1.1,0.9-3.4,0.8-4.2s1.1-3.6,1.2-4.8c0.2-1.9-3.2-6.7-3.1-7.5
		c0.1-0.9,0.5-2.6,0.7-3.4s2.8-2.3,2.9-2.9c0.1-0.6,0.5-2.8,1.2-3.7c0.7-0.9,1.9-3.8,1.7-4.6c-0.3-0.9-0.5-3.9,0.4-4.4
		C791.6,114.2,824.1,122.7,824.8,122.8z"/>
	<path class="st2" d="M908.9,198c3.1,0.3,51.8,4.9,54,5c0,2.8-2.7,54.7-2.9,58c-3.2-0.1-32.8-2.7-35.1-2.7c0.6,1.3,0.8,2.8,0.7,3.4
		c-0.9,0-13.2-2.3-14.7-1.9c-1.4,0.4-0.3,3.7-1.1,4.5c-0.7,0.8-7,0.2-8.9,0C901.1,262.2,908.7,200.5,908.9,198z"/>
	<path class="st2" d="M914.2,151.6c4.4,1.2,56.4,5.4,60.9,5.5c0,3.6-2.3,43.9-1.9,46.5c-8.5,0-60.9-5-64.3-5.6
		C909,195.7,912.8,155.1,914.2,151.6z"/>
	<path class="st2" d="M961.1,109.3c0,1.6-3.3,44.1-2.9,46.6c-5.2,0-52.4-4.3-60.4-6.5c0.6-7.6,5.5-39.5,6-41.3
		c0.3-1.1,0.4-2.3,0.3-2.8c-0.2-0.5,0-2.1,1-2.1s3.4,0.5,4.6,0.7C916.6,105.4,959.7,109.5,961.1,109.3z"/>
	<path class="st2" d="M873.7,50.2c22.8,5.5,82.6,12.2,91.1,12.2c-0.7,7.2-3.4,41.8-3.7,47c-8.1-0.1-50.9-4.6-55.4-6
		c-1.5-0.4-1.8,1-1.7,2c0.1,1,0.4,2.3-0.3,2.8c-0.7,0.5-1.3-1-2.1-2.2c-0.8-1.2-2.1,1.8-3.1,1.6c-1-0.2-2.1-0.7-2.8-0.8
		c-0.7-0.1-1.6,0.8-2.6,0.7c-0.9-0.1-1.7-0.9-2.6-0.8s-2,1.9-2.5,0.8c-0.5-1.1-0.2-2.9-0.8-3.8c-0.6-0.8-2.5-1.5-2.6-2.4
		s0.8-2.3,0-3.1c-0.8-0.9-1.3-1.5-1.3-2.7s0.2-3.3-1.3-3.3c-1.5,0-2.7,1.2-3.3,0.8s-1.2-1.3-0.7-2c0.5-0.7,0.7-1.2,0.7-2.2
		c0.1-1-0.1-2,0-2.7c0.1-0.7,0.9-2.2,1.4-2.9c0.5-0.7,1.8-2.3,1.2-3s-1.8-0.9-2.6-2c-0.7-1-1.3-2.2-2-2.8c-0.7-0.5-1.7-2.4-1.3-3.3
		c0.4-1-2-2.5-2.6-3.2c-0.6-0.7,0.3-2.4,0-3.2s-1.8-2.7-1.7-3.5c0.1-0.8,0.2-2.7,0.2-3.3C871.5,58.4,873.1,51.4,873.7,50.2z"/>
	<path class="st2" d="M962.7,208.9c1.9,0.1,25.9,1.1,28.4,1.3c0,3.3-0.7,20.4-0.7,22.5c1.5-1.3,2.7,2.4,3.3,2.3
		c0.6-0.1,2.6-0.8,3.3,0s1,2,1.8,2s2.2,1.7,3.3,0.8c1.2-0.8,1.3,0.5,2.6,0.2s2.7-1.4,3.3-0.2c0.6,1.2,0.2,3.5,1.8,3.3
		c1.7-0.2,3.3-2.1,4.1-1.4c0.8,0.8,2.9,2,3.3,1.4c0.4-0.6,1.6,0.3,2.6-1c1-1.3,3,1.3,4.1,1.2c1.1-0.2,1,2.1,1.8,1.8
		c0.8-0.4,1.4-1.7,2.6-1.9c1.1-0.2,2.3-0.5,3.3-0.9c1-0.4,0.3,0.7,1.8,0.9s2.4-2.1,3.3-1.1c0.9,1,3.5,3.4,4.8,3.1s3.8,1.6,5.2,0.8
		c0,2.7,0.6,18,0.7,19c0.1,1,2.5,2.2,2.2,2.9s1.3,3.2,1.7,3.6c0.4,0.4,1.6,2.1,1.3,2.8s0,6-1.1,6.5c-1.2,0.5-0.2,2.9,0,3.5
		s0.4,2.8-0.1,3.1c-0.5,0.3-1.5,2.1-1.3,2.8c0.2,0.8,1.1,1.6,0.4,2.1c-0.7,0.5-8,2.5-8.5,3.3c-0.4,0.8-3.9,3.8-4.5,4.5
		c-0.6,0.8-9.9,6.1-11.1,6.4c-1.9,0.5-7.9,6.5-9.5,8c-2.3,2.2-1.1,16.8,0.3,18.3c1.5,1.5-0.7,3.9-1.9,3.5c-1.2-0.4-3.9-2.1-4.8-2.3
		c-0.9-0.2-4.4,0.1-4.9-0.3c-0.5-0.4-4.3-1.7-4.9-2c-0.6-0.3-2.4-1.4-3.8-1.9s-2.2-4.8-2.6-5.7c-0.4-0.9-1.9-2.5-1.7-3.2
		c0.2-0.6,0.8-5.5-0.3-5.8s-3.6-2.5-3.9-3.3c-0.4-0.8-2.5-3-3.3-3.6c-0.8-0.6-3.5-10.2-4.4-10.7c-0.9-0.5-5.7-6.9-6.6-7
		c-0.9-0.1-9.7-1.3-10.8-0.6s-4.3,7.2-5,7.5c-0.6,0.3-3.4,0.6-5-0.4c-1.6-1-7.8-5.3-8.9-5.9c-1.1-0.6-3.3-4.8-3.3-5.8
		c0-1-0.8-5.2-1.5-6.2c-0.7-1-4.2-4.7-5.5-5.5c-1.2-0.8-3.6-5.2-4.4-5.4s-3-4.3-4.2-4.4c0-0.6,0-2.7-0.7-3.4
		c1.9,0.1,34,2.7,35.1,2.7C960.3,255.2,962.7,210.5,962.7,208.9z"/>
	<path class="st2" d="M964.8,62.3c2.6,0.3,48.9,2.7,52.4,2.5c0,1.5,0.6,7.4,0.4,8.6c-0.1,1.2,0.3,3.7,0.9,4.3s1.4,2.7,1.2,3.5
		s-0.4,4.4,0,5.3c0.4,0.9,0.9,3.9,0.7,4.7c-0.2,0.8,0,2.9,0.5,3.5c0.5,0.6,1.6,3,1.4,3.7c-0.2,0.7,0.4,1.8-0.7,2.2
		c-1.2,0-54.6-1-59.9-1.9C962.4,92.1,964.6,64.1,964.8,62.3z"/>
	<path class="st2" d="M1021.8,100.6c0.4,0.8,0,2.3-0.4,2.7c-0.4,0.3-1.3,1.4-0.7,2.2c0.5,0.8,2.2,1.5,2.6,2.7
		c0.4,1.2,0.1,19.1,0,20.9c-0.7,0.5-1.2,1.4-0.7,2.1s1.1,2.2,0.9,2.8c-0.2,0.6-0.9,2-0.9,2.9c-0.1,0.9,0.3,2.2,0,2.9
		c-0.9-0.8-3.6-2.1-4.4-2.4c-0.8-0.2-0.8-1.4-1.5-1.3c-0.7,0.1-3.8,0-4.4,0.2c-0.6,0.2-1.7,1.3-2.1,0.9c-0.4-0.4-2.6-2.3-3.3-2.5
		c-0.7-0.2-44-1.6-47.3-2.1c0.4-5.2,2.2-31.9,2.4-33.9C978.5,99.6,1005.5,100.6,1021.8,100.6z"/>
</g>
<g id="Layer_5">
	<path class="st4" d="M747.7,45.2l-21.1,84.5l92.8,138.3c1.4,2.9,4.2,12.3,3.7,14.4s6.5,7.3,6.4,7.9c-0.2,1.3-10.6,7.8-10.1,10.4
		c0.9,4.7-6.5,12.3-8.7,14.3c-2.3,2.1-0.1,10.3,2.3,12.1c1.8,1.3-1.2,6.2-2.4,7s-6.5-0.1-7.8,1.4c-1.2,1.5-7.8-0.9-9.1-1.1
		c-1.3-0.2-44.3-4-46-5.2s-1.9-6.3-1.9-8.3c0.1-2,2-6.2,0.8-8.7c-1.1-2.5-13.1-21.3-14.8-21.9c-1.7-0.6-5.8-1.1-6.2-2.8
		c-0.3-1.7,0.5-6.9-1-7.6c-1.5-0.7-10.1-3.5-11.3-5c-1.2-1.5-5.6-7.6-7.2-8.5c-1.6-0.8-11.4-6.5-13.1-7c-1.7-0.5-6.7-0.3-7.8-1.2
		c-1.1-0.8-4.9-5.3-4.8-7.1c0.1-1.8,0.8-6.7,1.2-8.6c0.4-1.9,2.8-4.7,1.7-5.9c-1.1-1.3-4.8-3-4.8-4.8s0.2-7.5-1.5-9.6
		c-1.7-2-9.8-22.6-11.6-24.4c-1.8-1.8-2-9.8-1.1-10.8c1-1.1,6.1-4.1,5.6-6.1s-11.9-12.5-11.5-15.1c0.4-2.5,1.7-6.5,0.7-8.4
		c-0.9-1.9,2.5-5.8,1.8-7.4c-0.6-1.6-8.1-7.5-8.1-9.7c0-2.1,2.2-5,1.7-6.6c-0.5-1.6-11.6-19.7-11.1-22.4c0.4-2.8,2.2-8.4,1.9-10.5
		c-0.3-2.1,2.7-9,3-11.9c0.4-4.7-8-16.6-7.6-18.7s1.2-6.5,1.8-8.4c0.6-1.9,7-5.8,7.2-7.3s1.2-6.9,3-9.2c1.9-2.3,4.9-9.4,4.1-11.5
		c-0.7-2.1-1.3-9.7,1-11C664.9,23.8,745.8,44.7,747.7,45.2z"/>
</g>
</svg>
