<svg xmlns="http://www.w3.org/2000/svg" xmlns:xlink="http://www.w3.org/1999/xlink" viewBox="0 0 150 150"><defs><linearGradient id="a839df9c-f1d6-4c02-bf2f-1d1da3d7320e" x1="27.34" y1="15.85" x2="39.14" y2="87.37" gradientUnits="userSpaceOnUse"><stop offset="0" stop-color="#fff"/><stop offset="1"/></linearGradient><linearGradient id="0abd8b9d-4b2d-4e40-9996-670444a215fb" x1="22.08" y1="16.77" x2="33.86" y2="88.22" xlink:href="#a839df9c-f1d6-4c02-bf2f-1d1da3d7320e"/><linearGradient id="7a96b422-6294-4fce-8d98-fa56b8b7692b" x1="419.79" y1="15.85" x2="431.58" y2="87.37" gradientTransform="matrix(-1, 0, 0, 1, 543.01, 0)" xlink:href="#a839df9c-f1d6-4c02-bf2f-1d1da3d7320e"/><linearGradient id="fb5524a2-fa8a-4407-827a-254ed271b12b" x1="414.52" y1="16.74" x2="426.31" y2="88.23" gradientTransform="matrix(-1, 0, 0, 1, 543.01, 0)" xlink:href="#a839df9c-f1d6-4c02-bf2f-1d1da3d7320e"/><linearGradient id="814fbb94-0472-4dca-9429-d921116b485a" x1="3.92" y1="95.47" x2="37.88" y2="95.47" gradientUnits="userSpaceOnUse"><stop offset="0.15" stop-color="#fec00f"/><stop offset="0.29" stop-color="#f5b211"/><stop offset="0.76" stop-color="#da8916"/><stop offset="1" stop-color="#cf7918"/></linearGradient><linearGradient id="ef2af18d-2336-4951-b76b-e73e9055ccf6" x1="111.26" y1="95.47" x2="145.22" y2="95.47" xlink:href="#814fbb94-0472-4dca-9429-d921116b485a"/><linearGradient id="a6de2624-fe73-4459-9678-914afdb8c083" x1="40.93" y1="56.53" x2="97.4" y2="56.53" gradientUnits="userSpaceOnUse"><stop offset="0" stop-color="#fff"/><stop offset="0.1" stop-color="#efefef"/><stop offset="0.29" stop-color="#c5c5c5"/><stop offset="0.55" stop-color="#818181"/><stop offset="0.88" stop-color="#252525"/><stop offset="1"/></linearGradient><linearGradient id="ff1aa01d-e40b-4863-a773-cbb4b06958f2" x1="35.52" y1="56.53" x2="114.45" y2="56.53" gradientUnits="userSpaceOnUse"><stop offset="0" stop-color="#fff"/><stop offset="0" stop-color="#fdfdfd"/><stop offset="0.05" stop-color="#cdcdcd"/><stop offset="0.1" stop-color="#a3a3a3"/><stop offset="0.15" stop-color="#7c7c7c"/><stop offset="0.21" stop-color="#5a5a5a"/><stop offset="0.27" stop-color="#3e3e3e"/><stop offset="0.35" stop-color="#272727"/><stop offset="0.43" stop-color="#151515"/><stop offset="0.53" stop-color="#090909"/><stop offset="0.67" stop-color="#020202"/><stop offset="1"/></linearGradient><linearGradient id="8e8dbf30-6299-4106-8cec-0b031558be0f" x1="74.99" y1="52.7" x2="74.99" y2="5.04" xlink:href="#a6de2624-fe73-4459-9678-914afdb8c083"/><linearGradient id="5df892d8-2456-489f-a2bf-986387b4d83b" x1="74.87" y1="42.96" x2="74.87" y2="6.4" xlink:href="#a6de2624-fe73-4459-9678-914afdb8c083"/><linearGradient id="ca1b965a-d4c1-4d49-946c-cf8b95ae06d9" x1="36.49" y1="9.4" x2="74.51" y2="9.4" gradientUnits="userSpaceOnUse"><stop offset="0" stop-color="#fff687"/><stop offset="0.46" stop-color="#feda49"/><stop offset="0.82" stop-color="#fec71f"/><stop offset="1" stop-color="#fec00f"/></linearGradient><linearGradient id="fde443c7-15b5-4977-90eb-da67635162b8" x1="53.56" y1="48.27" x2="53.56" y2="100.77" xlink:href="#ca1b965a-d4c1-4d49-946c-cf8b95ae06d9"/><linearGradient id="720893b4-d977-48aa-a4bc-5dcbfdb55d1f" x1="74.62" y1="74.86" x2="104.92" y2="74.86" gradientUnits="userSpaceOnUse"><stop offset="0" stop-color="#fff687"/><stop offset="0.06" stop-color="#ffe868"/><stop offset="0.14" stop-color="#ffdc4d"/><stop offset="0.23" stop-color="#fed236"/><stop offset="0.32" stop-color="#feca24"/><stop offset="0.44" stop-color="#fec418"/><stop offset="0.6" stop-color="#fec111"/><stop offset="1" stop-color="#fec00f"/></linearGradient><linearGradient id="eba5a8fc-e680-4950-bfe1-ee336264eb9d" x1="74.62" y1="39.4" x2="104.92" y2="39.4" xlink:href="#720893b4-d977-48aa-a4bc-5dcbfdb55d1f"/><linearGradient id="6f1bf18f-40d8-4eb7-bb68-547b3f6586a0" x1="31.62" y1="97.95" x2="117.56" y2="97.95" gradientUnits="userSpaceOnUse"><stop offset="0" stop-color="#fff687"/><stop offset="0.09" stop-color="#fff797"/><stop offset="0.27" stop-color="#fffac1"/><stop offset="0.5" stop-color="#fff"/><stop offset="1" stop-color="#fff687"/></linearGradient></defs><title>mc-university-logo</title><g style="isolation:isolate"><g id="218af656-b86b-47a1-8828-63d444bfed95" data-name="Layer 1"><path d="M52.06,93.83S48.8,91.72,48,80.54c0,0,6.72,1.79,8.82,10.5S52.06,93.83,52.06,93.83Z" fill="#dcddde"/><path d="M51.31,92.37S40.52,86.71,31.1,71.22s-4.34-40.54,2.68-61.17L33,10.2S25.49,30.75,24.57,49a48.2,48.2,0,0,0,26.08,45C67.8,102.88,51.31,92.37,51.31,92.37Z" fill="#dcddde"/><path d="M40.22,84.22c-.09-.46-1.47-5.32-.49-9.49a37.61,37.61,0,0,0,3.89,3.75c1.68,1.28,3.81,9.35-.22,9.14" fill="#dcddde"/><path d="M44.52,89.32s-5.39.2-7.62,3.65a6.62,6.62,0,0,1,2.84,1.55c1,1.09,6.8,2.25,8.4-2Z" fill="#dcddde"/><path d="M38.59,84s-3.76.38-6.38.87-5-2.9-7-5.08c0,0,5-3.16,9.42,0S38.59,84,38.59,84Z" fill="#dcddde"/><path d="M33.19,75.62S35.7,74.52,35,70.81a5.8,5.8,0,0,0-3.57-4.61s.43-.24-.74,2.05A5.59,5.59,0,0,0,30,72.07Z" fill="#dcddde"/><path d="M29,70s-1.74-3.35-8.12-2.48a2.62,2.62,0,0,1,1.33,2c.29,1.54.25,6.5,8.86,4.74Z" fill="#dcddde"/><path d="M27.52,64.86A4.6,4.6,0,0,0,31,59.27c-.86-4.63-2.62-6.38-2.62-6.38a5.11,5.11,0,0,1-1.39,2.81c-1.22,1.18-2,2.13-2,2.13Z" fill="#dcddde"/><path d="M18.61,52.15s5.8,1.16,7.16,5.85c0,0,1.77,3.5-1,3.06s-5-1.3-5.76-4.36A11,11,0,0,1,18.61,52.15Z" fill="#dcddde"/><path d="M25.66,51s5.75-.83,2.93-7.41a11,11,0,0,1-2.46,1.81c-.9.33-1,1.54-1,1.54Z" fill="#dcddde"/><path d="M24.83,48.68a6.75,6.75,0,0,0-1.68-2.16c-1.47-1.48-4.35-2.78-1.66-7.2a11.1,11.1,0,0,1,3.89,5.9Z" fill="#dcddde"/><path d="M26.11,42.21s6-.4,5-7.07c0,0,.17-.83-1-.06s-2.85,2.29-3.77,2.46Z" fill="#dcddde"/><path d="M26,36.33s2.43-6.28-2.2-9.25c0,0,.58,1.41-.15,2.18S22.24,35.59,26,36.33Z" fill="#dcddde"/><path d="M27.71,27.63a7.15,7.15,0,0,1,3.5-1.77,10.32,10.32,0,0,0,.1,1.42c.12,1.09-.18,2-1.75,3A10.9,10.9,0,0,0,27,32.71Z" fill="#dcddde"/><path d="M27.93,26.23s-3-1.67-2.42-7.45c0,0,1.77.07,2,1.3a6.12,6.12,0,0,0,1.76,3C29.49,23.07,27.93,26.23,27.93,26.23Z" fill="#dcddde"/><path d="M30.1,21.2a4.2,4.2,0,0,0,3.47-4.08s-.19.27-1.3.32a5.91,5.91,0,0,0-2,.45Z" fill="#dcddde"/><path d="M31.47,16.07s-.24-2.59-1.32-3.67c0,0-.6-.21-.69,1s.45,3.27,1.16,3.22A.89.89,0,0,0,31.47,16.07Z" fill="#dcddde"/><path d="M32.47,12.85a14,14,0,0,1,2.54-1A2.06,2.06,0,0,1,34,14a2,2,0,0,1-2.14.08Z" fill="#dcddde"/><path d="M32.35,12.24s-2-1-.92-3.66a1.19,1.19,0,0,1,1,.92,6.79,6.79,0,0,0,.43,1.44Z" fill="#dcddde"/><path d="M50.82,93.83s-3.27-2.11-4.07-13.29c0,0,6.72,1.79,8.82,10.5S50.82,93.83,50.82,93.83Z" fill="#007949"/><path d="M50.07,92.37S39.28,86.71,29.86,71.22s-4.34-40.54,2.68-61.17l-.77.14S24.25,30.75,23.33,49a48.2,48.2,0,0,0,26.08,45C66.55,102.88,50.07,92.37,50.07,92.37Z" fill="#007949"/><path d="M39,84.22c-.09-.46-1.47-5.32-.49-9.49a37.6,37.6,0,0,0,3.89,3.75c1.68,1.28,3.81,9.35-.22,9.14" fill="#007949"/><path d="M43.28,89.32s-5.39.2-7.62,3.65a6.62,6.62,0,0,1,2.84,1.55c1,1.09,6.8,2.25,8.4-2Z" fill="#007949"/><path d="M37.35,84s-3.76.38-6.38.87-5-2.9-7-5.08c0,0,5-3.16,9.42,0S37.35,84,37.35,84Z" fill="#007949"/><path d="M32,75.62s2.51-1.11,1.82-4.81a5.8,5.8,0,0,0-3.57-4.61s.43-.24-.74,2.05a5.59,5.59,0,0,0-.73,3.81Z" fill="#007949"/><path d="M27.72,70S26,66.67,19.59,67.54a2.62,2.62,0,0,1,1.33,2c.29,1.54.25,6.5,8.86,4.74Z" fill="#007949"/><path d="M26.28,64.86a4.6,4.6,0,0,0,3.43-5.59c-.86-4.63-2.62-6.38-2.62-6.38a5.11,5.11,0,0,1-1.39,2.81c-1.22,1.18-2,2.13-2,2.13Z" fill="#007949"/><path d="M17.37,52.15s5.8,1.16,7.16,5.85c0,0,1.77,3.5-1,3.06s-5-1.3-5.76-4.36A11,11,0,0,1,17.37,52.15Z" fill="#007949"/><path d="M24.42,51s5.75-.83,2.93-7.41A11,11,0,0,1,24.9,45.4c-.9.33-1,1.54-1,1.54Z" fill="#007949"/><path d="M23.59,48.68a6.75,6.75,0,0,0-1.68-2.16c-1.47-1.48-4.35-2.78-1.66-7.2a11.1,11.1,0,0,1,3.89,5.9Z" fill="#007949"/><path d="M24.87,42.21s6-.4,5-7.07c0,0,.17-.83-1-.06S26,37.37,25.11,37.54Z" fill="#007949"/><path d="M24.73,36.33s2.43-6.28-2.2-9.25c0,0,.58,1.41-.15,2.18S21,35.59,24.73,36.33Z" fill="#007949"/><path d="M26.47,27.63A7.15,7.15,0,0,1,30,25.86a10.32,10.32,0,0,0,.1,1.42c.12,1.09-.18,2-1.75,3a10.9,10.9,0,0,0-2.59,2.4Z" fill="#007949"/><path d="M26.68,26.23s-3-1.67-2.42-7.45c0,0,1.77.07,2,1.3a6.12,6.12,0,0,0,1.76,3C28.25,23.07,26.68,26.23,26.68,26.23Z" fill="#007949"/><path d="M28.86,21.2a4.2,4.2,0,0,0,3.47-4.08s-.19.27-1.3.32a5.91,5.91,0,0,0-2,.45Z" fill="#007949"/><path d="M30.23,16.07s-.24-2.59-1.32-3.67c0,0-.6-.21-.69,1s.45,3.27,1.16,3.22A.89.89,0,0,0,30.23,16.07Z" fill="#007949"/><path d="M31.22,12.85a14,14,0,0,1,2.54-1,2.06,2.06,0,0,1-1,2.11,2,2,0,0,1-2.14.08Z" fill="#007949"/><path d="M31.11,12.24s-2-1-.92-3.66a1.19,1.19,0,0,1,1,.92,6.79,6.79,0,0,0,.43,1.44Z" fill="#007949"/><g style="mix-blend-mode:multiply"><path d="M55.08,95.71c.83-.3,1.25-1.53.49-4.68-2.1-8.71-8.82-10.5-8.82-10.5.45,6.24,1.66,9.65,2.64,11.45a44.73,44.73,0,0,1-6.13-4.58c2.46-1.26.61-7.78-.89-8.93a37.61,37.61,0,0,1-3.89-3.75,20.13,20.13,0,0,0,.2,8.23,70.62,70.62,0,0,1-6.2-7.69c.69-.57,1.75-1.88,1.28-4.45a5.84,5.84,0,0,0-3.5-4.58c0,.1,0,.5-.8,2a8,8,0,0,0-.54,1.32,32.47,32.47,0,0,1-2.06-4.91,4.49,4.49,0,0,0,2.84-5.39c-.86-4.63-2.62-6.38-2.62-6.38a5.11,5.11,0,0,1-1.39,2.81l-.61.61c-.21-1.75-.32-3.55-.36-5.39,1.14-.28,5.06-1.68,2.63-7.35A11,11,0,0,1,24.9,45.4l-.08,0q.09-1.61.24-3.24c1-.14,5.68-1.1,4.79-7.05,0,0,.17-.83-1-.06a35.51,35.51,0,0,1-3.24,2.26q.41-2.8,1-5.63a10.38,10.38,0,0,1,1.71-1.4c1.57-1,1.87-1.94,1.75-3a10.32,10.32,0,0,1-.1-1.42,7.09,7.09,0,0,0-2.27.86q.66-2.8,1.43-5.58a4.12,4.12,0,0,0,3.22-4s-.19.27-1.3.32a5.58,5.58,0,0,0-.89.11q.48-1.63,1-3.23a2.28,2.28,0,0,0,1.58-.3,2.06,2.06,0,0,0,1-2.11,11.27,11.27,0,0,0-2.09.74q.43-1.31.86-2.59l-.77.14-.19.53a7.24,7.24,0,0,1-.34-1.23,1.19,1.19,0,0,0-1-.92c-1,2.46.61,3.49.88,3.64-.27.79-.6,1.81-1,3a5.81,5.81,0,0,0-1.19-2.8s-.6-.21-.69,1,.45,3.27,1.16,3.22a1.24,1.24,0,0,0,.3-.06l-.37,1.22-.26.1-.05.95c-.37,1.28-.77,2.67-1.16,4.15a7.19,7.19,0,0,1-1.57-2.91c-.23-1.23-2-1.3-2-1.3-.6,5.78,2.42,7.45,2.42,7.45s.32-.65.65-1.36q-.32,1.24-.63,2.54l-.24.22-.31,2.17c-.3,1.33-.59,2.69-.86,4.08.24-2.09,0-5-2.76-6.79,0,0,.58,1.41-.15,2.18S21,35.59,24.73,36.33c0,0,.12-.3.25-.81-.51,2.76-.94,5.59-1.25,8.42a11.21,11.21,0,0,0-3.48-4.62c-2.69,4.41.18,5.71,1.66,7.2a10.57,10.57,0,0,1,1.45,1.73q0,.36,0,.72a46.63,46.63,0,0,0,.17,6.93,11.07,11.07,0,0,0-6.12-3.75,11,11,0,0,0,.37,4.56c.73,3.06,3,3.92,5.76,4.36a2.25,2.25,0,0,0,.8,0,47.69,47.69,0,0,0,2.37,7.8C25.54,68,23.39,67,19.59,67.54a2.62,2.62,0,0,1,1.33,2c.28,1.51.26,6.3,8.36,4.83a48.38,48.38,0,0,0,3.07,4.85c-4.14-2.09-8.4.61-8.4.61,2,2.18,4.39,5.57,7,5.08,1.82-.34,4.19-.63,5.47-.77a48.7,48.7,0,0,0,5.88,5.28c-1.65.23-5,1-6.66,3.55a6.62,6.62,0,0,1,2.84,1.55c1,1.09,6.77,2.24,8.39-2,.82.49,1.66,1,2.52,1.42C59.35,99.12,58,97.77,55.08,95.71Z" fill="url(#a839df9c-f1d6-4c02-bf2f-1d1da3d7320e)"/><path d="M30.2,66.21l.07,0A0,0,0,0,0,30.2,66.21Z" fill="url(#0abd8b9d-4b2d-4e40-9996-670444a215fb)"/></g><path d="M98.51,93.83s3.27-2.11,4.07-13.29c0,0-6.72,1.79-8.82,10.5S98.51,93.83,98.51,93.83Z" fill="#dcddde"/><path d="M99.26,92.37S110,86.71,119.47,71.22s4.34-40.54-2.68-61.17l.77.14S125.08,30.75,126,49a48.2,48.2,0,0,1-26.08,45C82.78,102.88,99.26,92.37,99.26,92.37Z" fill="#dcddde"/><path d="M110.35,84.22c.09-.46,1.47-5.32.49-9.49a37.62,37.62,0,0,1-3.89,3.75c-1.68,1.28-3.81,9.35.22,9.14" fill="#dcddde"/><path d="M106.05,89.32s5.39.2,7.62,3.65a6.62,6.62,0,0,0-2.84,1.55c-1,1.09-6.8,2.25-8.4-2Z" fill="#dcddde"/><path d="M112,84s3.76.38,6.38.87,5-2.9,7-5.08c0,0-5-3.16-9.42,0S112,84,112,84Z" fill="#dcddde"/><path d="M117.38,75.62s-2.51-1.11-1.82-4.81a5.8,5.8,0,0,1,3.57-4.61s-.43-.24.74,2.05a5.59,5.59,0,0,1,.73,3.81Z" fill="#dcddde"/><path d="M121.61,70s1.74-3.35,8.12-2.48a2.62,2.62,0,0,0-1.33,2c-.29,1.54-.25,6.5-8.86,4.74Z" fill="#dcddde"/><path d="M123,64.86a4.6,4.6,0,0,1-3.43-5.59c.86-4.63,2.62-6.38,2.62-6.38a5.1,5.1,0,0,0,1.39,2.81c1.22,1.18,2,2.13,2,2.13Z" fill="#dcddde"/><path d="M132,52.15s-5.8,1.16-7.15,5.85c0,0-1.77,3.5,1,3.06s5-1.3,5.76-4.36A10.94,10.94,0,0,0,132,52.15Z" fill="#dcddde"/><path d="M124.91,51s-5.75-.83-2.93-7.41a11,11,0,0,0,2.46,1.81c.9.33,1,1.54,1,1.54Z" fill="#dcddde"/><path d="M125.74,48.68a6.74,6.74,0,0,1,1.68-2.16c1.47-1.48,4.35-2.78,1.66-7.2a11.1,11.1,0,0,0-3.89,5.9Z" fill="#dcddde"/><path d="M124.46,42.21s-6-.4-5-7.07c0,0-.16-.83,1-.06s2.85,2.29,3.77,2.46Z" fill="#dcddde"/><path d="M124.6,36.33s-2.43-6.28,2.2-9.25c0,0-.58,1.41.15,2.18S128.33,35.59,124.6,36.33Z" fill="#dcddde"/><path d="M122.86,27.63a7.15,7.15,0,0,0-3.5-1.77,10.24,10.24,0,0,1-.1,1.42c-.12,1.09.18,2,1.75,3a10.9,10.9,0,0,1,2.59,2.4Z" fill="#dcddde"/><path d="M122.65,26.23s3-1.67,2.42-7.45c0,0-1.77.07-2,1.3a6.12,6.12,0,0,1-1.76,3C121.08,23.07,122.65,26.23,122.65,26.23Z" fill="#dcddde"/><path d="M120.47,21.2A4.2,4.2,0,0,1,117,17.12s.19.27,1.3.32a5.91,5.91,0,0,1,2,.45Z" fill="#dcddde"/><path d="M119.1,16.07s.24-2.59,1.32-3.67c0,0,.6-.21.69,1s-.45,3.27-1.16,3.22A.89.89,0,0,1,119.1,16.07Z" fill="#dcddde"/><path d="M118.11,12.85a14,14,0,0,0-2.54-1,2.06,2.06,0,0,0,1,2.11,2,2,0,0,0,2.14.08Z" fill="#dcddde"/><path d="M118.22,12.24s2-1,.92-3.66a1.19,1.19,0,0,0-1,.92,6.79,6.79,0,0,1-.43,1.44Z" fill="#dcddde"/><path d="M99.75,93.83s3.26-2.11,4.07-13.29c0,0-6.72,1.79-8.82,10.5S99.75,93.83,99.75,93.83Z" fill="#007949"/><path d="M100.5,92.37s10.79-5.66,20.22-21.15,4.34-40.54-2.68-61.17l.77.14s7.52,20.56,8.44,38.77a48.2,48.2,0,0,1-26.08,45C84,102.88,100.5,92.37,100.5,92.37Z" fill="#007949"/><path d="M111.6,84.22c.09-.46,1.47-5.32.49-9.49a37.6,37.6,0,0,1-3.89,3.75c-1.68,1.28-3.81,9.35.22,9.14" fill="#007949"/><path d="M107.29,89.32s5.39.2,7.62,3.65a6.62,6.62,0,0,0-2.84,1.55c-1,1.09-6.8,2.25-8.4-2Z" fill="#007949"/><path d="M113.22,84s3.76.38,6.39.87,5-2.9,7-5.08c0,0-5-3.16-9.42,0S113.22,84,113.22,84Z" fill="#007949"/><path d="M118.62,75.62s-2.51-1.11-1.82-4.81a5.8,5.8,0,0,1,3.57-4.61s-.43-.24.74,2.05a5.59,5.59,0,0,1,.73,3.81Z" fill="#007949"/><path d="M122.85,70s1.74-3.35,8.12-2.48a2.62,2.62,0,0,0-1.33,2c-.29,1.54-.25,6.5-8.86,4.74Z" fill="#007949"/><path d="M124.29,64.86a4.6,4.6,0,0,1-3.43-5.59c.86-4.63,2.62-6.38,2.62-6.38a5.11,5.11,0,0,0,1.39,2.81c1.22,1.18,2,2.13,2,2.13Z" fill="#007949"/><path d="M133.2,52.15S127.4,53.31,126,58c0,0-1.77,3.5,1,3.06s5-1.3,5.76-4.36A11,11,0,0,0,133.2,52.15Z" fill="#007949"/><path d="M126.15,51s-5.75-.83-2.93-7.41a11,11,0,0,0,2.46,1.81c.9.33,1,1.54,1,1.54Z" fill="#007949"/><path d="M127,48.68a6.75,6.75,0,0,1,1.68-2.16c1.47-1.48,4.35-2.78,1.66-7.2a11.1,11.1,0,0,0-3.89,5.9Z" fill="#007949"/><path d="M125.71,42.21s-6-.4-5-7.07c0,0-.17-.83,1-.06s2.85,2.29,3.77,2.46Z" fill="#007949"/><path d="M125.84,36.33s-2.43-6.28,2.2-9.25c0,0-.58,1.41.15,2.18S129.57,35.59,125.84,36.33Z" fill="#007949"/><path d="M124.11,27.63a7.15,7.15,0,0,0-3.5-1.77,10.41,10.41,0,0,1-.1,1.42c-.12,1.09.18,2,1.75,3a10.9,10.9,0,0,1,2.59,2.4Z" fill="#007949"/><path d="M123.89,26.23s3-1.67,2.42-7.45c0,0-1.77.07-2,1.3a6.12,6.12,0,0,1-1.76,3C122.32,23.07,123.89,26.23,123.89,26.23Z" fill="#007949"/><path d="M121.71,21.2a4.2,4.2,0,0,1-3.47-4.08s.19.27,1.3.32a5.91,5.91,0,0,1,2,.45Z" fill="#007949"/><path d="M120.35,16.07s.24-2.59,1.32-3.67c0,0,.6-.21.69,1s-.45,3.27-1.16,3.22A.89.89,0,0,1,120.35,16.07Z" fill="#007949"/><path d="M119.35,12.85a14,14,0,0,0-2.54-1,2.06,2.06,0,0,0,1,2.11,2,2,0,0,0,2.14.08Z" fill="#007949"/><path d="M119.46,12.24s2-1,.92-3.66a1.19,1.19,0,0,0-1,.92,6.79,6.79,0,0,1-.43,1.44Z" fill="#007949"/><g style="mix-blend-mode:multiply"><path d="M95.49,95.71c-.83-.3-1.25-1.53-.49-4.68,2.1-8.71,8.82-10.5,8.82-10.5-.45,6.24-1.66,9.65-2.64,11.45a44.75,44.75,0,0,0,6.13-4.58c-2.46-1.26-.61-7.78.89-8.93a37.58,37.58,0,0,0,3.89-3.75,20.12,20.12,0,0,1-.2,8.23,70.62,70.62,0,0,0,6.2-7.69c-.69-.57-1.75-1.88-1.28-4.45a5.84,5.84,0,0,1,3.5-4.58c0,.1,0,.5.8,2a8,8,0,0,1,.54,1.32,32.47,32.47,0,0,0,2.06-4.91,4.49,4.49,0,0,1-2.84-5.39c.86-4.63,2.62-6.38,2.62-6.38a5.11,5.11,0,0,0,1.39,2.81l.61.61c.21-1.75.32-3.55.36-5.39-1.14-.28-5.06-1.68-2.63-7.35a11,11,0,0,0,2.46,1.81l.08,0q-.09-1.61-.24-3.24c-1-.14-5.68-1.1-4.79-7.05,0,0-.17-.83,1-.06a35.49,35.49,0,0,0,3.24,2.26q-.41-2.8-1-5.63a10.37,10.37,0,0,0-1.71-1.4c-1.57-1-1.87-1.94-1.75-3a10.32,10.32,0,0,0,.1-1.42,7.08,7.08,0,0,1,2.27.86q-.66-2.8-1.43-5.58a4.12,4.12,0,0,1-3.22-4s.19.27,1.3.32a5.58,5.58,0,0,1,.89.11q-.48-1.63-1-3.23a2.28,2.28,0,0,1-1.58-.3,2.06,2.06,0,0,1-1-2.11,11.26,11.26,0,0,1,2.09.74q-.43-1.31-.86-2.59l.77.14.19.53a7.23,7.23,0,0,0,.34-1.23,1.19,1.19,0,0,1,1-.92c1,2.46-.61,3.49-.88,3.64.27.79.6,1.81,1,3a5.81,5.81,0,0,1,1.19-2.8s.6-.21.69,1-.45,3.27-1.16,3.22a1.23,1.23,0,0,1-.3-.06l.37,1.22.26.1.05.95c.37,1.28.77,2.67,1.16,4.15a7.18,7.18,0,0,0,1.57-2.91c.23-1.23,2-1.3,2-1.3.6,5.78-2.42,7.45-2.42,7.45s-.32-.65-.65-1.36q.32,1.24.63,2.54l.24.22.31,2.17c.3,1.33.59,2.69.86,4.08-.24-2.09,0-5,2.76-6.79,0,0-.58,1.41.15,2.18s1.38,6.32-2.35,7.07c0,0-.12-.3-.25-.81.51,2.76.94,5.59,1.25,8.42a11.21,11.21,0,0,1,3.48-4.62c2.69,4.41-.18,5.71-1.66,7.2a10.57,10.57,0,0,0-1.45,1.73q0,.36,0,.72a46.6,46.6,0,0,1-.17,6.93,11.07,11.07,0,0,1,6.12-3.75,11,11,0,0,1-.37,4.56c-.73,3.06-3,3.92-5.76,4.36a2.25,2.25,0,0,1-.8,0,47.68,47.68,0,0,1-2.37,7.8C125,68,127.19,67,131,67.54a2.62,2.62,0,0,0-1.33,2c-.28,1.51-.26,6.3-8.36,4.83a48.38,48.38,0,0,1-3.07,4.85c4.14-2.09,8.4.61,8.4.61-2,2.18-4.39,5.57-7,5.08-1.82-.34-4.19-.63-5.47-.77a48.66,48.66,0,0,1-5.88,5.28c1.65.23,5,1,6.66,3.55a6.62,6.62,0,0,0-2.84,1.55c-1,1.09-6.77,2.24-8.39-2-.82.49-1.66,1-2.52,1.42C91.22,99.12,92.59,97.77,95.49,95.71Z" fill="url(#7a96b422-6294-4fce-8d98-fa56b8b7692b)"/><path d="M120.37,66.21l-.07,0A0,0,0,0,1,120.37,66.21Z" fill="url(#fb5524a2-fa8a-4407-827a-254ed271b12b)"/></g><path d="M4.47,107.9h8.43L16,119.73h.21a25.11,25.11,0,0,1,.57-3l2.54-8.85h8.34l3.71,22.53H23.44l-1.11-12.34h-.15a18.83,18.83,0,0,1-.54,2.24l-3.26,10.1H13.61l-2.93-9.53a15.43,15.43,0,0,1-.51-2.81H9.91c-.06.9-.12,1.82-.21,2.72l-1,9.62H.82Z" fill="#007949"/><path d="M44.69,121.43a4.49,4.49,0,0,0-2.84-1.31,2.32,2.32,0,1,0-.15,4.63,5.14,5.14,0,0,0,3-1.22L44.36,130a12.82,12.82,0,0,1-3.88.75c-5.14,0-8.82-2.9-8.82-8.22a8.09,8.09,0,0,1,8.19-8.37,15.82,15.82,0,0,1,4.84.81Z" fill="#007949"/><path d="M46.36,107.9H61.51v6.16h-6.9v2.15h6.31v5.86H54.61v2.21h7.14v6.16H46.36Z" fill="#007949"/><path d="M63.64,107.9h8.19v15.3H78.7v7.23H63.64Z" fill="#007949"/><path d="M80,107.9h9.89c5.08,0,9.38,2.15,9.38,7.83,0,3.41-1.31,4.84-4.36,5.86v.18a5.75,5.75,0,0,1,1.37,1.35l4.9,7.32H91.79L88.2,123.2H88v7.23H80Zm8,10h.57c1.34,0,2.69-.21,2.69-1.88s-1.23-1.94-2.63-1.94H88Z" fill="#007949"/><path d="M125.28,119.22c0,7.23-5.59,11.56-12.46,11.56s-12.46-4.33-12.46-11.56,5.62-11.69,12.46-11.69S125.28,112.14,125.28,119.22Zm-16.68.12a4.22,4.22,0,1,0,8.43,0,4.22,4.22,0,1,0-8.43,0Z" fill="#007949"/><path d="M131.62,107.9l2.51,5.89h.24c.24-.72.45-1.43.75-2.12l1.61-3.77h9.2l-7.71,12.82v9.71h-8v-9.71l-7.86-12.82Z" fill="#007949"/><path d="M7.83,135.12h.81V143a5,5,0,0,1-.86,3.47A4.62,4.62,0,0,1,4.33,148,4.62,4.62,0,0,1,.88,146.5,5,5,0,0,1,0,143v-7.92H.83v7.68a5.18,5.18,0,0,0,.66,3.2,3.8,3.8,0,0,0,2.85,1.23A3.8,3.8,0,0,0,7.18,146a5.18,5.18,0,0,0,.66-3.2Z" fill="#004f27"/><path d="M29.46,148.23,18.8,136.9v10.91H18V134.95L28.65,146.2V135.12h.81Z" fill="#004f27"/><path d="M39.73,147.81h-.81v-12.7h.81Z" fill="#004f27"/><path d="M52.5,146h0l3.76-10.85h.81l-4.61,13.12-4.56-13.12h.81Z" fill="#004f27"/><path d="M66.09,135.87v4.61h5.12v.76H66.09v5.81h5.25v.76H65.28v-12.7h6.06v.76Z" fill="#004f27"/><path d="M86.84,147.81h-.93l-4.14-6h-.4v6h-.81v-12.7h1.58a4.67,4.67,0,0,1,2.9.64,3.19,3.19,0,0,1,1.28,2.73c0,2.21-1.53,3.35-3.64,3.32ZM82.39,141a3.17,3.17,0,0,0,2.22-.59,2.54,2.54,0,0,0,.89-2,2.42,2.42,0,0,0-1.35-2.29,5.42,5.42,0,0,0-2.27-.29h-.52V141Z" fill="#004f27"/><path d="M101.39,137.2a2.9,2.9,0,0,0-2.58-1.5,2.39,2.39,0,0,0-2.39,2.42c0,1.33,1.26,1.89,2.29,2.37l2.43,1.26a2.77,2.77,0,0,1,1.45,2.53,4,4,0,0,1-7.71,1l.71-.32a3.23,3.23,0,0,0,3.06,2.29,3.09,3.09,0,0,0,3.13-3c0-1.43-1.47-2-2.56-2.58l-2.29-1.21a2.54,2.54,0,0,1-1.31-2.27,3.1,3.1,0,0,1,3.25-3.22,3.56,3.56,0,0,1,3.1,1.79Z" fill="#004f27"/><path d="M112.22,147.81h-.81v-12.7h.81Z" fill="#004f27"/><path d="M124.51,147.81h-.81V135.87h-3.28v-.76h7.38v.76h-3.28Z" fill="#004f27"/><path d="M134.7,135.12h.89l3.74,6.43,3.74-6.43H144l-4.23,7.28v5.42h-.81v-5.42Z" fill="#004f27"/><path d="M63.61,109.27a34.47,34.47,0,0,0,8.17,3.93v-4.61l-4.24-.74H63.64Z" fill="#231f20" opacity="0.25" style="mix-blend-mode:multiply"/><path d="M106,109.33a20.19,20.19,0,0,1,4.24,2.21c1.11,1,1-.61,1-2a5.21,5.21,0,0,0-.25-1.9A11.87,11.87,0,0,0,106,109.33Z" fill="#231f20" opacity="0.25" style="mix-blend-mode:multiply"/><path d="M80,113a91.68,91.68,0,0,0,7.68-5.16H80Z" fill="#231f20" opacity="0.25" style="mix-blend-mode:multiply"/><path d="M37.88,84.4S19.26,83.66,4.23,96.48c0,0-.83.92.18.92a39.39,39.39,0,0,1,9.22.18s-2.4,5-3.78,6.54-1.29,2-1.29,2-.09.46.55.37,5.25-3.41,19.54-7.65,5.62-7.56,5.62-7.56Z" fill="url(#814fbb94-0472-4dca-9429-d921116b485a)"/><path d="M111.26,84.4s18.62-.74,33.64,12.07c0,0,.83.92-.18.92a39.39,39.39,0,0,0-9.22.18s2.4,5,3.78,6.54,1.29,2,1.29,2,.09.46-.55.37-5.25-3.41-19.54-7.65-5.62-7.56-5.62-7.56Z" fill="url(#ef2af18d-2336-4951-b76b-e73e9055ccf6)"/><path d="M125,90.85a46.19,46.19,0,0,0-13.73-6.45s-.46,2.95-1.38,4a10.09,10.09,0,0,0-1.57,2.95s13.09,1.84,13.55,1.84S125,90.85,125,90.85Z" fill="#4d2500"/><path d="M104,86.8s12,1,21,4.06a5.69,5.69,0,0,1-.83,3.59c-1.11,1.66-2.58,8.11-2.58,8.11s-.18,1.38-2.3.65-5.81-2.77-9.4-3.23S104,86.8,104,86.8Z" fill="#fec00f"/><path d="M117.39,94.5s-2.9-3.46-12.86-6.77S101,92.14,101,92.14,115.91,99.66,117.39,94.5Z" fill="#4d2500"/><path d="M24.14,90.85A46.19,46.19,0,0,1,37.88,84.4s.46,2.95,1.38,4a10.09,10.09,0,0,1,1.57,2.95s-13.09,1.84-13.55,1.84S24.14,90.85,24.14,90.85Z" fill="#4d2500"/><path d="M45.42,86.8s-12.33,1-21.27,4.06A5.69,5.69,0,0,0,25,94.45c1.11,1.66,2.58,8.11,2.58,8.11s.18,1.38,2.3.65,5.81-2.77,9.4-3.23S45.42,86.8,45.42,86.8Z" fill="#fec00f"/><path d="M31.75,94.5s2.9-3.46,12.86-6.77,3.56,4.42,3.56,4.42S33.22,99.66,31.75,94.5Z" fill="#4d2500"/><path d="M113.22,14.49A44.18,44.18,0,0,1,74.51,2a44.27,44.27,0,0,1-38,12.59,87.69,87.69,0,0,0-4.27,27.3c0,15.58,4.67,54.28,42.62,68.18h0c38-13.89,42.66-52.6,42.66-68.18A88.12,88.12,0,0,0,113.22,14.49Z" fill="#fec00f" stroke="#fec00f" stroke-width="1.84"/><path d="M110.43,18s2.12-.18,2.49-.28c0,0,18,66.76-38.13,90.73v-2.33L110.43,18" fill="#cf7918"/><path d="M74.9,106.66C38.32,92.53,35.52,53.58,35.52,41.89A88.65,88.65,0,0,1,38.84,18.1c1.11.1,2.51.19,4.13.19A47.92,47.92,0,0,0,74.59,6.4a47.51,47.51,0,0,0,31.33,11.88A49,49,0,0,0,111.1,18a88.9,88.9,0,0,1,3.35,23.88c0,11.7-2.94,50.65-39.55,64.78Z" fill="#007949"/><path d="M74.9,106.66C38.32,92.53,35.52,53.58,35.52,41.89A88.65,88.65,0,0,1,38.84,18.1c1.11.1,2.51.19,4.13.19A47.92,47.92,0,0,0,74.59,6.4a47.51,47.51,0,0,0,31.33,11.88A49,49,0,0,0,111.1,18a88.9,88.9,0,0,1,3.35,23.88c0,11.7-2.94,50.65-39.55,64.78Z" opacity="0.7" fill="url(#a6de2624-fe73-4459-9678-914afdb8c083)" style="mix-blend-mode:multiply"/><path d="M74.91,106.66C38.32,92.52,35.52,53.58,35.52,41.89A88.65,88.65,0,0,1,38.84,18.1c1.11.1,2.51.19,4.13.19A47.92,47.92,0,0,0,74.59,6.4a47.51,47.51,0,0,0,31.33,11.88A49,49,0,0,0,111.1,18a88.9,88.9,0,0,1,3.35,23.88c0,11.7-2.91,50.64-39.53,64.76Z" opacity="0.32" fill="url(#ff1aa01d-e40b-4863-a773-cbb4b06958f2)" style="mix-blend-mode:multiply"/><path d="M38.84,53.5c1.11.1,2.51.19,4.13.19A47.92,47.92,0,0,0,74.59,41.79a47.51,47.51,0,0,0,31.33,11.88,49,49,0,0,0,5.18-.28c.42,1.47,1,3.56,1.5,6.12a88.67,88.67,0,0,0,1.85-17.63A88.9,88.9,0,0,0,111.1,18a49,49,0,0,1-5.18.28A47.51,47.51,0,0,1,74.59,6.4,47.92,47.92,0,0,1,43,18.29c-1.62,0-3-.08-4.13-.19a88.65,88.65,0,0,0-3.32,23.78,89.43,89.43,0,0,0,1.83,17.69C37.88,57,38.42,55,38.84,53.5Z" opacity="0.7" fill="url(#8e8dbf30-6299-4106-8cec-0b031558be0f)" style="mix-blend-mode:multiply"/><path d="M38.72,20.32c1.11.1,2.51.19,4.13.19A47.92,47.92,0,0,0,74.47,8.61,47.51,47.51,0,0,0,105.8,20.49a49,49,0,0,0,5.18-.28A89,89,0,0,1,114.33,43c0-.37,0-.73,0-1.07A88.9,88.9,0,0,0,111,18a49,49,0,0,1-5.18.28A47.51,47.51,0,0,1,74.47,6.4,47.92,47.92,0,0,1,42.85,18.29c-1.62,0-3-.08-4.13-.19A88.65,88.65,0,0,0,35.4,41.89c0,.33,0,.7,0,1.07A88.78,88.78,0,0,1,38.72,20.32Z" opacity="0.32" fill="url(#5df892d8-2456-489f-a2bf-986387b4d83b)" style="mix-blend-mode:multiply"/><path d="M80.4,104.17a54,54,0,0,1-5.62,2.49,67.41,67.41,0,0,1-6.41-2.91,46.67,46.67,0,0,1-4.26-2.48c-.27-.18,4.72-1.3,4.81-1.3l16.38,1.47S83,102.82,80.4,104.17Z" fill="#231f20" opacity="0.5" style="mix-blend-mode:multiply"/><path d="M36.49,14.59l1.43,2S60.35,19.88,74.51,2A45,45,0,0,1,36.49,14.59Z" fill="url(#ca1b965a-d4c1-4d49-946c-cf8b95ae06d9)"/><path d="M36.49,14.59l1.06,2.35s-21.38,61.2,37.29,93.13c0,0-33.73-9.81-40.85-50.73C34,59.33,28.82,40,36.49,14.59Z" fill="url(#fde443c7-15b5-4977-90eb-da67635162b8)"/><path d="M44.34,61.82h18v4.57h-6V80.67a4.3,4.3,0,0,0,1.3,3.72c2,1.68,13.59,2.22,16.89,2.22,1.4,0,10.7-.09,13.1-.8,4.09-1.19,4.2-3.23,4.2-4.61V66.39h-6.3V61.82h19.38v4.57H98.63v16c-.1,2.52-.2,5.89-5.2,8.32-3.79,1.82-10.09,2.93-18.09,2.93a65.32,65.32,0,0,1-14.7-1.46c-9.7-2.35-11.25-6.69-11.35-9.7V66.39H44.34Z" fill="#231f20" opacity="0.5" style="mix-blend-mode:multiply"/><path d="M44.34,24.49H65.53l8.93,26,9.25-26h21.19v5.12H99.69V54.48h5.22V59.6H85.54V54.48h4.11v-24L78.58,59.6H68.93L58.26,30.21V54.48h4.11V59.6h-18V54.48H49.4V29.61H44.34Z" fill="#231f20" opacity="0.5" style="mix-blend-mode:multiply"/><path d="M74.66,84h-.17c-3.3,0-14.88-.54-16.89-2.22A4.3,4.3,0,0,1,56.3,78V64.46h6V58.69h-18v5.78h4.95V79.87c.1,3,1.65,7.35,11.35,9.7A64.06,64.06,0,0,0,74.66,91Z" fill="#fff687"/><polygon points="68.89 56.96 74.66 56.96 74.66 47.33 74.42 47.85 65.49 21.85 44.29 21.85 44.29 26.97 49.35 26.97 49.35 51.83 44.29 51.83 44.29 56.96 62.32 56.96 62.32 51.83 58.21 51.83 58.21 27.57 68.89 56.96" fill="#fff687"/><path d="M85.54,58.69v5.76h6.3V78.55c0,1.38-.11,3.41-4.2,4.61-2.36.7-11.42.8-13,.8V91h.73c8,0,14.3-1.11,18.09-2.93,5-2.44,5.1-5.8,5.2-8.32V64.45h6.28V58.69Z" fill="url(#720893b4-d977-48aa-a4bc-5dcbfdb55d1f)"/><polygon points="104.92 26.97 104.92 21.85 83.73 21.85 74.62 47.46 74.62 56.96 78.59 56.96 89.66 27.86 89.66 51.83 85.55 51.83 85.55 56.96 104.92 56.96 104.92 51.83 99.7 51.83 99.7 26.97 104.92 26.97" fill="url(#eba5a8fc-e680-4950-bfe1-ee336264eb9d)"/><path d="M74.64,89.56s-10.11,0-15-1.66-8.88-3.35-10.35-7.4c0,0-.06,4.95,7,7.71s15,2.72,18.34,2.82Z" fill="#cf7918"/><path d="M73.33,90.49s10.11,0,15-1.66,8.7-3.33,10.18-7.39c0,0,.24,4.93-6.86,7.7s-15,2.72-18.34,2.82Z" fill="#cf7918"/><path d="M73.55,85.3s20.22.67,18.31-6.37A3.62,3.62,0,0,1,89,82.44c-2.92.65-6.64,1.33-15.41,1.52Z" fill="#fff"/><path d="M74.63,85.3S54.42,86,56.32,78.93a3.62,3.62,0,0,0,2.89,3.5c2.92.65,6.64,1.33,15.41,1.52Z" fill="#fff"/><path d="M44.43,87.79S45.81,85,48.3,86.25c0,0,19.63-9.22,53.46-.74,0,0,3-1,3.78,1.94,0,0-2.26,3.27-3.12,4.15S87,97.21,87,97.21s-29.31-2.67-30-2.77S46.7,90.92,46.7,90.92,45.75,89.71,44.43,87.79Z" fill="#231f20" opacity="0.5" style="mix-blend-mode:multiply"/><path d="M74.64,101.12c24.7,1,35.64,7,36.87,7.37s1.6-1,1.72-3.93,3.32-7.25,4.06-8.73-.25-1.6-.25-1.6c-20.77-7.25-42.4-6.88-42.4-6.88h-.09S52.91,87,32.14,94.23c0,0-1,.12-.25,1.6s3.93,5.78,4.06,8.73.49,4.3,1.72,3.93,12.17-6.39,36.87-7.37Z" fill="#fec00f"/><path d="M74.64,101.12c24.7,1,35.64,7,36.87,7.37s1.6-1,1.72-3.93,3.32-7.25,4.06-8.73-.25-1.6-.25-1.6c-20.77-7.25-42.4-6.88-42.4-6.88h-.09S52.91,87,32.14,94.23c0,0-1,.12-.25,1.6s3.93,5.78,4.06,8.73.49,4.3,1.72,3.93,12.17-6.39,36.87-7.37Z" opacity="0.48" fill="url(#6f1bf18f-40d8-4eb7-bb68-547b3f6586a0)"/><polygon points="45.71 55.58 45.71 53.28 44.26 51.85 44.27 56.94 45.71 55.58" fill="#fff687"/><polygon points="44.29 56.94 45.72 55.52 60.42 55.51 62.34 56.94 44.29 56.94" fill="#cf7918"/><polygon points="44.28 64.47 45.7 63.05 50.68 63.05 49.23 64.47 44.28 64.47" fill="#cf7918"/><polygon points="62.29 64.47 60.87 63.05 54.83 63.05 56.29 64.47 62.29 64.47" fill="#cf7918"/><polygon points="85.53 64.47 86.95 63.05 93.3 63.05 91.84 64.47 85.53 64.47" fill="#cf7918"/><polygon points="104.94 64.47 103.52 63.05 97.17 63.05 98.63 64.47 104.94 64.47" fill="#cf7918"/><polygon points="44.29 59.15 45.72 60.57 60.42 60.58 62.34 59.15 44.29 59.15" fill="#fff"/><polygon points="85.54 56.94 86.96 55.52 103 55.51 104.91 56.94 85.54 56.94" fill="#cf7918"/><polygon points="85.54 59.15 86.96 60.57 103 60.58 104.91 59.15 85.54 59.15" fill="#fff"/><polygon points="44.26 51.85 49.36 51.85 50.8 53.29 45.46 53.29 44.26 51.85" fill="#fff"/><polygon points="104.92 51.83 99.7 51.83 98.26 53.27 103.72 53.27 104.92 51.83" fill="#fff"/><polygon points="49.36 51.85 49.36 26.95 50.81 25.5 50.81 53.28 49.36 51.85" fill="#fff687"/><polyline points="44.29 26.97 49.36 26.98 50.81 25.5 45.74 25.5" fill="#cf7918"/><polygon points="44.29 21.85 45.74 23.3 62.71 23.3 64.05 23.3 65.5 21.85 44.29 21.85" fill="#fff"/><polygon points="68.89 56.96 70.34 55.51 74.62 55.51 74.62 56.96 68.89 56.96" fill="#cf7918"/><polygon points="70.34 55.51 58.22 24.67 58.22 27.61 68.89 56.96 70.34 55.51" fill="#cf7918"/><polygon points="77.12 55.65 89.63 24.98 89.63 27.92 78.65 56.96 77.12 55.65" fill="#cf7918"/><polygon points="78.59 56.95 77.14 55.5 74.62 55.5 74.62 56.96 78.59 56.95" fill="#cf7918"/><polygon points="83.73 21.85 85.18 23.29 88.66 23.29 103.49 23.29 104.95 21.84 83.73 21.85" fill="#fff"/><polygon points="104.93 26.98 99.7 26.96 98.26 25.48 103.46 25.48 104.93 26.98" fill="#cf7918"/><path d="M46.38,93.31l.42,1.56-1.62-.67a1.5,1.5,0,0,0-.42-.12,1,1,0,0,0-.38,0,1.5,1.5,0,0,0-.94.71A1.45,1.45,0,0,0,43.28,96a1.51,1.51,0,0,0,.48.78,3.76,3.76,0,0,0,1.21.58l1.69.57a3.23,3.23,0,0,1,1.22.64,2.1,2.1,0,0,1,.56,1,2.44,2.44,0,0,1-.32,2.09,3.29,3.29,0,0,1-2,1.3,5.92,5.92,0,0,1-1.09.18,7.31,7.31,0,0,1-1.18,0l-.43-1.58,1.73.71a1.87,1.87,0,0,0,.44.12.93.93,0,0,0,.35,0,2,2,0,0,0,1.19-.79,1.48,1.48,0,0,0,.2-1.27,1.31,1.31,0,0,0-.39-.66,2.9,2.9,0,0,0-.93-.48l-1.88-.67a3.58,3.58,0,0,1-1.29-.71,2.4,2.4,0,0,1-.3-3,3,3,0,0,1,1.78-1.2,7,7,0,0,1,1-.18Q45.81,93.33,46.38,93.31Z" fill="#007949"/><path d="M48.43,92.7l2.2-.47a3.73,3.73,0,0,0-.19.93,4,4,0,0,0,.1,1.06l0,.08,1.09,5.11a4,4,0,0,0,.34,1,3.74,3.74,0,0,0,.55.77l-2.2.47a3.57,3.57,0,0,0,.09-2.08l-1.08-5a3.57,3.57,0,0,0-.93-1.86Z" fill="#007949"/><path d="M52.5,91.82l1.65-.25,5.5,6.11-.74-4.81a4.08,4.08,0,0,0-.29-1.07,4.13,4.13,0,0,0-.53-.84l1.73-.27a3.63,3.63,0,0,0-.26.94,4.25,4.25,0,0,0,.05,1.13l1.1,7.15-.61.09L54,93.19l.86,5.59a4,4,0,0,0,.28,1,3.74,3.74,0,0,0,.51.8l-1.72.27a3.66,3.66,0,0,0,.25-.93,4.39,4.39,0,0,0-.05-1.14l-.78-5.08a4.37,4.37,0,0,0-.29-1.1A3.7,3.7,0,0,0,52.5,91.82Z" fill="#007949"/><path d="M68.41,90.09l.13,1.62-1.57-1a1,1,0,0,0-.34-.14,1.85,1.85,0,0,0-.48,0A2.65,2.65,0,0,0,64,91.9a5.2,5.2,0,0,0-.58,3.17,5,5,0,0,0,1,2.94,2.59,2.59,0,0,0,2.29.91,2.25,2.25,0,0,0,.49-.09.78.78,0,0,0,.31-.16l1.56-1.4L69,99q-.6.19-1.17.31a8.51,8.51,0,0,1-1.09.16,4.36,4.36,0,0,1-3.37-.9A4.69,4.69,0,0,1,62,95.31a5.18,5.18,0,0,1,.94-3.71A4.24,4.24,0,0,1,66.1,90a9,9,0,0,1,1.08,0Q67.75,90,68.41,90.09Z" fill="#007949"/><path d="M70.13,89.9l5.62-.07,0,1.76-1.33-1a.86.86,0,0,0-.3-.15,1.39,1.39,0,0,0-.39,0l-1.85,0,0,3.74,1.71,0a1,1,0,0,0,.31-.08,1.68,1.68,0,0,0,.36-.19l.81-.61,0,2.15-.79-.55a1,1,0,0,0-.34-.16,2.29,2.29,0,0,0-.55,0l-1.54,0,0,3.82,2,0a1,1,0,0,0,.58-.24l.1-.08,1.36-1L75.82,99l-5.58.07a4.38,4.38,0,0,0,.38-.93A4.14,4.14,0,0,0,70.74,97l-.07-5.14a4.12,4.12,0,0,0-.14-1.11A3.69,3.69,0,0,0,70.13,89.9Z" fill="#007949"/><path d="M85.21,90.18l-.63,7.47a3.46,3.46,0,0,0,0,1,3.57,3.57,0,0,0,.32.85l-2.29-.19a3.72,3.72,0,0,0,.49-.87,4.09,4.09,0,0,0,.22-1.1v-.17l.46-5.47-2.07-.17a10.47,10.47,0,0,0,1.35-.46Q84,90.75,85.21,90.18Z" fill="#007949"/><path d="M87.56,99.18l.57.17.55.11a3.13,3.13,0,0,0,2.51-.55,4.46,4.46,0,0,0,1.4-2.55,4.36,4.36,0,0,1-1,.21,4.09,4.09,0,0,1-1,0,2.68,2.68,0,0,1-1.83-1,2.59,2.59,0,0,1-.46-2,2.83,2.83,0,0,1,1.14-2A3,3,0,0,1,91.76,91a2.71,2.71,0,0,1,2.1,1.32,4.65,4.65,0,0,1,.35,3,6.91,6.91,0,0,1-1.61,3.87,3.6,3.6,0,0,1-4.15.65A3.22,3.22,0,0,1,87.56,99.18ZM92.68,96q.07-.25.11-.47c0-.15.05-.28.07-.41a5.89,5.89,0,0,0,0-2.57,1.35,1.35,0,0,0-1.16-1,1.41,1.41,0,0,0-1.29.38,2.85,2.85,0,0,0-.65,1.6A2.34,2.34,0,0,0,90,95.19a1.91,1.91,0,0,0,1.39.76A4.59,4.59,0,0,0,92,96,5.22,5.22,0,0,0,92.68,96Z" fill="#007949"/><path d="M99.25,96.64a5,5,0,0,1,1.39,1.53,2.34,2.34,0,0,1,.16,1.56,2.38,2.38,0,0,1-1.21,1.7,3.38,3.38,0,0,1-2.36.22,3,3,0,0,1-1.83-1.08A2.17,2.17,0,0,1,95,98.73a2.13,2.13,0,0,1,.86-1.33,3.52,3.52,0,0,1,1.8-.59,3.58,3.58,0,0,1-1.07-1.3,2.29,2.29,0,0,1-.14-1.43,2.12,2.12,0,0,1,1-1.49,2.67,2.67,0,0,1,1.94-.21,2.78,2.78,0,0,1,1.66.89,1.8,1.8,0,0,1,.33,1.58,2,2,0,0,1-.68,1.15A3.21,3.21,0,0,1,99.25,96.64Zm-1.31.45a4,4,0,0,0-1.24.81,2.07,2.07,0,0,0-.57,1,1.93,1.93,0,0,0,.18,1.44,1.66,1.66,0,0,0,1.15.76,1.82,1.82,0,0,0,1.39-.2,1.66,1.66,0,0,0,.75-1.12,1.62,1.62,0,0,0-.16-1.14A7.31,7.31,0,0,0,97.94,97.09Zm1-.75a3.2,3.2,0,0,0,.91-.75,2.18,2.18,0,0,0,.46-.94,1.57,1.57,0,0,0-.13-1.15,1.3,1.3,0,0,0-.9-.6A1.35,1.35,0,0,0,97.57,94a1.54,1.54,0,0,0,.19,1.13A4.47,4.47,0,0,0,98.94,96.34Z" fill="#007949"/><path d="M107.67,94.39l-2,7.22a3.45,3.45,0,0,0-.16,1,3.59,3.59,0,0,0,.15.9l-2.21-.62a3.71,3.71,0,0,0,.65-.77,4.08,4.08,0,0,0,.43-1l0-.16L106,95.65l-2-.56a10.41,10.41,0,0,0,1.41-.2Q106.34,94.72,107.67,94.39Z" fill="#007949"/><path d="M145.72,136.7a1,1,0,0,0,.51.15c.3,0,.47-.16.47-.38s-.12-.33-.42-.44-.59-.33-.59-.64a.64.64,0,0,1,.72-.61,1,1,0,0,1,.49.11l-.08.24a.83.83,0,0,0-.42-.11c-.31,0-.42.18-.42.34s.14.31.44.43.57.33.57.66-.25.65-.78.65a1.16,1.16,0,0,1-.57-.15Z" fill="#006838"/><path d="M149.64,136.07c0-.31,0-.69,0-1h0c-.08.26-.17.54-.28.85l-.39,1.09h-.22l-.37-1.07c-.11-.32-.19-.6-.26-.87h0c0,.28,0,.65,0,1l-.06,1h-.28l.16-2.24h.37l.38,1.08c.09.28.17.52.23.75h0c.06-.23.14-.47.24-.75l.4-1.08h.37l.14,2.24h-.29Z" fill="#006838"/></g></g></svg>