<?xml version="1.0" encoding="utf-8"?>
<!-- Generator: Adobe Illustrator 21.0.0, SVG Export Plug-In . SVG Version: 6.00 Build 0)  -->
<svg version="1.1" id="Layer_1" xmlns="http://www.w3.org/2000/svg" xmlns:xlink="http://www.w3.org/1999/xlink" x="0px" y="0px"
	 viewBox="0 0 776.3 133.3" style="enable-background:new 0 0 776.3 133.3;" xml:space="preserve">
<style type="text/css">
	.st0{fill:#FFFFFF;}
</style>
<g id="Logo">
	<g>
		<path class="st0" d="M124.1,66.7c0,31.7-25.7,57.4-57.4,57.4S9.2,98.4,9.2,66.7S35,9.2,66.7,9.2S124.1,34.9,124.1,66.7z
			 M66.7,12.1c-30,0-54.4,24.4-54.4,54.4S36.6,121,66.7,121s54.4-24.4,54.4-54.4S96.7,12.1,66.7,12.1z"/>
		<rect x="65.6" class="st0" width="2.1" height="8.4"/>
		<rect x="124.9" y="65.7" class="st0" width="8.3" height="2.1"/>
		<rect x="65.6" y="125.1" class="st0" width="2.1" height="8.2"/>
		<rect y="65.7" class="st0" width="8.2" height="2.1"/>
		<path class="st0" d="M59.4,17.8v36.3h-10l9.6,13h-9.6L38,54.2H27.2c-0.9,2.8-2.1,10.1-1.8,13h-8C16.8,46,32,22,59.4,17.8z
			 M30.9,46h20.6V28.1C43.5,31,34.2,39.2,30.9,46z"/>
		<path class="st0" d="M66.3,46.6h1.5v6.2c-0.7-0.3-1.8,0-1.8,0.8s1.1,1.5,1.8,1.2v0.9c-0.6-0.3-1.8,0.1-1.8,0.8s1.2,1.3,1.8,0.9
			v4.7h-1.5v-3.7c-0.7,0-1.8-0.8-1.8-1.8c0-0.8,0.3-1.3,0.8-1.4c-0.6-0.3-0.8-0.7-0.8-1.5c0-0.9,0.8-2.1,1.8-2.1L66.3,46.6z"/>
		<path class="st0" d="M109.3,42l-1.7,5.1c1.1,0.5,4.9,3.1,6,4.5c1,2,2.7,11.3,2.2,15.5H73.5V17.8C90.5,19.9,104.1,31.9,109.3,42z
			 M80.9,51v9.1h26.6c-0.5-2.9-2.4-7.5-7-9.2C100.5,51,80.9,51,80.9,51z M80.9,27.9v15.8h18.3v-2.4C95.6,36.1,86.7,29.4,80.9,27.9z"
			/>
		<path class="st0" d="M112.6,84.4c-1.9,5.9-8.9,15.9-14.3,20H86.9v-20H112.6z M93.2,90.7v7.3h4.9c1.7-1.7,4.8-5.7,5.2-7.3H93.2z"/>
		<path class="st0" d="M81.7,74.1v11.3h-8.2v-4.2H27.9c7.6,20.2,30.8,32.4,53.8,23.9v8.4c-29.3,9.9-59.2-10.1-63.8-39.4H81.7z"/>
	</g>
</g>
<g id="R_x26_B_Company">
	<g>
		<path class="st0" d="M231.6,89.1h-5.2v-7.7c0-1.2,0-2.3-0.1-3.2c0-0.9-0.2-1.7-0.5-2.3c-0.3-0.7-0.7-1.2-1.2-1.6
			c-0.6-0.4-1.3-0.7-2.4-0.9c-1-0.2-2.3-0.4-3.9-0.4c-1.6-0.1-3.5-0.1-5.8-0.1h-23.2v16.3h-5.2V47.8h29.2c3.1,0,5.8,0.1,8,0.3
			c2.2,0.2,3.9,0.6,5.4,1c1.4,0.5,2.5,1,3.2,1.7c0.8,0.7,1.3,1.4,1.7,2.3c0.4,0.9,0.6,1.9,0.6,3c0.1,1.1,0.1,2.3,0.1,3.7
			c0,1.7-0.1,3.2-0.4,4.5s-0.6,2.4-1.2,3.3c-0.6,0.9-1.3,1.6-2.3,2.2s-2.1,0.9-3.6,1.1c1.4,0.2,2.6,0.6,3.4,1.1s1.5,1.2,2,2.1
			s0.8,1.9,0.9,3.1c0.1,1.2,0.2,2.5,0.2,4L231.6,89.1L231.6,89.1z M189.4,68.4h24.1c2.3,0,4.2,0,5.8-0.1c1.6-0.1,2.9-0.2,3.9-0.4
			s1.8-0.5,2.4-0.9c0.6-0.4,1-0.9,1.2-1.6c0.3-0.7,0.4-1.4,0.5-2.3c0-0.9,0.1-2,0.1-3.2c0-1.2,0-2.2-0.1-3c0-0.8-0.2-1.5-0.5-2.1
			c-0.3-0.6-0.7-1-1.2-1.4c-0.6-0.3-1.3-0.6-2.4-0.8c-1-0.2-2.3-0.3-3.9-0.4c-1.6,0-3.5-0.1-5.8-0.1h-24.1V68.4z"/>
		<path class="st0" d="M283.2,68.4h5.2v1.7c0,2.8-0.1,5.1-0.3,7.2s-0.6,3.7-1.1,5.1s-1.4,2.5-2.5,3.4s-2.5,1.6-4.2,2
			c-1.7,0.5-3.8,0.8-6.3,1c-2.5,0.2-5.4,0.3-8.9,0.3c-3.2,0-6,0-8.5-0.1s-4.7-0.2-6.6-0.4c-1.9-0.2-3.5-0.7-4.9-1.2
			c-1.4-0.6-2.5-1.3-3.3-2.4c-0.9-1-1.5-2.3-1.9-3.9c-0.4-1.6-0.6-3.5-0.6-5.8c0-1.7,0.2-3.2,0.6-4.5c0.4-1.3,0.9-2.3,1.5-3.2
			s1.3-1.6,2-2.2c0.7-0.6,1.4-1,2.1-1.3c0.7-0.3,1.3-0.5,1.9-0.7s1-0.2,1.3-0.2c-0.6-0.4-1.2-0.9-1.8-1.3s-1-0.9-1.4-1.5
			s-0.7-1.1-0.9-1.8c-0.2-0.7-0.3-1.4-0.3-2.3c0-1.7,0.3-3.2,0.9-4.3c0.6-1.1,1.3-2.1,2.3-2.8c1-0.7,2.1-1.2,3.3-1.6s2.6-0.6,4-0.7
			c1.4-0.1,2.8-0.2,4.3-0.2c1.5,0,2.9,0,4.2,0c2.9,0,5.4,0,7.5,0.1c2.1,0.1,4,0.3,5.5,0.5c1.5,0.3,2.8,0.7,3.8,1.2
			c1,0.5,1.8,1.2,2.3,2.1c0.6,0.9,1,2,1.2,3.3c0.2,1.3,0.3,2.9,0.3,4.8h-5.2c0-1.3-0.1-2.4-0.2-3.3s-0.4-1.6-0.8-2.2
			c-0.4-0.6-0.9-1-1.6-1.3s-1.6-0.5-2.8-0.7s-2.5-0.2-4.2-0.2c-1.7,0-3.6,0-5.9,0c-2.6,0-4.8,0-6.5,0.1c-1.8,0-3.2,0.2-4.2,0.6
			s-1.9,0.8-2.3,1.5c-0.5,0.7-0.7,1.7-0.7,3c0,0.5,0.1,0.9,0.2,1.4c0.1,0.4,0.4,0.9,0.7,1.3s0.8,0.8,1.3,1.3s1.2,0.8,2.1,1.2
			l43.9,22.4l-1.7,4.3l-43-21.5c-1.3,0-2.5,0.2-3.5,0.5s-2,0.8-2.7,1.5c-0.8,0.7-1.3,1.6-1.8,2.7s-0.6,2.4-0.6,3.9
			c0,1.4,0.1,2.6,0.3,3.6c0.2,1,0.6,1.8,1.2,2.4c0.6,0.6,1.4,1.1,2.3,1.5c1,0.3,2.2,0.6,3.8,0.8s3.4,0.3,5.5,0.3c2.1,0,4.6,0,7.5,0
			c2.3,0,4.3,0,6.1,0c1.8,0,3.3-0.1,4.7-0.3c1.3-0.2,2.5-0.4,3.4-0.7c0.9-0.3,1.7-0.8,2.2-1.5c0.6-0.6,1-1.4,1.2-2.4
			c0.3-1,0.4-2.2,0.4-3.7L283.2,68.4L283.2,68.4z"/>
		<path class="st0" d="M300.9,89.1V47.8h34.4c2.6,0,4.7,0.2,6.2,0.6c1.6,0.4,2.8,1,3.6,1.8c0.9,0.8,1.4,1.8,1.7,3
			c0.3,1.2,0.4,2.6,0.4,4.2c0,1.2-0.1,2.2-0.3,3c-0.2,0.9-0.5,1.6-0.8,2.3s-0.7,1.2-1.1,1.6c-0.4,0.4-0.8,0.8-1.3,1.1
			c-1,0.7-2.1,1.1-3.4,1.2c1.6,0.1,3,0.5,4.3,1.2c0.5,0.3,1.1,0.7,1.6,1.1c0.5,0.5,1,1,1.4,1.7c0.4,0.7,0.7,1.5,1,2.4
			c0.2,0.9,0.4,1.9,0.4,3.1c0,1.4-0.1,2.8-0.2,3.9s-0.4,2.3-0.8,3.2s-1,1.8-1.8,2.5s-1.8,1.3-3.1,1.8c-1.3,0.5-2.9,0.8-4.7,1.1
			c-1.9,0.2-4.1,0.3-6.6,0.3L300.9,89.1L300.9,89.1z M330.1,65c1.8,0,3.3,0,4.5-0.1c1.3-0.1,2.4-0.2,3.2-0.4
			c0.9-0.2,1.6-0.5,2.2-0.8s1-0.8,1.3-1.4s0.5-1.2,0.6-2c0.1-0.8,0.2-1.7,0.2-2.8c0-1.2-0.1-2.1-0.4-2.8c-0.2-0.7-0.7-1.3-1.3-1.7
			c-0.6-0.4-1.5-0.7-2.6-0.8c-1.1-0.1-2.5-0.2-4.2-0.2h-27.6V65L330.1,65L330.1,65z M330.1,84.8c2,0,3.8,0,5.2-0.1s2.7-0.2,3.7-0.4
			c1-0.2,1.9-0.5,2.5-0.9c0.6-0.4,1.1-0.9,1.5-1.5c0.4-0.6,0.6-1.4,0.7-2.3c0.1-0.9,0.2-2,0.2-3.3c0-1-0.1-1.9-0.2-2.6
			c-0.1-0.7-0.4-1.4-0.7-1.9c-0.4-0.5-0.8-0.9-1.5-1.2c-0.6-0.3-1.5-0.6-2.5-0.7s-2.3-0.3-3.7-0.4s-3.2-0.1-5.2-0.1h-24.1v15.5
			L330.1,84.8L330.1,84.8z"/>
		<path class="st0" d="M417.1,60.7c0-2.2-0.2-3.8-0.7-5.1c-0.5-1.2-1.2-2.2-2.3-2.8c-1.1-0.7-2.5-1.1-4.2-1.2
			c-1.8-0.2-3.9-0.3-6.5-0.3h-12.1c-2.3,0-4.2,0.1-5.8,0.2c-1.6,0.1-2.9,0.4-3.9,0.8s-1.8,1-2.4,1.8s-1,1.8-1.2,3.1
			c-0.2,1.3-0.4,2.8-0.4,4.7c0,1.9,0,4.1,0,6.7c0,2.6,0,4.8,0.1,6.7c0,1.8,0.2,3.4,0.4,4.7c0.2,1.3,0.6,2.3,1.2,3.1
			c0.5,0.8,1.3,1.4,2.4,1.8c1,0.4,2.3,0.7,3.9,0.8c1.6,0.1,3.5,0.2,5.8,0.2h12.1c2,0,3.7-0.1,5.2-0.2s2.7-0.3,3.7-0.6
			s1.9-0.7,2.5-1.2c0.6-0.5,1.1-1.1,1.5-1.9c0.4-0.8,0.6-1.7,0.7-2.7c0.1-1.1,0.2-2.3,0.2-3.8h5.2c0,1.7-0.1,3.3-0.3,4.7
			c-0.2,1.4-0.6,2.6-1.1,3.7c-0.5,1.1-1.3,2-2.2,2.8s-2.1,1.4-3.5,1.9c-1.4,0.5-3.1,0.9-5,1.1c-1.9,0.2-4.2,0.4-6.8,0.4h-12.1
			c-3.2,0-5.8-0.2-8-0.6c-2.2-0.4-3.9-1-5.3-1.8s-2.5-1.8-3.2-2.9c-0.8-1.2-1.3-2.6-1.7-4.2s-0.5-3.4-0.6-5.4s-0.1-4.2-0.1-6.7
			c0-2.4,0-4.7,0.1-6.7s0.3-3.8,0.6-5.4c0.4-1.6,0.9-3,1.7-4.2c0.8-1.2,1.8-2.2,3.2-2.9s3.2-1.4,5.3-1.8s4.8-0.6,8-0.6h12.1
			c2.6,0,4.8,0.1,6.8,0.4s3.6,0.6,5,1.1c1.4,0.5,2.5,1.1,3.5,1.9s1.6,1.6,2.2,2.7s0.9,2.2,1.1,3.5c0.2,1.3,0.3,2.7,0.3,4.3
			L417.1,60.7L417.1,60.7z"/>
		<path class="st0" d="M463.6,46.9c3.1,0,5.8,0.2,8,0.6c2.2,0.4,3.9,1,5.3,1.8s2.5,1.8,3.2,2.9c0.8,1.2,1.3,2.6,1.6,4.2
			c0.4,1.6,0.6,3.4,0.6,5.4c0.1,2,0.1,4.2,0.1,6.7c0,2.4,0,4.7-0.1,6.7s-0.3,3.8-0.6,5.4c-0.4,1.6-0.9,3-1.6,4.2
			c-0.8,1.2-1.8,2.2-3.2,2.9c-1.4,0.8-3.2,1.4-5.3,1.8s-4.8,0.6-8,0.6h-15.5c-3.2,0-5.8-0.2-8-0.6c-2.2-0.4-3.9-1-5.3-1.8
			s-2.5-1.8-3.2-2.9c-0.8-1.2-1.3-2.6-1.7-4.2s-0.5-3.4-0.6-5.4s-0.1-4.2-0.1-6.7c0-2.4,0-4.7,0.1-6.7s0.3-3.8,0.6-5.4
			s0.9-3,1.7-4.2c0.8-1.2,1.8-2.2,3.2-2.9s3.2-1.4,5.3-1.8s4.8-0.6,8-0.6C448.1,46.9,463.6,46.9,463.6,46.9z M463.6,85.6
			c2.3,0,4.2-0.1,5.8-0.2c1.6-0.1,2.9-0.4,3.9-0.8c1-0.4,1.8-1,2.4-1.8s1-1.8,1.2-3.1c0.2-1.3,0.4-2.8,0.4-4.7
			c0-1.9,0.1-4.1,0.1-6.7c0-2.6,0-4.8-0.1-6.7c0-1.8-0.2-3.4-0.4-4.7c-0.2-1.3-0.6-2.3-1.2-3.1c-0.6-0.8-1.3-1.4-2.4-1.8
			s-2.3-0.7-3.9-0.8c-1.6-0.1-3.5-0.2-5.8-0.2h-15.5c-2.3,0-4.2,0.1-5.8,0.2c-1.6,0.1-2.9,0.4-3.9,0.8s-1.8,1-2.4,1.8
			s-1,1.8-1.2,3.1c-0.2,1.3-0.4,2.8-0.4,4.7c0,1.9,0,4.1,0,6.7c0,2.6,0,4.8,0.1,6.7c0,1.8,0.2,3.4,0.4,4.7c0.2,1.3,0.6,2.3,1.2,3.1
			c0.5,0.8,1.3,1.4,2.4,1.8c1,0.4,2.3,0.7,3.9,0.8c1.6,0.1,3.5,0.2,5.8,0.2C448.1,85.6,463.6,85.6,463.6,85.6z"/>
		<path class="st0" d="M496.3,51.2v37.9h-5.2V47.8h8.3l24.1,36.1l24.1-36.1h8.5v41.3h-5.2V51.8l-24.5,37.3h-5.2L496.3,51.2z"/>
		<path class="st0" d="M566.4,47.8h31c2.6,0,4.7,0.1,6.5,0.3c1.8,0.2,3.2,0.6,4.4,1c1.2,0.5,2,1,2.7,1.7c0.6,0.7,1.1,1.4,1.4,2.3
			s0.5,1.9,0.5,3c0,1.1,0.1,2.3,0.1,3.7c0,1.4,0,2.7-0.1,3.9c-0.1,1.2-0.3,2.3-0.6,3.2s-0.9,1.8-1.7,2.5c-0.8,0.7-1.8,1.3-3.2,1.8
			c-1.4,0.5-3.2,0.8-5.3,1.1s-4.8,0.4-8,0.4h-22.3v16.3h-5.2L566.4,47.8L566.4,47.8z M571.6,68.4h22.3c2.3,0,4.2,0,5.8-0.1
			c1.6-0.1,2.9-0.2,3.9-0.4c1-0.2,1.8-0.5,2.4-0.9c0.6-0.4,1-0.9,1.2-1.6c0.3-0.7,0.4-1.4,0.5-2.3c0-0.9,0.1-2,0.1-3.2
			c0-1.2,0-2.2-0.1-3c0-0.8-0.2-1.5-0.5-2.1s-0.7-1-1.2-1.4c-0.6-0.3-1.3-0.6-2.4-0.8c-1-0.2-2.3-0.3-3.9-0.4s-3.5-0.1-5.8-0.1
			h-22.3V68.4z"/>
		<path class="st0" d="M654.5,79.6h-32.3l-5.4,9.5h-6l23.6-41.3h7.4l23.5,41.3h-5.4L654.5,79.6z M652,75.3l-13.7-24.1l-13.7,24.1
			H652z"/>
		<path class="st0" d="M673.5,89.1h-5.2V47.8h9.1l37.9,36.1V47.8h5.2v41.3h-6.9l-40-37V89.1z"/>
		<path class="st0" d="M724.6,47.8h6.9L750.5,68l18.9-20.2h6.9L753,71.9v17.2h-5.2V71.9L724.6,47.8z"/>
	</g>
</g>
</svg>
