<svg id="ab98d3b8-49ad-4463-bc43-39a7330bdb41" data-name="Layer 1" xmlns="http://www.w3.org/2000/svg" viewBox="0 0 592.74 610.4"><title>24-hour</title><rect x="107.19" y="33.41" width="10.94" height="106.61" transform="translate(-29.49 89) rotate(-38.51)" fill="#fff"/><polygon points="165.52 106.48 131.49 38.28 160.74 23.68 165.9 34.01 146.92 43.49 156.2 62.09 170.07 55.17 175.23 65.5 161.36 72.42 170.65 91.02 189.62 81.55 194.78 91.88 165.52 106.48" fill="#fff"/><polygon points="213.15 85.42 201.96 88.01 184.82 13.74 200.88 10.04 223.63 60.97 221.32 5.32 236.76 1.75 253.9 76.01 242.71 78.6 231.94 31.93 233 80.84 223.99 82.92 202.41 38.87 213.15 85.42" fill="#fff"/><polygon points="264.38 76.21 265.68 0 298.37 0.55 298.17 12.1 276.96 11.74 276.61 32.52 292.1 32.79 291.91 44.34 276.41 44.07 276.06 64.85 297.27 65.22 297.07 76.77 264.38 76.21" fill="#fff"/><path d="M341.75,26.28q1.43-6.47-5-7.88L330,16.91l-5.23,23.81,6.77,1.49a6.26,6.26,0,0,0,5-.9,6.43,6.43,0,0,0,2.88-4.16ZM339,6.88q9.38,2.06,12.64,8.19,2.86,5.36,1.09,13.43l-2.37,10.81a17.77,17.77,0,0,1-8.93,12l1.17,34.3L330.44,83l-.65-29.52-1-.22-6.48-1.42-6.16,28-11.22-2.47L321.29,3Z" fill="#fff"/><path d="M366.29,96.7a18.21,18.21,0,0,1-9.08-24.09l17.2-37.85a18.22,18.22,0,0,1,33.66,1.14,17.67,17.67,0,0,1-.52,13.92L404,57.73,393.12,52.8l3.7-8.13a6.63,6.63,0,0,0-3.3-8.77,6.29,6.29,0,0,0-5-.16,6.46,6.46,0,0,0-3.68,3.47l-17.25,38a6.53,6.53,0,0,0,3.26,8.69,6.46,6.46,0,0,0,5.05.2,6.27,6.27,0,0,0,3.69-3.42L385.75,69l-5.82-2.64,4.78-10.51,16.66,7.56-11,24.24a17.42,17.42,0,0,1-10.19,9.52,17.63,17.63,0,0,1-13.87-.49" fill="#fff"/><polygon points="391.74 108.52 436.72 46.99 463.12 66.29 456.3 75.61 439.18 63.1 426.91 79.87 439.42 89.02 432.6 98.34 420.09 89.2 407.82 105.98 424.95 118.5 418.13 127.82 391.74 108.52" fill="#fff"/><polygon points="489.24 91.03 461.62 136.78 499.5 102.31 507.24 110.8 450.87 162.11 442.56 152.98 468.02 108.44 431.93 141.3 424.19 132.8 480.56 81.49 489.24 91.03" fill="#fff"/><path d="M464.85,186.59a18.11,18.11,0,0,1,6.76-24.79l36.12-20.54a18.22,18.22,0,0,1,24.87,6.8,17.38,17.38,0,0,1,1.74,13.81,17.66,17.66,0,0,1-8.57,11l-7.56,4.29-5.9-10.32,7.76-4.41a6.61,6.61,0,0,0,2.48-9,6.27,6.27,0,0,0-4-3.07,6.46,6.46,0,0,0-5,.65l-36.22,20.6a6.35,6.35,0,0,0-3.09,4,6.28,6.28,0,0,0,.64,5,6.39,6.39,0,0,0,4,3.11,6.26,6.26,0,0,0,5-.61l9.14-5.19,5.9,10.32-9.24,5.26a18.18,18.18,0,0,1-24.79-6.77" fill="#fff"/><polygon points="511.84 210.55 549.17 182.16 553.1 194.17 529.75 210.76 558.38 210.29 562.33 222.36 515.42 221.47 485.09 231.39 481.52 220.47 511.84 210.55" fill="#fff"/><rect x="485.87" y="256.18" width="106.61" height="10.94" transform="translate(-27.4 66.28) rotate(-6.86)" fill="#fff"/><path d="M511.32,327.63a21.4,21.4,0,0,1-13.33-5,14.88,14.88,0,0,1-4.89-8.23,21.62,21.62,0,0,1-.45-6.43,18.06,18.06,0,0,1,4-10.95,18.7,18.7,0,0,1,7.8-5.39,30,30,0,0,1,10.93-1.83l.09,11q-6.69.32-9.86,2.91a5.87,5.87,0,0,0-2.43,4.6,7.13,7.13,0,0,0,3.33,6.24,9.28,9.28,0,0,0,5,1.47q4.74.3,9.68-3.71l10.29-9.58a43.66,43.66,0,0,1,10.41-7.44,23,23,0,0,1,10.85-1.87q10.38.66,15.28,8a17.36,17.36,0,0,1,2.54,10.88,19.43,19.43,0,0,1-3.4,10.32,15.79,15.79,0,0,1-6.29,5.11,22.05,22.05,0,0,1-9,2l-1.31-11.11a13.25,13.25,0,0,0,7.45-2.21,5.6,5.6,0,0,0,2.17-4.43,5.27,5.27,0,0,0-2.48-5,10.82,10.82,0,0,0-5.5-1.68q-5.21-.34-10.9,3.82a37.46,37.46,0,0,0-5.18,4.78q-3.58,3.79-5,5a38.93,38.93,0,0,1-8.78,6,31.55,31.55,0,0,1-3.7,1.53,20.83,20.83,0,0,1-7.38,1.24" fill="#fff"/><polygon points="490.56 335.79 564.01 356.11 555.29 387.63 544.16 384.55 549.83 364.1 529.79 358.56 525.65 373.5 514.52 370.42 518.66 355.48 498.62 349.94 492.96 370.38 481.84 367.31 490.56 335.79" fill="#fff"/><path d="M519.35,423.38q5.9,3,8.89-2.84l3.14-6.17-21.71-11.08-3.15,6.18a6.25,6.25,0,0,0-.38,5,6.43,6.43,0,0,0,3.3,3.83Zm19.47,2.22q-4.37,8.55-11.11,10.16-5.91,1.43-13.28-2.33l-9.85-5a17.8,17.8,0,0,1-9.39-11.68l-33.48-7.53,5.65-11.06L496.07,405l.46-.92,3-5.9L474,385.1l5.22-10.24,67.84,34.6Z" fill="#fff"/><polygon points="450.75 423.86 518.5 461.24 510.92 470.59 458.77 440.64 498.83 485.49 491.25 494.86 440.81 436.14 450.75 423.86" fill="#fff"/><rect x="439.57" y="447.18" width="11.49" height="76.16" transform="translate(-209.49 414.43) rotate(-41.28)" fill="#fff"/><path d="M392.45,476.22a18.17,18.17,0,0,1,25.13,5.59l22.25,35.12a18.2,18.2,0,1,1-30.75,19.49l-4.65-7.34,10.06-6.37,4.78,7.54a6.63,6.63,0,0,0,9.14,2.05,6.3,6.3,0,0,0,2.89-4.13,6.44,6.44,0,0,0-.89-5L408.09,488a6.54,6.54,0,0,0-9.06-2,6.45,6.45,0,0,0-2.93,4.12,6.28,6.28,0,0,0,.84,5l5.63,8.89-10.06,6.37-5.69-9a18.16,18.16,0,0,1,5.62-25.08" fill="#fff"/><polygon points="369.14 490.8 396.14 562.08 365.56 573.66 361.47 562.86 381.31 555.35 373.94 535.91 359.45 541.4 355.36 530.6 369.85 525.11 362.49 505.67 342.65 513.18 338.56 502.39 369.14 490.8" fill="#fff"/><polygon points="341.82 604.35 331.07 606.39 311.18 501.66 321.92 499.61 341.82 604.35" fill="#fff"/><polygon points="257.34 610.4 246.43 609.54 254.78 503.27 265.68 504.12 257.34 610.4" fill="#fff"/><rect x="142.66" y="539.52" width="106.61" height="10.94" transform="translate(-382.86 564.4) rotate(-72.14)" fill="#fff"/><rect x="87" y="514.12" width="106.61" height="10.94" transform="matrix(0.52, -0.86, 0.86, 0.52, -376.79, 370.34)" fill="#fff"/><rect x="38.86" y="476.77" width="106.61" height="10.94" transform="translate(-316.96 210.82) rotate(-45.62)" fill="#fff"/><rect x="-4.52" y="421.16" width="106.61" height="10.94" transform="translate(-208.53 82.86) rotate(-30.29)" fill="#fff"/><path d="M181.8,173.25q2.78-37.6,24.53-57.46,18.83-17.53,47.35-17.53,26.2,0,43.23,19.65T312,163.75a126.05,126.05,0,0,1-15.91,52.18q-7.58,13.94-34.18,48-7.24,9.3-21.58,28.94l-8,10.77q-7.75,10.57-11.8,16.69a15.4,15.4,0,0,0-2,3.8H297l-2.89,39.08h-127l2.71-36.62q.1-1.27,9.8-14.61,4.48-6.11,10.12-13.5l11.5-15q10-12.45,31.51-39.91,20.31-25.77,30.95-46.67,8.67-17.1,9.76-31.89.89-12-5.24-20.49-6.74-8.86-18.35-8.87-16.69,0-25.08,19.23a45.94,45.94,0,0,0-3.45,15.21l-.76,10.13H181.29Z" fill="#fff"/><path d="M350.49,339.25l6.12-82.73-39.09,82.73Zm-70.56,0,83-167.73h39.92L390.41,339.25H416l-3,40.14H387.44l-4.23,57H343.29l4.22-57H277Z" fill="#fff"/><polygon points="180.05 429.17 177.61 462.14 167.11 462.14 172.87 384.33 183.36 384.33 180.92 417.37 193.59 417.37 196.03 384.33 206.53 384.33 200.77 462.14 190.27 462.14 192.71 429.17 180.05 429.17" fill="#fff"/><path d="M236.86,401.72a6.44,6.44,0,0,0-1.39-4.75,5.05,5.05,0,0,0-4.09-2,6,6,0,0,0-4.41,2,7.33,7.33,0,0,0-2.13,4.75l-3.14,42.59a6.39,6.39,0,0,0,1.42,4.76,5.14,5.14,0,0,0,4.12,2,5.94,5.94,0,0,0,4.38-2,7.41,7.41,0,0,0,2.1-4.76Zm-4.35-18.38a14,14,0,0,1,11.38,5.47A17.94,17.94,0,0,1,247.76,402l-3.14,42.48a20.49,20.49,0,0,1-5.85,13.19,16.49,16.49,0,0,1-12.16,5.43,14,14,0,0,1-11.35-5.46,18,18,0,0,1-3.85-13.16L214.56,402a20.51,20.51,0,0,1,5.85-13.19,16.44,16.44,0,0,1,12.1-5.44" fill="#fff"/><path d="M269,463a14.05,14.05,0,0,1-11.38-5.4,17.81,17.81,0,0,1-3.86-13.1l4.46-60.17h10.27l-4.44,60a6.39,6.39,0,0,0,1.42,4.75,5.15,5.15,0,0,0,4.13,2,5.93,5.93,0,0,0,4.4-2,7.41,7.41,0,0,0,2.1-4.75l4.44-60H291.5l-4.45,60.17a20.19,20.19,0,0,1-5.87,13.16A16.65,16.65,0,0,1,269,463" fill="#fff"/><path d="M322.27,403.09q.51-6.76-5.5-6.77h-6.33l-1.84,24.9h6.33a5.93,5.93,0,0,0,4.4-2,7.56,7.56,0,0,0,2.11-4.78Zm-4.89-18.75q8.78,0,12.49,5.4,3.26,4.73,2.64,13.17l-.83,11.3a20.75,20.75,0,0,1-6.65,14l5.26,34H318.93l-4.2-29.31h-7l-2.17,29.31h-10.5l5.76-77.8Z" fill="#fff"/></svg>