<svg xmlns="http://www.w3.org/2000/svg" viewBox="0 0 623.57 587.02"><title>Book-Ends</title><g id="586d7a70-931f-4948-be9c-706cc20de57e" data-name="Layer 3"><path d="M525.37,293.52c0,117.79-95.49,213.28-213.28,213.28S98.82,411.31,98.82,293.52,194.3,80.24,312.09,80.24,525.37,175.73,525.37,293.52ZM312,91.15c-111.59,0-202,90.46-202,202S200.41,495.25,312,495.25s202-90.46,202-202S423.58,91.15,312,91.15Z" fill="#0033a1"/><rect x="307.88" y="46.05" width="7.83" height="31.08" fill="#0033a1"/><rect x="528.39" y="289.94" width="30.68" height="7.62" fill="#0033a1"/><rect x="308.02" y="510.35" width="7.69" height="30.63" fill="#0033a1"/><rect x="64.5" y="289.94" width="30.64" height="7.72" fill="#0033a1"/><path d="M285.13,112.05V247h-37l35.65,48.42H248.15l-42.48-48.2H165.4c-3.22,10.34-7.93,37.64-6.83,48.2H128.86C126.9,216.91,183.23,127.91,285.13,112.05ZM179,216.7h76.61V150.25C226,161.27,191.6,191.39,179,216.7Z" fill="#0033a1"/><path d="M310.84,219.2h5.64v23.21c-2.58-1.24-6.78.1-6.78,3.06s4.2,5.43,6.78,4.38v3.46c-2.39-1-6.78.28-6.78,3.05s4.39,4.88,6.78,3.35V277h-5.64V263.34c-2.58-.19-6.59-3-6.59-6.79,0-2.77,1.24-4.77,2.88-5.17-2.1-1.15-2.88-2.66-2.88-5.53,0-3.44,3.06-7.64,6.69-7.73Z" fill="#0033a1"/><path d="M470.44,202.17l-6.3,18.9c4.11,1.66,18.35,11.65,22.31,16.8,3.65,7.58,10.08,42,8.13,57.51H337.38V112.05C400.63,120,451,164.65,470.44,202.17ZM364.92,235.48v34h98.67c-2-10.89-8.92-27.95-25.85-34Zm0-85.95v58.52h67.84V199C419.5,180.24,386.3,155,364.92,149.53Z" fill="#0033a1"/><path d="M482.6,359.35c-7.21,21.8-33,59-53,74.15h-42.4V359.35Zm-71.93,23.34v26.95h18.2c6.28-6.31,17.68-21.11,19.4-26.95Z" fill="#0033a1"/><path d="M368,321.2v42H337.38V347.67H168.15C196.23,422.58,282.57,467.91,368,436.52v31.05C259.23,504.25,148.17,430,131.24,321.2Z" fill="#0033a1"/></g><g id="39886f4e-fe4c-499e-84ce-95e9769b3520" data-name="Layer 2"><path d="M97.07,211.44l-2.19-2.78a6.28,6.28,0,0,0,2.61-3c.65-1.56.48-2.71-.44-3.09-1.26-.52-2.14.91-4,2.67s-3.67,2.61-6.21,1.55c-3.06-1.27-3.63-4.56-2.36-7.62a9.8,9.8,0,0,1,3.35-4.46L90,197.41a6.6,6.6,0,0,0-2.28,2.83c-.49,1.19-.42,2.23.5,2.61,1.13.47,1.9-.61,3.5-2.21,1.86-1.81,3.93-3.25,6.63-2.14,3.15,1.31,4,4.36,2.39,8.25A9.74,9.74,0,0,1,97.07,211.44Z" fill="#0033a1"/><path d="M93.43,188.52l-2.26,4.58L88,191.53l6.5-13.18,3.18,1.57-2.27,4.61,12.37,6.1-2,4Z" fill="#0033a1"/><path d="M98.28,171.68l2.14-3.67L119,170.57l-2.37,4.07-3.18-.55-3.58,6.13,2.07,2.44-2.2,3.78Zm11.82,1.79-3.9-.7c-1.63-.3-3.18-.67-3.21-.68l0,0s1.14,1.21,2.19,2.43l2.52,3.05Z" fill="#0033a1"/><path d="M116.35,163,104,161.89l2.74-4,7.74,1,0-.06-3.78-6.8,2.43-3.56,5.67,10.86,5.4,3.68-2.53,3.7Z" fill="#0033a1"/><path d="M119.49,140.22l2.89-3.38,5,4.28,4.82-5.65-5-4.28,2.84-3.33,13.2,11.26-2.85,3.33L135,137.8l-4.83,5.65,5.45,4.65-2.88,3.38Z" fill="#0033a1"/><path d="M140.91,131.08l-7.12-7.23,3.17-3.12,6.89,7c2.16,2.2,3.68,2.37,5.6.49s1.53-3.42-.4-5.38l-7-7.11,2.91-2.86,6.79,6.9c3.59,3.64,3.72,7.51.13,11C148,134.58,144.33,134.56,140.91,131.08Z" fill="#0033a1"/><path d="M149.94,108.35l3.32-2.7,9.09,5.85c1,.65,2.46,1.71,2.46,1.71l.05,0s-.73-1.63-1.15-2.78l-3.77-10.19,3.31-2.7,12.86,11.89-3.47,2.83-5.95-5.67c-1-1-1.82-1.82-1.84-1.84l0,0s.55,1.14,1,2.39l3.12,8.07-3.26,2.66-7.28-4.67c-1-.67-2.11-1.49-2.13-1.52l-.05,0s.82,1.12,1.45,2.15l4.28,7-3,2.47Z" fill="#0033a1"/><path d="M169,93.33l5.36-3.63c2.83-1.91,5.9-2.75,7.8,0a3.73,3.73,0,0,1-.47,5l0,.06a4.11,4.11,0,0,1,5.59,1.22c2,2.94.19,5.67-3.29,8l-5.31,3.59Zm8.88,2.52c1.62-1.1,1.91-2.09,1.13-3.25s-1.76-1-3.24,0l-1.4,1,2.19,3.24Zm4.25,5.69c1.73-1.17,2.23-2.15,1.36-3.44s-2-1.26-3.6-.17l-1.73,1.17,2.38,3.52Z" fill="#0033a1"/><path d="M184.08,83.42l3.81-2.21,7,12,6-3.5,1.75,3-9.84,5.72Z" fill="#0033a1"/><path d="M197.58,75.77l10.21-5.08,1.54,3.09L203,76.92,204.52,80l5.65-2.8L211.58,80l-5.64,2.8,1.71,3.45,6.48-3.22,1.53,3.09L205.3,91.3Z" fill="#0033a1"/><path d="M401.66,82l2.8-2a6.08,6.08,0,0,0,2.85,2.66c1.51.69,2.64.57,3.05-.32.55-1.21-.82-2.12-2.47-4.06s-2.42-3.68-1.3-6.14c1.35-2.95,4.6-3.4,7.55-2a9.47,9.47,0,0,1,4.25,3.44l-2.74,2.08A6.29,6.29,0,0,0,413,73.21c-1.15-.53-2.17-.5-2.58.39-.5,1.09.53,1.89,2,3.51,1.71,1.89,3.05,4,1.86,6.57-1.4,3-4.41,3.77-8.16,2A9.44,9.44,0,0,1,401.66,82Z" fill="#0033a1"/><path d="M424.25,79.22l-4.41-2.37,1.65-3.07,12.68,6.82-1.64,3.07-4.44-2.39L421.68,93.2l-3.83-2.07Z" fill="#0033a1"/><path d="M440.56,84.53l3.52,2.21L441,104.87l-3.91-2.46.64-3.09-5.89-3.7-2.45,1.94-3.63-2.28Zm-2.14,11.52.81-3.79c.35-1.59.76-3.1.78-3.13l-.06,0s-1.22,1.08-2.45,2.06l-3.07,2.38Z" fill="#0033a1"/><path d="M448.47,102.53l1.51-12,3.85,2.82-1.24,7.54.05,0,6.78-3.5,3.42,2.5L452,105.12l-3.78,5.17-3.55-2.59Z" fill="#0033a1"/><path d="M470.69,106.3l3.23,2.92L469.58,114l5.39,4.9,4.34-4.8,3.18,2.89-11.42,12.59-3.18-2.88,4.72-5.2-5.39-4.9-4.72,5.21-3.23-2.93Z" fill="#0033a1"/><path d="M479,127.56l7.29-6.77,3,3.18-7,6.56c-2.22,2.06-2.43,3.54-.64,5.47s3.3,1.59,5.28-.24l7.16-6.67,2.73,2.93-7,6.46c-3.66,3.41-7.46,3.44-10.82-.18C475.4,134.44,475.53,130.81,479,127.56Z" fill="#0033a1"/><path d="M500.24,136.08l2.67,3.4-2.69,9.33c-.55,1.92-1.17,3.35-1.17,3.4l0,0c.05,0,1.12-1,2.14-1.84l6.35-5,2.39,3.05L496.58,159l-2.42-3.09,2.89-10.12a26.6,26.6,0,0,1,1.05-3.13l0-.06s-.91.84-1.91,1.63l-6.91,5.41-2.38-3.05Z" fill="#0033a1"/><path d="M505.46,156.77c3.94-2.58,9.38-1.83,12.85,3.47a10.29,10.29,0,0,1,2,5.74l-3.67.23a7.49,7.49,0,0,0-1.34-4.06c-1.92-2.94-4.56-3.35-7.22-1.6s-3.7,4.33-1.79,7.24a6.2,6.2,0,0,0,1.88,1.92l2.42-1.59-1.66-2.53,2.56-1.68,3.92,6-6.91,4.52c-1-.45-2.93-1.5-5.1-4.82C499.94,164.36,501.57,159.32,505.46,156.77Z" fill="#0033a1"/><path d="M524,170.05l3,5.53c2.11,3.84,1.8,6.87-1.11,8.46-2.53,1.39-4.6.26-5.92-1.27h0a9.54,9.54,0,0,1-1.23,3.23l-2.65,5-2.23-4.08,2.76-5c.86-1.74.85-2.18.49-2.83l-.11-.2L511.22,182l-2.09-3.82Zm-3.53,9c.86,1.56,1.89,2,3.12,1.29s1.47-1.77.52-3.51l-.81-1.48-3.74,2Z" fill="#0033a1"/><path d="M524.32,193.48l7.16-9.77,2,4.34-4.76,6,0,.06,7.63.24,1.76,3.84-12-.7-5.81,2.68-1.84-4Z" fill="#0033a1"/><path d="M402.31,500.79l3.84-1.59,13,13L414.88,514l-2.15-2.31-6.43,2.66.17,3.13-4,1.65Zm8.16,8.4-2.62-2.85c-1.1-1.2-2.09-2.41-2.1-2.44l-.06,0s.17,1.61.26,3.19l.17,3.88Z" fill="#0033a1"/><path d="M414.89,495.29l3.85-2,6.17,12.11,6.09-3.1,1.55,3.05-9.94,5.06Z" fill="#0033a1"/><path d="M424.84,490.52l3.87-2.41,6,5.69c1.12,1.07,2.24,2.32,2.26,2.35l.05,0s-.64-1.71-1.1-3.26l-2.4-7.73L437,483l5.83,5.56c1.12,1.06,2.37,2.46,2.37,2.46l.06,0s-.66-1.74-1.07-3.13L441.79,480l3.45-2.15,4.87,17-3.4,2.12-6.55-6.23c-1.06-1-2.32-2.31-2.32-2.31l0,0s.64,1.7,1,3.11l2.46,8.77-3.36,2.09Z" fill="#0033a1"/><path d="M450.05,473.92l3.31-2.53,15.9,9.25-3.67,2.8-2.67-1.68L457.39,486l1,3L455,491.58Zm10.05,6-3.27-2.08c-1.37-.88-2.64-1.8-2.66-1.82l-.05,0s.59,1.52,1.08,3l1.15,3.7Z" fill="#0033a1"/><path d="M469.51,471.8l-11.44-4,3.57-3.18,7.11,2.8.05,0-2-7.37L470,457.2l2.82,11.68,4.26,4.78-3.28,2.92Z" fill="#0033a1"/><path d="M481.72,467.64l-1-3.32a6.09,6.09,0,0,0,3.47-1.79c1.16-1.18,1.42-2.29.73-3-1-.93-2.28.05-4.66.95s-4.28,1-6.21-.84c-2.33-2.27-1.66-5.48.62-7.8a9.57,9.57,0,0,1,4.67-2.84l1,3.27a6.32,6.32,0,0,0-3.1,1.74c-.89.91-1.2,1.88-.5,2.56.86.84,1.95.14,4-.74,2.35-1,4.76-1.53,6.81.47,2.39,2.34,2.06,5.43-.82,8.38A9.42,9.42,0,0,1,481.72,467.64Z" fill="#0033a1"/><path d="M491.29,447c-3.71-2.91-4.72-8.3-.81-13.28A10.2,10.2,0,0,1,495.3,430l1.38,3.4a7.55,7.55,0,0,0-3.42,2.57c-2.17,2.76-1.72,5.39.78,7.36s5.28,2.12,7.43-.61a6.11,6.11,0,0,0,1.22-2.39l-2.27-1.79-1.87,2.37-2.4-1.88,4.42-5.63,6.49,5.11a12.29,12.29,0,0,1-2.94,6.37C500.24,449.81,494.94,449.87,491.29,447Z" fill="#0033a1"/><path d="M496.83,425.81l3.47-5.27c2.41-3.66,5.22-4.81,8-3,2.42,1.59,2.39,3.94,1.65,5.83l0,0a9.71,9.71,0,0,1,3.43-.43H519l-2.55,3.88-5.74-.08c-1.94.05-2.32.27-2.73.9l-.12.19,5.54,3.64L511,435.15Zm9.65-1.13c1-1.49.85-2.59-.32-3.36s-2.26-.47-3.35,1.19l-.92,1.41,3.55,2.34Z" fill="#0033a1"/><path d="M512.94,416.76c-4-2.16-6.25-7.05-3.37-12.41s8-6.29,12.12-4.07,6.35,6.92,3.43,12.36S517.06,419,512.94,416.76Zm6.66-12.4c-2.54-1.37-5.39-1.35-7,1.57s-.09,5.38,2.4,6.72,5.47,1.28,7-1.58S522.12,405.72,519.6,404.36Z" fill="#0033a1"/><path d="M514.89,395.32l1.71-4.21,8.2,1.09c1.53.2,3.17.56,3.2.57l0-.06s-1.52-1-2.81-2l-6.48-4.85,1.56-3.82,8,1.07c1.53.21,3.37.6,3.37.6l0-.06s-1.55-1-2.7-1.9l-6.56-4.92,1.53-3.77L537.87,384l-1.51,3.7-9-1.19c-1.46-.21-3.23-.51-3.23-.51l0,.06s1.52,1,2.65,1.92l7.14,5.65-1.49,3.67Z" fill="#0033a1"/><path d="M96.53,364l1.19,4L83.44,379.58l-1.32-4.42,2.52-1.9-2-6.67-3.13-.15-1.23-4.11Zm-9.19,7.26,3.1-2.32c1.31-1,2.61-1.83,2.64-1.84l0-.06s-1.62,0-3.2-.06L86,366.75Z" fill="#0033a1"/><path d="M100.72,377.11l1.56,4L89.61,386l2.46,6.37-3.19,1.23-4-10.4Z" fill="#0033a1"/><path d="M104.46,387.49l2,4.09L100.19,397c-1.17,1-2.53,2-2.56,2l0,.06s1.76-.47,3.35-.77l7.94-1.61,1.81,3.71-6.12,5.24c-1.17,1-2.69,2.11-2.69,2.11l0,.06s1.8-.48,3.22-.74l8-1.62,1.79,3.65-17.4,3.12-1.76-3.59,6.86-5.88c1.12-1,2.53-2.08,2.53-2.08l0-.06s-1.76.47-3.2.7l-9,1.57-1.75-3.56Z" fill="#0033a1"/><path d="M118.42,414.26l2.18,3.55L109.79,432.7l-2.41-3.94,1.94-2.49-3.65-5.92-3.06.66-2.25-3.66Zm-7,9.39,2.4-3c1-1.27,2-2.44,2.08-2.46l0,0s-1.57.43-3.11.77l-3.8.77Z" fill="#0033a1"/><path d="M118.56,433.83l5.14-11,2.8,3.87L123,433.51l0,.05,7.53-1.23,2.48,3.42-11.91,1.63L116,441.14l-2.58-3.56Z" fill="#0033a1"/><path d="M121.47,446.39l3.4-.64a6.14,6.14,0,0,0,1.43,3.63c1.06,1.27,2.14,1.65,2.89,1,1-.85.18-2.27-.48-4.73s-.61-4.37,1.46-6.1c2.5-2.08,5.62-1.09,7.7,1.4a9.46,9.46,0,0,1,2.35,4.94l-3.36.7a6.42,6.42,0,0,0-1.41-3.27c-.82-1-1.75-1.38-2.5-.75-.92.77-.33,1.93.33,4.05.73,2.44,1,4.89-1.15,6.72-2.57,2.15-5.6,1.51-8.25-1.65A9.43,9.43,0,0,1,121.47,446.39Z" fill="#0033a1"/><path d="M147.67,452.57l3.14,3-4.48,4.67,5.26,5,4.47-4.66,3.1,3-11.77,12.26-3.1-3,4.87-5.06-5.26-5L139,467.85l-3.14-3Z" fill="#0033a1"/><path d="M156.07,474.07l6.19-7.78,3.41,2.71-6,7.53c-1.88,2.36-1.87,3.87.19,5.51s3.5,1.08,5.18-1l6.09-7.66,3.12,2.49-5.9,7.43c-3.12,3.91-6.87,4.5-10.74,1.43C153.5,481.42,153.09,477.81,156.07,474.07Z" fill="#0033a1"/><path d="M167.53,490.33l3.09-1.56a6.2,6.2,0,0,0,2.38,3.1c1.38.93,2.51,1,3.06.18.75-1.1-.46-2.23-1.77-4.41s-1.78-4-.27-6.27c1.82-2.69,5.1-2.6,7.79-.78a9.49,9.49,0,0,1,3.62,4.1l-3,1.6a6.34,6.34,0,0,0-2.26-2.75c-1-.71-2.06-.84-2.61,0-.67,1,.22,1.95,1.44,3.8,1.37,2.15,2.35,4.42.75,6.79-1.88,2.77-5,3-8.4.68A9.51,9.51,0,0,1,167.53,490.33Z" fill="#0033a1"/><path d="M190.26,490.47,185.93,488l1.75-3,12.45,7.22-1.74,3L194,492.65l-6.79,11.7-3.76-2.18Z" fill="#0033a1"/><path d="M202.47,493.33l3.88,1.9-6,12.2,6.13,3L205,513.5l-10-4.9Z" fill="#0033a1"/><path d="M215.32,499.47l10.36,4.21-1.27,3.13-6.42-2.6-1.26,3.1,5.73,2.32-1.18,2.89-5.72-2.32-1.42,3.49,6.57,2.67-1.27,3.13-10.52-4.27Z" fill="#0033a1"/></g></svg>