<?xml version="1.0" encoding="utf-8"?>
<!-- Generator: Adobe Illustrator 21.0.0, SVG Export Plug-In . SVG Version: 6.00 Build 0)  -->
<svg version="1.1" id="logo" xmlns="http://www.w3.org/2000/svg" xmlns:xlink="http://www.w3.org/1999/xlink" x="0px" y="0px"
	 viewBox="0 0 250 250" enable-background="new 0 0 250 250" xml:space="preserve">
<g id="logo_icon">
	<path fill="#0033A0" d="M208.67,109.67c0,46.32-37.55,83.88-83.88,83.88s-83.88-37.55-83.88-83.88s37.55-83.88,83.88-83.88
		S208.67,63.34,208.67,109.67z M124.75,30.08c-43.88,0-79.46,35.58-79.46,79.46S80.87,189,124.75,189s79.46-35.58,79.46-79.46
		S168.64,30.08,124.75,30.08z"/>
	<rect x="123.13" y="12.34" fill="#0033A0" width="3.08" height="12.22"/>
	<rect x="209.85" y="108.26" fill="#0033A0" width="12.07" height="3"/>
	<rect x="123.19" y="194.94" fill="#0033A0" width="3.02" height="12.04"/>
	<rect x="27.42" y="108.26" fill="#0033A0" width="12.05" height="3.03"/>
	<path fill="#0033A0" d="M114.18,38.3v53.06H99.64l14.02,19.04H99.64L82.94,91.44H67.1c-1.27,4.07-3.12,14.8-2.68,18.96H52.73
		C51.96,79.54,74.11,44.54,114.18,38.3z M72.46,79.46h30.13V53.32C90.94,57.66,77.4,69.5,72.46,79.46z"/>
	<path fill="#0033A0" d="M124.3,80.44h2.22v9.13c-1.01-0.49-2.67,0.04-2.67,1.2c0,1.16,1.65,2.13,2.67,1.72v1.36
		c-0.94-0.38-2.67,0.11-2.67,1.2s1.73,1.92,2.67,1.32v6.8h-2.22V97.8c-1.01-0.08-2.59-1.16-2.59-2.67c0-1.09,0.49-1.88,1.13-2.04
		c-0.83-0.45-1.13-1.05-1.13-2.17c0-1.35,1.2-3.01,2.63-3.04L124.3,80.44z"/>
	<path fill="#0033A0" d="M187.06,73.74l-2.48,7.43c1.62,0.65,7.22,4.58,8.77,6.61c1.44,2.98,3.97,16.5,3.2,22.62h-61.82V38.3
		C159.61,41.44,179.43,58.98,187.06,73.74z M145.56,86.84v13.37h38.81c-0.77-4.28-3.51-10.99-10.17-13.37H145.56z M145.56,53.04
		v23.02h26.68v-3.56C167.03,65.12,153.98,55.21,145.56,53.04z"/>
	<path fill="#0033A0" d="M191.85,135.55c-2.84,8.57-12.96,23.22-20.86,29.16h-16.67v-29.16H191.85z M163.56,144.74v10.6h7.16
		c2.47-2.48,6.95-8.3,7.63-10.6H163.56z"/>
	<path fill="#0033A0" d="M146.77,120.55v16.52h-12.04v-6.11H68.18c11.04,29.46,45,47.29,78.59,34.94v12.21
		c-42.77,14.42-86.45-14.79-93.11-57.57H146.77z"/>
</g>
<g id="name">
	<path fill="#0033A0" d="M21.98,237.3h-2.14v-3.21c0-0.52-0.01-0.97-0.03-1.34c-0.02-0.38-0.08-0.7-0.19-0.96
		c-0.11-0.27-0.28-0.48-0.51-0.65c-0.23-0.16-0.56-0.29-0.98-0.38c-0.42-0.09-0.96-0.15-1.61-0.18c-0.65-0.03-1.45-0.05-2.4-0.05
		H4.52v6.77H2.38v-17.11h12.11c1.31,0,2.41,0.05,3.3,0.14c0.89,0.09,1.63,0.23,2.22,0.42c0.58,0.19,1.03,0.42,1.35,0.69
		c0.32,0.27,0.55,0.6,0.69,0.97s0.23,0.79,0.26,1.25c0.03,0.46,0.04,0.97,0.04,1.53c0,0.71-0.05,1.34-0.15,1.88
		c-0.1,0.54-0.27,1-0.51,1.38c-0.24,0.38-0.55,0.68-0.95,0.91c-0.39,0.23-0.89,0.38-1.48,0.47c0.59,0.09,1.07,0.25,1.43,0.47
		c0.36,0.22,0.63,0.51,0.82,0.87c0.19,0.36,0.32,0.78,0.38,1.27c0.06,0.49,0.09,1.05,0.09,1.67V237.3z M4.52,228.75h9.97
		c0.95,0,1.75-0.02,2.4-0.05c0.65-0.03,1.19-0.09,1.61-0.18c0.42-0.09,0.75-0.22,0.98-0.38c0.23-0.16,0.4-0.38,0.51-0.65
		c0.11-0.27,0.17-0.59,0.19-0.96c0.02-0.37,0.03-0.82,0.03-1.34c0-0.48-0.01-0.9-0.03-1.25c-0.02-0.35-0.08-0.64-0.19-0.88
		c-0.11-0.24-0.28-0.43-0.51-0.57c-0.23-0.14-0.56-0.25-0.98-0.33c-0.42-0.08-0.96-0.13-1.61-0.15c-0.65-0.02-1.45-0.03-2.4-0.03
		H4.52V228.75z"/>
	<path fill="#0033A0" d="M42.58,228.75h2.14v0.71c0,1.14-0.04,2.13-0.12,2.96c-0.08,0.83-0.24,1.54-0.47,2.12
		c-0.24,0.58-0.58,1.05-1.01,1.41c-0.44,0.36-1.01,0.64-1.73,0.84c-0.71,0.2-1.58,0.34-2.61,0.41c-1.03,0.07-2.26,0.11-3.68,0.11
		c-1.31,0-2.48-0.01-3.51-0.03c-1.04-0.02-1.95-0.08-2.74-0.18s-1.47-0.27-2.03-0.5c-0.56-0.23-1.02-0.56-1.38-0.98
		s-0.62-0.96-0.78-1.61c-0.16-0.65-0.25-1.45-0.25-2.4c0-0.71,0.08-1.33,0.24-1.85c0.16-0.52,0.37-0.97,0.62-1.34
		c0.25-0.37,0.53-0.67,0.84-0.9c0.3-0.23,0.6-0.41,0.89-0.55c0.29-0.13,0.55-0.22,0.8-0.27c0.24-0.05,0.42-0.07,0.54-0.07
		c-0.27-0.18-0.51-0.36-0.73-0.55c-0.22-0.19-0.41-0.39-0.56-0.61c-0.16-0.22-0.28-0.47-0.36-0.75c-0.09-0.27-0.13-0.59-0.13-0.95
		c0-0.71,0.12-1.31,0.35-1.78c0.23-0.47,0.55-0.85,0.95-1.14c0.4-0.29,0.86-0.51,1.38-0.65c0.52-0.14,1.07-0.24,1.65-0.29
		s1.17-0.08,1.77-0.07c0.6,0,1.18,0.01,1.74,0.01c1.19,0,2.23,0.02,3.11,0.05c0.89,0.03,1.65,0.11,2.28,0.22
		c0.63,0.11,1.15,0.27,1.56,0.49c0.41,0.22,0.73,0.51,0.97,0.88c0.24,0.37,0.4,0.83,0.5,1.38c0.09,0.55,0.14,1.2,0.14,1.98H40.8
		c0-0.53-0.03-0.99-0.08-1.35c-0.05-0.37-0.16-0.67-0.32-0.91c-0.16-0.24-0.38-0.42-0.67-0.55s-0.67-0.22-1.15-0.28
		c-0.48-0.06-1.06-0.09-1.74-0.11c-0.69-0.01-1.51-0.02-2.46-0.02c-1.07,0-1.97,0.01-2.7,0.03c-0.73,0.02-1.31,0.1-1.76,0.23
		s-0.76,0.35-0.96,0.63c-0.19,0.29-0.29,0.7-0.29,1.24c0,0.19,0.03,0.38,0.09,0.56c0.06,0.18,0.16,0.36,0.3,0.54
		c0.14,0.18,0.32,0.35,0.55,0.52c0.23,0.17,0.51,0.34,0.85,0.51l18.18,9.27l-0.71,1.78l-17.82-8.92c-0.53,0-1.02,0.07-1.46,0.2
		c-0.44,0.13-0.81,0.34-1.12,0.63c-0.31,0.29-0.55,0.66-0.72,1.11c-0.17,0.45-0.26,1-0.26,1.64c0,0.59,0.05,1.1,0.14,1.5
		c0.09,0.41,0.26,0.74,0.5,1.01c0.24,0.26,0.56,0.47,0.97,0.61c0.41,0.14,0.93,0.25,1.56,0.31c0.63,0.07,1.39,0.11,2.28,0.12
		c0.88,0.01,1.92,0.02,3.11,0.02c0.95,0,1.79-0.01,2.53-0.02c0.74-0.01,1.38-0.05,1.94-0.11c0.55-0.06,1.02-0.17,1.4-0.31
		c0.38-0.14,0.69-0.34,0.93-0.61c0.24-0.26,0.41-0.6,0.52-1.01c0.11-0.41,0.16-0.91,0.16-1.51V228.75z"/>
	<path fill="#0033A0" d="M50.71,237.3v-17.11h14.27c1.07,0,1.93,0.09,2.58,0.26c0.65,0.17,1.16,0.43,1.51,0.77
		c0.35,0.34,0.59,0.76,0.71,1.26c0.12,0.51,0.18,1.08,0.18,1.74c0,0.48-0.04,0.89-0.12,1.26c-0.08,0.36-0.19,0.68-0.32,0.95
		s-0.29,0.49-0.46,0.67c-0.17,0.18-0.35,0.33-0.52,0.45c-0.42,0.28-0.89,0.44-1.43,0.48c0.67,0.04,1.26,0.2,1.78,0.49
		c0.22,0.13,0.44,0.28,0.65,0.47c0.21,0.19,0.4,0.42,0.57,0.7c0.17,0.28,0.3,0.6,0.41,0.98c0.1,0.37,0.16,0.81,0.16,1.3
		c0,0.59-0.03,1.14-0.08,1.63c-0.06,0.49-0.17,0.94-0.34,1.33c-0.17,0.39-0.42,0.74-0.74,1.04c-0.32,0.3-0.74,0.54-1.28,0.74
		c-0.53,0.2-1.18,0.34-1.95,0.44c-0.77,0.1-1.69,0.14-2.76,0.14H50.71z M62.82,227.32c0.73,0,1.35-0.01,1.88-0.04
		c0.53-0.03,0.98-0.09,1.35-0.17c0.37-0.08,0.67-0.19,0.9-0.34c0.23-0.14,0.41-0.33,0.54-0.56c0.13-0.23,0.22-0.51,0.26-0.83
		c0.04-0.32,0.07-0.71,0.07-1.15c0-0.48-0.05-0.86-0.16-1.16c-0.1-0.3-0.29-0.53-0.56-0.69c-0.27-0.16-0.63-0.27-1.09-0.32
		c-0.46-0.06-1.04-0.08-1.75-0.08H52.85v5.35H62.82z M62.82,235.52c0.83,0,1.55-0.01,2.16-0.04c0.61-0.03,1.12-0.08,1.55-0.17
		c0.42-0.09,0.76-0.21,1.02-0.37c0.26-0.16,0.46-0.37,0.61-0.63c0.14-0.26,0.24-0.58,0.3-0.96c0.05-0.38,0.08-0.84,0.08-1.37
		c0-0.42-0.03-0.78-0.08-1.09c-0.05-0.31-0.15-0.57-0.3-0.78c-0.14-0.21-0.35-0.38-0.61-0.51c-0.26-0.13-0.6-0.23-1.02-0.31
		c-0.42-0.07-0.94-0.12-1.55-0.15c-0.61-0.03-1.33-0.04-2.16-0.04h-9.97v6.42H62.82z"/>
	<path fill="#0033A0" d="M98.86,225.54c0-0.89-0.1-1.6-0.29-2.12c-0.19-0.52-0.51-0.91-0.96-1.18s-1.03-0.44-1.75-0.51
		c-0.72-0.07-1.62-0.11-2.69-0.11h-5c-0.95,0-1.75,0.03-2.4,0.08c-0.65,0.06-1.19,0.17-1.61,0.34c-0.42,0.17-0.75,0.42-0.98,0.74
		c-0.23,0.32-0.4,0.74-0.5,1.27c-0.1,0.53-0.16,1.18-0.18,1.94c-0.01,0.77-0.02,1.69-0.02,2.76s0.01,1.99,0.03,2.76
		c0.02,0.77,0.08,1.42,0.18,1.94c0.1,0.53,0.27,0.95,0.5,1.27c0.23,0.32,0.55,0.56,0.97,0.74c0.42,0.17,0.96,0.28,1.61,0.34
		c0.65,0.06,1.45,0.08,2.4,0.08h5c0.83,0,1.55-0.02,2.15-0.07c0.6-0.04,1.11-0.13,1.54-0.25c0.42-0.12,0.76-0.28,1.02-0.49
		c0.26-0.21,0.46-0.47,0.61-0.79c0.14-0.32,0.24-0.69,0.3-1.14c0.05-0.44,0.08-0.96,0.08-1.55H101c0,0.71-0.04,1.36-0.13,1.93
		c-0.09,0.58-0.25,1.09-0.47,1.54c-0.23,0.45-0.53,0.84-0.91,1.16c-0.38,0.33-0.86,0.6-1.44,0.81c-0.58,0.21-1.27,0.37-2.07,0.47
		c-0.8,0.1-1.74,0.15-2.81,0.15h-5c-1.31,0-2.41-0.08-3.3-0.24c-0.89-0.16-1.63-0.4-2.21-0.72c-0.58-0.32-1.03-0.73-1.34-1.22
		c-0.32-0.49-0.55-1.07-0.69-1.73s-0.23-1.41-0.25-2.24c-0.02-0.83-0.03-1.75-0.03-2.76s0.01-1.93,0.03-2.76
		c0.02-0.83,0.11-1.58,0.25-2.24s0.37-1.24,0.69-1.73c0.32-0.49,0.76-0.9,1.34-1.22c0.58-0.32,1.32-0.56,2.21-0.72
		c0.89-0.16,2-0.24,3.3-0.24h5c1.07,0,2,0.05,2.81,0.15c0.8,0.1,1.49,0.25,2.07,0.46c0.58,0.2,1.06,0.46,1.44,0.77
		c0.38,0.31,0.68,0.68,0.91,1.1c0.23,0.42,0.38,0.9,0.47,1.44c0.09,0.53,0.13,1.13,0.13,1.78H98.86z"/>
	<path fill="#0033A0" d="M118.11,219.84c1.31,0,2.41,0.08,3.3,0.24c0.89,0.16,1.63,0.4,2.21,0.72c0.58,0.32,1.02,0.73,1.34,1.22
		c0.31,0.49,0.54,1.07,0.68,1.73s0.23,1.41,0.26,2.24c0.03,0.83,0.04,1.75,0.04,2.76s-0.01,1.93-0.04,2.76
		c-0.03,0.83-0.11,1.58-0.26,2.24s-0.37,1.24-0.68,1.73c-0.31,0.49-0.76,0.9-1.34,1.22c-0.58,0.32-1.32,0.56-2.21,0.72
		c-0.89,0.16-2,0.24-3.3,0.24h-6.44c-1.31,0-2.41-0.08-3.3-0.24c-0.89-0.16-1.63-0.4-2.21-0.72c-0.58-0.32-1.03-0.73-1.34-1.22
		c-0.32-0.49-0.55-1.07-0.69-1.73s-0.23-1.41-0.25-2.24c-0.02-0.83-0.03-1.75-0.03-2.76s0.01-1.93,0.03-2.76
		c0.02-0.83,0.11-1.58,0.25-2.24s0.37-1.24,0.69-1.73c0.32-0.49,0.76-0.9,1.34-1.22c0.58-0.32,1.32-0.56,2.21-0.72
		c0.89-0.16,2-0.24,3.3-0.24H118.11z M118.11,235.88c0.94,0,1.74-0.03,2.39-0.08c0.65-0.06,1.19-0.17,1.61-0.34
		c0.42-0.17,0.75-0.42,0.98-0.74c0.23-0.32,0.4-0.74,0.5-1.27c0.1-0.53,0.17-1.18,0.18-1.94c0.02-0.77,0.03-1.69,0.03-2.76
		s-0.01-1.99-0.03-2.76c-0.02-0.77-0.08-1.42-0.18-1.94c-0.1-0.53-0.27-0.95-0.5-1.27c-0.23-0.32-0.56-0.56-0.97-0.74
		c-0.42-0.17-0.95-0.28-1.6-0.34c-0.65-0.06-1.45-0.08-2.4-0.08h-6.44c-0.95,0-1.75,0.03-2.4,0.08c-0.65,0.06-1.19,0.17-1.61,0.34
		c-0.42,0.17-0.75,0.42-0.98,0.74c-0.23,0.32-0.4,0.74-0.5,1.27c-0.1,0.53-0.16,1.18-0.18,1.94c-0.01,0.77-0.02,1.69-0.02,2.76
		s0.01,1.99,0.03,2.76c0.02,0.77,0.08,1.42,0.18,1.94c0.1,0.53,0.27,0.95,0.5,1.27c0.23,0.32,0.55,0.56,0.97,0.74
		c0.42,0.17,0.96,0.28,1.61,0.34c0.65,0.06,1.45,0.08,2.4,0.08H118.11z"/>
	<path fill="#0033A0" d="M131.65,221.62v15.68h-2.14v-17.11h3.44l9.97,14.97l9.98-14.97h3.53v17.11h-2.14v-15.45l-10.16,15.45h-2.16
		L131.65,221.62z"/>
	<path fill="#0033A0" d="M160.69,220.19h12.85c1.06,0,1.96,0.05,2.69,0.14c0.73,0.09,1.33,0.23,1.81,0.42
		c0.48,0.19,0.84,0.42,1.1,0.69c0.26,0.27,0.44,0.6,0.56,0.97c0.12,0.37,0.19,0.79,0.21,1.25c0.02,0.46,0.03,0.97,0.03,1.53
		c0,0.58-0.01,1.11-0.04,1.6c-0.03,0.49-0.11,0.93-0.26,1.33c-0.15,0.4-0.38,0.75-0.69,1.05c-0.32,0.3-0.77,0.55-1.35,0.75
		c-0.58,0.2-1.32,0.35-2.22,0.46c-0.89,0.1-2,0.16-3.3,0.16h-9.26v6.77h-2.14V220.19z M162.83,228.75h9.26
		c0.95,0,1.75-0.02,2.4-0.05c0.65-0.03,1.19-0.09,1.61-0.18c0.42-0.09,0.75-0.22,0.98-0.38c0.23-0.16,0.4-0.38,0.51-0.65
		c0.11-0.27,0.17-0.59,0.19-0.96c0.02-0.37,0.03-0.82,0.03-1.34c0-0.48-0.01-0.9-0.03-1.25c-0.02-0.35-0.08-0.64-0.19-0.88
		c-0.11-0.24-0.28-0.43-0.51-0.57c-0.23-0.14-0.56-0.25-0.98-0.33c-0.42-0.08-0.96-0.13-1.61-0.15c-0.65-0.02-1.45-0.03-2.4-0.03
		h-9.26V228.75z"/>
	<path fill="#0033A0" d="M197.18,233.38h-13.38l-2.23,3.92h-2.48l9.76-17.11h3.07l9.73,17.11h-2.24L197.18,233.38z M196.16,231.6
		l-5.67-9.99l-5.69,9.99H196.16z"/>
	<path fill="#0033A0" d="M205.06,237.3h-2.14v-17.11h3.75l15.68,14.97v-14.97h2.14v17.11h-2.85l-16.58-15.33V237.3z"/>
	<path fill="#0033A0" d="M226.23,220.19h2.85l7.84,8.37l7.84-8.37h2.85l-9.62,9.98v7.13h-2.14v-7.13L226.23,220.19z"/>
</g>
<g>
</g>
<g>
</g>
<g>
</g>
<g>
</g>
<g>
</g>
<g>
</g>
</svg>
