<svg id="f07ac257-3357-4d89-b34c-9d8094b31d13" data-name="Layer 1" xmlns="http://www.w3.org/2000/svg" viewBox="0 0 81.51 83.93"><title>24Hour-norm</title><rect x="16.35" y="5.12" width="1.5" height="14.66" transform="translate(-5.65 12.83) rotate(-38.51)" fill="#002169"/><polygon points="22.76 14.64 18.08 5.26 22.1 3.26 22.81 4.68 20.2 5.98 21.48 8.54 23.39 7.59 24.09 9.01 22.19 9.96 23.46 12.52 26.07 11.21 26.78 12.63 22.76 14.64" fill="#cc2026"/><polygon points="29.31 11.75 27.77 12.1 25.41 1.89 27.62 1.38 30.75 8.38 30.43 0.73 32.55 0.24 34.91 10.45 33.37 10.81 31.89 4.39 32.04 11.12 30.8 11.4 27.83 5.34 29.31 11.75" fill="#cc2026"/><polygon points="36.35 10.48 36.53 0 41.03 0.08 41 1.66 38.08 1.61 38.03 4.47 40.17 4.51 40.14 6.1 38.01 6.06 37.96 8.92 40.88 8.97 40.85 10.56 36.35 10.48" fill="#cc2026"/><path d="M48.61,4.14a.8.8,0,0,0-.69-1.08L47,2.85l-.72,3.28.93.2a.82.82,0,0,0,.68-.12.93.93,0,0,0,.4-.57Zm-.39-2.67A2.43,2.43,0,0,1,50,2.6a2.57,2.57,0,0,1,.15,1.85l-.32,1.48a2.45,2.45,0,0,1-1.23,1.66l.16,4.72-1.67-.37L47,7.88l-.14,0-.89-.2-.84,3.86-1.54-.34L45.79.94Z" transform="translate(-1.61 -0.53)" fill="#cc2026"/><path d="M52,13.82a2.38,2.38,0,0,1-1.31-1.4,2.44,2.44,0,0,1,.06-1.91l2.37-5.2A2.38,2.38,0,0,1,54.5,4a2.5,2.5,0,0,1,3.23,1.47,2.44,2.44,0,0,1-.08,1.91l-.49,1.09-1.49-.68.51-1.12a.9.9,0,0,0,0-.7.87.87,0,0,0-.48-.5.83.83,0,0,0-.69,0,.87.87,0,0,0-.5.48l-2.38,5.22a.87.87,0,0,0,0,.69.9.9,0,0,0,.47.51.9.9,0,0,0,.7,0,.83.83,0,0,0,.5-.47L54.66,10l-.8-.36.65-1.45,2.29,1-1.51,3.33A2.49,2.49,0,0,1,52,13.82" transform="translate(-1.61 -0.53)" fill="#cc2026"/><polygon points="53.87 14.92 60.05 6.46 63.68 9.12 62.74 10.4 60.39 8.68 58.7 10.98 60.42 12.24 59.48 13.52 57.77 12.27 56.08 14.57 58.43 16.29 57.5 17.58 53.87 14.92" fill="#cc2026"/><polygon points="67.27 12.52 63.48 18.81 68.69 14.07 69.75 15.24 62 22.29 60.85 21.04 64.36 14.91 59.39 19.43 58.33 18.26 66.08 11.21 67.27 12.52" fill="#cc2026"/><path d="M65.53,26.19a2.46,2.46,0,0,1-.24-1.91,2.38,2.38,0,0,1,1.17-1.5l5-2.83a2.5,2.5,0,1,1,2.48,4.34l-1,.59-.81-1.42,1.07-.6a.89.89,0,0,0,.42-.55.87.87,0,0,0-.08-.69.91.91,0,0,0-.55-.43.93.93,0,0,0-.69.09l-5,2.84a.86.86,0,0,0-.43.54.88.88,0,0,0,.09.69.87.87,0,0,0,.55.42.85.85,0,0,0,.68-.08L69.4,25l.81,1.42-1.27.73a2.52,2.52,0,0,1-3.41-.93" transform="translate(-1.61 -0.53)" fill="#cc2026"/><polygon points="70.38 28.95 75.52 25.05 76.06 26.7 72.84 28.98 76.78 28.92 77.32 30.58 70.87 30.45 66.7 31.82 66.21 30.32 70.38 28.95" fill="#cc2026"/><rect x="68.42" y="35.76" width="14.66" height="1.5" transform="translate(-5.43 8.78) rotate(-6.86)" fill="#002169"/><path d="M71.92,45.58a2.92,2.92,0,0,1-1.83-.69,2,2,0,0,1-.67-1.13,2.71,2.71,0,0,1-.07-.88,2.52,2.52,0,0,1,.56-1.51A2.6,2.6,0,0,1,71,40.63a4.23,4.23,0,0,1,1.51-.25v1.51a2.31,2.31,0,0,0-1.36.4.81.81,0,0,0-.33.63,1,1,0,0,0,.46.86A1.31,1.31,0,0,0,72,44a1.9,1.9,0,0,0,1.33-.51l1.42-1.32a5.85,5.85,0,0,1,1.43-1,3.24,3.24,0,0,1,1.49-.26,2.56,2.56,0,0,1,2.1,1.1,2.37,2.37,0,0,1,.35,1.5,2.7,2.7,0,0,1-.47,1.42,2.22,2.22,0,0,1-.86.7,3,3,0,0,1-1.23.27l-.18-1.53a1.87,1.87,0,0,0,1-.3.8.8,0,0,0,.3-.61.74.74,0,0,0-.34-.69,1.55,1.55,0,0,0-.76-.23,2.32,2.32,0,0,0-1.5.53,4.92,4.92,0,0,0-.71.66c-.33.34-.56.57-.69.68a5.53,5.53,0,0,1-1.2.83,4.64,4.64,0,0,1-.51.21,2.86,2.86,0,0,1-1,.17" transform="translate(-1.61 -0.53)" fill="#cc2026"/><polygon points="67.45 46.17 77.56 48.97 76.36 53.3 74.83 52.88 75.6 50.07 72.85 49.3 72.28 51.36 70.75 50.94 71.32 48.88 68.56 48.12 67.79 50.93 66.25 50.51 67.45 46.17" fill="#cc2026"/><path d="M73,58.75a.81.81,0,0,0,1.22-.39l.43-.85L71.7,56l-.44.85a.92.92,0,0,0,.4,1.22Zm2.67.3a2.44,2.44,0,0,1-1.52,1.4,2.68,2.68,0,0,1-1.83-.32L71,59.44a2.51,2.51,0,0,1-1.3-1.61l-4.6-1,.78-1.52,4,.94.06-.12.41-.82-3.51-1.79.72-1.41,9.33,4.76Z" transform="translate(-1.61 -0.53)" fill="#cc2026"/><polygon points="61.98 58.28 71.3 63.42 70.25 64.71 63.08 60.59 68.59 66.76 67.55 68.05 60.61 59.97 61.98 58.28" fill="#cc2026"/><rect x="62.06" y="62.02" width="1.58" height="10.47" transform="translate(-30.37 57.65) rotate(-41.28)" fill="#cc2026"/><path d="M55.58,66a2.5,2.5,0,0,1,3.45.77l3.06,4.83a2.35,2.35,0,0,1,.33,1.89,2.5,2.5,0,0,1-3,1.9,2.46,2.46,0,0,1-1.57-1.11l-.64-1,1.39-.88.66,1a.88.88,0,0,0,.57.4.82.82,0,0,0,.68-.12.85.85,0,0,0,.4-.57.91.91,0,0,0-.12-.68l-3.07-4.84a.84.84,0,0,0-.57-.4.82.82,0,0,0-.68.12.88.88,0,0,0-.4.56.84.84,0,0,0,.12.69L57,69.82l-1.38.88-.79-1.24a2.39,2.39,0,0,1-.32-1.89A2.41,2.41,0,0,1,55.58,66" transform="translate(-1.61 -0.53)" fill="#cc2026"/><polygon points="50.76 67.49 54.47 77.29 50.27 78.88 49.7 77.4 52.43 76.36 51.42 73.69 49.43 74.45 48.86 72.96 50.86 72.21 49.84 69.53 47.12 70.57 46.55 69.08 50.76 67.49" fill="#cc2026"/><rect x="45.76" y="69.24" width="1.5" height="14.66" transform="translate(-15.07 9.48) rotate(-10.74)" fill="#002169"/><rect x="29.49" y="76.34" width="14.66" height="1.5" transform="translate(-44.53 107.24) rotate(-85.51)" fill="#002169"/><rect x="21.23" y="74.72" width="14.66" height="1.5" transform="translate(-53.64 78.98) rotate(-72.14)" fill="#002169"/><rect x="13.58" y="71.22" width="14.66" height="1.5" transform="translate(-53.1 52.03) rotate(-58.79)" fill="#002169"/><rect x="6.96" y="66.09" width="14.66" height="1.5" transform="translate(-45.09 29.77) rotate(-45.62)" fill="#002169"/><rect x="0.99" y="58.44" width="14.66" height="1.5" transform="translate(-30.33 11.75) rotate(-30.29)" fill="#002169"/><path d="M26.61,24.35c.26-3.45,1.38-6.08,3.38-7.9A9.15,9.15,0,0,1,36.5,14a7.52,7.52,0,0,1,5.94,2.7A8.36,8.36,0,0,1,44.52,23a17.5,17.5,0,0,1-2.19,7.18,58.45,58.45,0,0,1-4.7,6.59c-.67.86-1.66,2.18-3,4l-1.1,1.48c-.71,1-1.25,1.74-1.62,2.3a2.78,2.78,0,0,0-.27.52H42.45l-.4,5.38H24.59l.37-5a13.55,13.55,0,0,1,1.35-2c.41-.56.88-1.18,1.39-1.85l1.58-2.06Q30.66,37.8,33.62,34a39.4,39.4,0,0,0,4.25-6.42,11.65,11.65,0,0,0,1.35-4.38,4.09,4.09,0,0,0-.73-2.82A3,3,0,0,0,36,19.18q-2.3,0-3.45,2.64a6.51,6.51,0,0,0-.47,2.1l-.11,1.39h-5.4Z" transform="translate(-1.61 -0.53)" fill="#cc2026"/><path d="M49.81,47.18l.84-11.38L45.27,47.18Zm-9.71,0L51.52,24.11H57L55.3,47.18h3.51L58.4,52.7H54.89l-.58,7.84H48.82l.58-7.84H39.7Z" transform="translate(-1.61 -0.53)" fill="#cc2026"/><polygon points="24.76 59.01 24.42 63.55 22.98 63.55 23.77 52.85 25.21 52.85 24.88 57.39 26.62 57.39 26.96 52.85 28.4 52.85 27.61 63.55 26.16 63.55 26.5 59.01 24.76 59.01" fill="#cc2026"/><path d="M34.18,55.77a.88.88,0,0,0-.19-.66.71.71,0,0,0-.56-.26.87.87,0,0,0-.61.26,1.05,1.05,0,0,0-.29.66l-.43,5.85a.88.88,0,0,0,.19.66.71.71,0,0,0,.57.27.8.8,0,0,0,.6-.27,1,1,0,0,0,.29-.66Zm-.6-2.53a1.94,1.94,0,0,1,1.57.75,2.47,2.47,0,0,1,.53,1.81l-.43,5.84a2.84,2.84,0,0,1-.8,1.82,2.3,2.3,0,0,1-1.68.74,1.93,1.93,0,0,1-1.56-.75,2.51,2.51,0,0,1-.53-1.81l.44-5.84a2.82,2.82,0,0,1,.8-1.81,2.25,2.25,0,0,1,1.66-.75" transform="translate(-1.61 -0.53)" fill="#cc2026"/><path d="M38.6,64.2A1.93,1.93,0,0,1,37,63.45a2.42,2.42,0,0,1-.53-1.8l.61-8.27h1.41l-.61,8.25a.89.89,0,0,0,.2.66.71.71,0,0,0,.57.27.8.8,0,0,0,.6-.27,1,1,0,0,0,.29-.66l.61-8.25H41.7l-.62,8.27a2.78,2.78,0,0,1-.8,1.81,2.3,2.3,0,0,1-1.68.74" transform="translate(-1.61 -0.53)" fill="#cc2026"/><path d="M45.93,56c0-.62-.21-.94-.76-.94H44.3l-.25,3.43h.87a.8.8,0,0,0,.6-.27,1,1,0,0,0,.29-.66Zm-.67-2.58a1.91,1.91,0,0,1,1.71.74,2.82,2.82,0,0,1,.37,1.81l-.12,1.55a2.91,2.91,0,0,1-.91,1.93L47,64.08H45.47l-.58-4h-1l-.3,4H42.19L43,53.38Z" transform="translate(-1.61 -0.53)" fill="#cc2026"/></svg>