<svg xmlns="http://www.w3.org/2000/svg" viewBox="0 0 623.57 587.02"><title>Headings</title><g id="7af3a4ee-3abd-43d3-a44c-516681a79e88" data-name="Layer 3"><path d="M525.37,293.52c0,117.79-95.49,213.28-213.28,213.28S98.82,411.31,98.82,293.52,194.3,80.24,312.09,80.24,525.37,175.73,525.37,293.52ZM312,91.15c-111.59,0-202,90.46-202,202S200.41,495.25,312,495.25s202-90.46,202-202S423.58,91.15,312,91.15Z" fill="#0033a1"/><rect x="307.88" y="46.05" width="7.83" height="31.08" fill="#0033a1"/><rect x="528.39" y="289.94" width="30.68" height="7.62" fill="#0033a1"/><rect x="308.02" y="510.35" width="7.69" height="30.63" fill="#0033a1"/><rect x="64.5" y="289.94" width="30.64" height="7.72" fill="#0033a1"/><path d="M285.13,112.05V247h-37l35.65,48.42H248.15l-42.48-48.2H165.4c-3.22,10.34-7.93,37.64-6.83,48.2H128.86C126.9,216.91,183.23,127.91,285.13,112.05ZM179,216.7h76.61V150.25C226,161.27,191.6,191.39,179,216.7Z" fill="#0033a1"/><path d="M310.84,219.2h5.64v23.21c-2.58-1.24-6.78.1-6.78,3.06s4.2,5.43,6.78,4.38v3.46c-2.39-1-6.78.28-6.78,3.05s4.39,4.88,6.78,3.35V277h-5.64V263.34c-2.58-.19-6.59-3-6.59-6.79,0-2.77,1.24-4.77,2.88-5.17-2.1-1.15-2.88-2.66-2.88-5.53,0-3.44,3.06-7.64,6.69-7.73Z" fill="#0033a1"/><path d="M470.44,202.17l-6.3,18.9c4.11,1.66,18.35,11.65,22.31,16.8,3.65,7.58,10.08,42,8.13,57.51H337.38V112.05C400.63,120,451,164.65,470.44,202.17ZM364.92,235.48v34h98.67c-2-10.89-8.92-27.95-25.85-34Zm0-85.95v58.52h67.84V199C419.5,180.24,386.3,155,364.92,149.53Z" fill="#0033a1"/><path d="M482.6,359.35c-7.21,21.8-33,59-53,74.15h-42.4V359.35Zm-71.93,23.34v26.95h18.2c6.28-6.31,17.68-21.11,19.4-26.95Z" fill="#0033a1"/><path d="M368,321.2v42H337.38V347.67H168.15C196.23,422.58,282.57,467.91,368,436.52v31.05C259.23,504.25,148.17,430,131.24,321.2Z" fill="#0033a1"/></g><g id="32347ca2-0a44-48a1-90bd-782df2f6c441" data-name="Layer 2"><path d="M87.38,193.81l2.73-5.76c1.72-3.61,4.59-5.55,8-3.91s3.93,5.07,2,9.18l-.68,1.44,5.14,2.44-1.86,3.9ZM97.27,192c.92-1.94.68-3.25-.91-4s-2.63-.14-3.53,1.74l-.72,1.53,4.49,2.13Z" fill="#0033a1"/><path d="M95,178.18l5.47-9.75,3,1.65-3.39,6,2.92,1.64,3-5.38,2.72,1.52-3,5.39,3.29,1.84,3.47-6.17,2.94,1.65-5.55,9.89Z" fill="#0033a1"/><path d="M109.55,169.68c-3.78-2.53-5.54-7.62-2.16-12.67s8.57-5.49,12.46-2.89,5.66,7.5,2.22,12.64S113.44,172.29,109.55,169.68Zm7.83-11.7c-2.4-1.61-5.24-1.86-7.09.89s-.6,5.35,1.75,6.92,5.33,1.81,7.13-.9S119.76,159.58,117.38,158Z" fill="#0033a1"/><path d="M115.53,146l4-5c2.48-3.14,5.72-4.39,8.72-2s2.69,5.82-.14,9.39l-1,1.25,4.45,3.53-2.68,3.39Zm10,.46c1.34-1.69,1.39-3,0-4.1s-2.53-.72-3.83.91l-1.05,1.32,3.9,3.09Z" fill="#0033a1"/><path d="M126.55,132.42l2.9-3.21,10.07,9.13,4.59-5.06,2.53,2.29-7.49,8.27Z" fill="#0033a1"/><path d="M136.89,121.24l8-7.8,2.36,2.43-5,4.83,2.33,2.4,4.43-4.31,2.18,2.24-4.43,4.31,2.63,2.7,5.08-4.94,2.36,2.43-8.14,7.9Z" fill="#0033a1"/><path d="M153.49,105.88,162,99l2.15,2.65-5.1,4.13,2.37,2.93,4.55-3.68,2.05,2.52-4.55,3.69,4.13,5.1-3.38,2.74Z" fill="#0033a1"/><path d="M165.49,96.42,169,93.85l10,13.73-3.52,2.57Z" fill="#0033a1"/><path d="M173.31,90.75l5.3-3.43c3.68-2.38,6.72-2.29,8.52.49,1.57,2.43.6,4.57-.84,6l0,0a9.79,9.79,0,0,1,3.31,1l5.15,2.28-3.9,2.53-5.22-2.39c-1.8-.74-2.23-.69-2.86-.29l-.19.13,3.6,5.57L182.55,105Zm9.29,2.86c1.5-1,1.82-2,1.06-3.21s-1.88-1.34-3.54-.26l-1.42.92L181,94.63Z" fill="#0033a1"/><path d="M195.12,95.51V92.05a6.15,6.15,0,0,0,3.84-.72c1.45-.8,2-1.79,1.55-2.64-.65-1.17-2.2-.61-4.74-.42s-4.4-.24-5.71-2.6c-1.57-2.84,0-5.71,2.83-7.29A9.56,9.56,0,0,1,198.2,77l0,3.44a6.27,6.27,0,0,0-3.47.77c-1.11.61-1.68,1.45-1.21,2.31.58,1,1.83.69,4,.44,2.54-.26,5-.1,6.39,2.4,1.62,2.93.42,5.79-3.19,7.79A9.45,9.45,0,0,1,195.12,95.51Z" fill="#0033a1"/><path d="M206.31,75.69l-4.53,2.15-1.48-3.15,13-6.16,1.49,3.14-4.56,2.16L216,86.05l-3.93,1.86Z" fill="#0033a1"/><path d="M378.32,57.13,384.41,59c3.82,1.17,6.16,3.73,5,7.4S385,71,380.65,69.69l-1.53-.47-1.67,5.43-4.13-1.27Zm3.22,9.53c2,.63,3.31.2,3.82-1.47s-.24-2.63-2.23-3.24l-1.61-.5-1.47,4.75Z" fill="#0033a1"/><path d="M398.13,63.7,402,65.2l.43,18.38-4.31-1.66,0-3.16-6.49-2.5-2,2.38-4-1.54Zm.11,11.71.07-3.87c0-1.63.15-3.19.16-3.22l-.06,0s-1,1.29-2,2.5l-2.55,2.91Z" fill="#0033a1"/><path d="M403.9,82.94l2.82-2a6.12,6.12,0,0,0,2.83,2.69c1.5.71,2.63.6,3-.29.57-1.2-.79-2.13-2.42-4.08s-2.38-3.71-1.23-6.15c1.38-2.94,4.63-3.35,7.57-2a9.48,9.48,0,0,1,4.21,3.49l-2.76,2a6.28,6.28,0,0,0-2.65-2.37c-1.15-.54-2.17-.52-2.58.37-.52,1.08.5,1.89,2,3.53,1.68,1.91,3,4,1.78,6.59-1.43,3-4.45,3.72-8.19,2A9.53,9.53,0,0,1,403.9,82.94Z" fill="#0033a1"/><path d="M416.59,89l2.94-1.84A6.09,6.09,0,0,0,422.18,90c1.46.79,2.59.75,3.06-.11.64-1.17-.66-2.17-2.17-4.22s-2.15-3.85-.85-6.22c1.56-2.85,4.83-3.06,7.68-1.5a9.54,9.54,0,0,1,4,3.75L431,83.57A6.36,6.36,0,0,0,428.5,81c-1.11-.61-2.13-.65-2.6.21-.58,1,.39,1.92,1.78,3.64,1.57,2,2.76,4.18,1.38,6.69-1.61,2.94-4.67,3.45-8.29,1.46A9.44,9.44,0,0,1,416.59,89Z" fill="#0033a1"/><path d="M438.39,83.21l3.71,2.28L433.19,100l-3.71-2.28Z" fill="#0033a1"/><path d="M441,94.68c2.63-3.72,7.77-5.34,12.73-1.82s5.26,8.71,2.55,12.53-7.65,5.45-12.69,1.88S438.27,98.49,441,94.68Zm11.48,8.14c1.68-2.36,2-5.2-.69-7.11s-5.33-.75-7,1.56-1.94,5.27.71,7.15S450.81,105.15,452.46,102.82Z" fill="#0033a1"/><path d="M464.66,101.33l3.29,2.8-.76,9.68c-.16,2-.48,3.52-.47,3.57l0,0s.89-1.25,1.73-2.24l5.22-6.14,2.95,2.51-11,13-3-2.55.81-10.49a29.36,29.36,0,0,1,.4-3.28l-.05-.05s-.72,1-1.54,2l-5.69,6.69-2.95-2.5Z" fill="#0033a1"/><path d="M488.88,123.57l2.86,3-7.55,16.78L481,140l1.39-2.84-4.77-5.06-2.87,1.28-2.94-3.13Zm-4.95,10.62,1.73-3.47c.73-1.45,1.51-2.8,1.53-2.83l0,0s-1.45.74-2.89,1.38l-3.57,1.53Z" fill="#0033a1"/><path d="M498.86,134.56l2.73,3.35-10.52,8.59,4.31,5.29L492.74,154l-7.05-8.64Z" fill="#0033a1"/><path d="M506.72,143.9l2.59,3.74-5.38,6.26c-1,1.18-2.2,2.36-2.23,2.38l0,.05s1.67-.72,3.19-1.27l7.61-2.78,2.35,3.39-5.26,6.11c-1,1.17-2.34,2.49-2.34,2.49l0,0s1.7-.74,3.07-1.22l7.7-2.81,2.32,3.34-16.73,5.71-2.28-3.28,5.89-6.86c1-1.1,2.19-2.43,2.19-2.43l0-.05s-1.67.73-3.06,1.18l-8.62,2.9-2.26-3.26Z" fill="#0033a1"/><path d="M524.07,170.25l2.06,3.61-11.29,14.52-2.29-4,2-2.42-3.44-6-3.09.56-2.12-3.73Zm-7.32,9.15,2.5-3c1.06-1.23,2.13-2.37,2.16-2.38l0-.06s-1.58.38-3.14.67l-3.82.64Z" fill="#0033a1"/><path d="M522.56,189.85l7-9.9,2.07,4.31L527,190.32l0,.06,7.63.11,1.84,3.81-12-.5-5.77,2.78-1.9-4Z" fill="#0033a1"/><path d="M522.53,201.78l3.43.44a6.1,6.1,0,0,0,.24,3.89c.63,1.54,1.53,2.23,2.44,1.86,1.23-.5.87-2.1,1-4.64s.76-4.35,3.27-5.36c3-1.21,5.67.69,6.89,3.7a9.6,9.6,0,0,1,.72,5.43l-3.41-.38a6.41,6.41,0,0,0-.35-3.54c-.47-1.18-1.24-1.85-2.14-1.48-1.11.45-.91,1.73-.93,4-.05,2.55-.51,5-3.16,6-3.11,1.26-5.8-.28-7.34-4.11A9.45,9.45,0,0,1,522.53,201.78Z" fill="#0033a1"/><path d="M330.89,516.91l6.36-.39c4-.25,7.08,1.32,7.31,5.15s-2.53,5.89-7.07,6.17l-1.59.09.35,5.68-4.32.27Zm6.37,7.78c2.14-.13,3.17-1,3.06-2.73s-1.16-2.37-3.23-2.24l-1.69.1.3,5Z" fill="#0033a1"/><path d="M347.22,515.75l6.25-.88c4.34-.61,7.06.75,7.52,4,.41,2.87-1.38,4.4-3.28,5.09v0a9.47,9.47,0,0,1,2.59,2.29l3.72,4.24-4.61.65-3.73-4.37c-1.32-1.42-1.73-1.56-2.47-1.46l-.23,0,.93,6.57-4.32.61Zm7.22,6.5c1.77-.25,2.51-1.07,2.31-2.46s-1.13-2-3.1-1.73l-1.67.24.59,4.22Z" fill="#0033a1"/><path d="M364.62,521.88c-1-4.44,1.17-9.35,7.09-10.73s10,1.85,11.07,6.41-1,9.34-7,10.74S365.68,526.43,364.62,521.88Zm13.71-3.19c-.65-2.82-2.55-5-5.78-4.2s-4.09,3.49-3.45,6.25,2.65,5,5.82,4.22S379,521.48,378.33,518.69Z" fill="#0033a1"/><path d="M385.65,516.81c-1.49-4.47.62-9.53,6.63-11.54a10.18,10.18,0,0,1,6.05-.45l-.71,3.6a7.53,7.53,0,0,0-4.27.26c-3.33,1.11-4.39,3.56-3.38,6.58s3.24,4.68,6.54,3.57a6.1,6.1,0,0,0,2.33-1.33l-.92-2.74-2.86,1-1-2.9,6.78-2.27,2.62,7.83a12.3,12.3,0,0,1-6,3.71C391.58,524.08,387.13,521.22,385.65,516.81Z" fill="#0033a1"/><path d="M401.9,502.15l5.79-2.51c4-1.74,7-1.16,8.33,1.88,1.15,2.66-.17,4.61-1.82,5.79v0a9.44,9.44,0,0,1,3.11,1.52L422,512l-4.27,1.85L413,510.59c-1.65-1-2.08-1-2.77-.75l-.21.09,2.64,6.09-4,1.73Zm8.69,4.35c1.64-.71,2.13-1.71,1.58-3s-1.63-1.63-3.45-.84l-1.55.67,1.69,3.91Z" fill="#0033a1"/><path d="M417.47,495.18l9.89-5.22,1.58,3-6.13,3.23,1.57,3,5.46-2.89L431.3,499l-5.47,2.89,1.76,3.33,6.27-3.3,1.58,3-10,5.29Z" fill="#0033a1"/><path d="M438,502l-.16-3.46a6.11,6.11,0,0,0,3.8-.91c1.41-.87,1.93-1.88,1.42-2.71-.7-1.13-2.22-.5-4.75-.19s-4.41,0-5.83-2.32c-1.71-2.76-.29-5.71,2.47-7.42a9.56,9.56,0,0,1,5.23-1.63l.21,3.42a6.4,6.4,0,0,0-3.43.95c-1.08.66-1.62,1.53-1.1,2.36.63,1,1.86.6,4.05.24,2.52-.37,5-.34,6.5,2.1,1.76,2.84.7,5.76-2.81,7.93A9.46,9.46,0,0,1,438,502Z" fill="#0033a1"/><path d="M450.81,494l-.38-3.44a6.18,6.18,0,0,0,3.73-1.16c1.34-1,1.8-2,1.23-2.8-.78-1.08-2.25-.35-4.75.13s-4.4.27-6-1.93c-1.89-2.64-.67-5.67,2-7.57a9.57,9.57,0,0,1,5.11-2l.43,3.4a6.38,6.38,0,0,0-3.36,1.17c-1,.74-1.5,1.64-.94,2.43.7,1,1.91.48,4.06,0,2.49-.55,5-.68,6.62,1.65,1.95,2.72,1.09,5.7-2.27,8.1A9.49,9.49,0,0,1,450.81,494Z" fill="#0033a1"/><path d="M454.2,472l3.4-2.72,10.63,13.26-3.4,2.72Z" fill="#0033a1"/><path d="M461.08,466.5l3.18-2.93,9.51,1.94a34.71,34.71,0,0,1,3.49.91l0-.05c0-.05-1.13-1-2-2l-5.45-5.94,2.84-2.61,11.51,12.51L481.3,471,471,468.91a27.06,27.06,0,0,1-3.21-.8l0,.05s.91.84,1.76,1.77l5.94,6.46L472.59,479Z" fill="#0033a1"/><path d="M481.27,459.29c-3.5-3.17-4.14-8.61.11-13.31a10.15,10.15,0,0,1,5.06-3.36l1.14,3.48a7.59,7.59,0,0,0-3.59,2.32c-2.36,2.61-2.08,5.26.28,7.4s5.12,2.48,7.45-.1a6.17,6.17,0,0,0,1.38-2.3L491,451.48l-2,2.24-2.27-2.05,4.8-5.3,6.12,5.54a12.23,12.23,0,0,1-3.37,6.15C490,462.71,484.71,462.4,481.27,459.29Z" fill="#0033a1"/><path d="M496.58,433.32l-2.94,4.06-2.82-2.05,8.46-11.66,2.82,2.05-3,4.08,10.95,7.94-2.56,3.52Z" fill="#0033a1"/><path d="M507.29,427.16c-3.89-2.35-5.88-7.36-2.74-12.56s8.31-5.88,12.32-3.45,6,7.23,2.79,12.52S511.3,429.59,507.29,427.16Zm7.29-12c-2.48-1.5-5.33-1.63-7,1.21s-.36,5.37,2.06,6.83,5.4,1.56,7.08-1.22S517,416.6,514.58,415.12Z" fill="#0033a1"/><path d="M518.32,408.57c-4.24-2.05-6.39-7.09-3.64-12.8a10.23,10.23,0,0,1,3.91-4.65l2.08,3a7.53,7.53,0,0,0-2.79,3.24c-1.53,3.16-.52,5.63,2.35,7s5.61.94,7.12-2.19a6.25,6.25,0,0,0,.68-2.6l-2.61-1.26-1.31,2.72-2.75-1.32,3.1-6.45,7.44,3.59a12.31,12.31,0,0,1-1.5,6.86C527.67,409.4,522.51,410.59,518.32,408.57Z" fill="#0033a1"/><path d="M519.15,386.68l4-10.43,3.15,1.22-2.49,6.46,3.12,1.2,2.23-5.76,2.91,1.13-2.22,5.76,3.51,1.35,2.55-6.61,3.16,1.22L535,392.8Z" fill="#0033a1"/><path d="M528.71,370.48l-1.46,4.78-3.33-1,4.21-13.78,3.32,1L530,366.31l12.94,3.95-1.27,4.16Z" fill="#0033a1"/><path d="M528.79,358.07l.91-4.26,6.33,1.36,1.53-7.12-6.32-1.36.9-4.19,16.63,3.58-.91,4.19L541,348.79l-1.54,7.13,6.87,1.47-.92,4.26Z" fill="#0033a1"/><path d="M532.76,338.29l1.43-11.09,3.35.43-.88,6.87,3.32.43.79-6.13,3.09.4-.79,6.13,3.74.48.91-7,3.35.44-1.45,11.25Z" fill="#0033a1"/><path d="M534.57,323.37l.34-6.3c.23-4.38,2.09-6.79,5.4-6.61,2.89.16,4,2.2,4.36,4.21h0a9.73,9.73,0,0,1,2.75-2.1l4.87-2.83-.25,4.64-5,2.82c-1.65,1-1.86,1.4-1.9,2.15v.22l6.62.36-.24,4.35Zm7.77-5.84c.09-1.78-.58-2.66-2-2.74s-2.19.73-2.3,2.71l-.09,1.69,4.26.23Z" fill="#0033a1"/><path d="M89.11,321.24l.68,6.34c.43,4-1,7.13-4.81,7.54s-6-2.26-6.49-6.79l-.17-1.58-5.65.61-.47-4.3ZM81.62,328c.23,2.14,1.12,3.12,2.87,2.93s2.32-1.26,2.09-3.33l-.18-1.68-4.94.53Z" fill="#0033a1"/><path d="M91,337.48l1.17,6.2c.81,4.32-.42,7.1-3.68,7.71-2.84.53-4.46-1.18-5.24-3.05h0a9.71,9.71,0,0,1-2.17,2.7L77,354.94l-.86-4.57,4.19-3.93c1.36-1.38,1.48-1.8,1.35-2.53l0-.23-6.51,1.23-.81-4.28ZM84.85,345c.33,1.75,1.19,2.45,2.56,2.19S89.36,346,89,344l-.31-1.66-4.19.78Z" fill="#0033a1"/><path d="M85.7,355.17c4.39-1.24,9.4.73,11,6.58s-1.38,10.08-5.89,11.35-9.38-.56-11.06-6.51S81.2,356.44,85.7,355.17Zm3.82,13.55c2.79-.79,4.83-2.78,3.93-6s-3.68-3.93-6.4-3.17-4.83,2.89-4,6S86.77,369.49,89.52,368.72Z" fill="#0033a1"/><path d="M100.13,373.81,104,384l-3.2,1.2-2.3-6.15-3.53,1.32,2,5.48-3,1.14-2.06-5.48-6.15,2.3-1.52-4.08Z" fill="#0033a1"/><path d="M105.27,387.14l4.64,10.18-3.07,1.4-2.88-6.3-3,1.39,2.56,5.62-2.84,1.3-2.56-5.62-3.43,1.57,2.94,6.44-3.07,1.41L89.8,394.21Z" fill="#0033a1"/><path d="M97.27,407.24l3.47,0a6.08,6.08,0,0,0,.68,3.85c.79,1.45,1.77,2,2.63,1.57,1.17-.64.62-2.19.46-4.73s.27-4.4,2.64-5.69c2.86-1.55,5.72,0,7.27,2.89a9.42,9.42,0,0,1,1.33,5.31l-3.43,0a6.35,6.35,0,0,0-.74-3.49c-.61-1.11-1.44-1.69-2.3-1.23-1.06.58-.71,1.83-.47,4,.23,2.54,0,5-2.46,6.37-2.94,1.6-5.79.37-7.76-3.25A9.47,9.47,0,0,1,97.27,407.24Z" fill="#0033a1"/><path d="M104.59,420.51l3.45-.19a6.17,6.17,0,0,0,.94,3.79c.89,1.4,1.91,1.91,2.73,1.39,1.13-.71.48-2.23.15-4.75s0-4.41,2.26-5.86c2.74-1.73,5.7-.34,7.44,2.41a9.58,9.58,0,0,1,1.69,5.2l-3.43.25a6.31,6.31,0,0,0-1-3.42c-.68-1.08-1.55-1.6-2.38-1.08-1,.64-.58,1.87-.2,4.05.4,2.52.39,5-2,6.52-2.83,1.8-5.75.76-8-2.73A9.4,9.4,0,0,1,104.59,420.51Z" fill="#0033a1"/><path d="M126.38,425.15l2.53,3.55-13.85,9.86L112.54,435Z" fill="#0033a1"/><path d="M124.21,437c3.51-2.89,8.89-3.12,12.76,1.58s2.8,9.78-.81,12.76-8.82,3.26-12.75-1.51S120.6,440,124.21,437Zm9,10.86c2.23-1.84,3.29-4.48,1.18-7s-4.94-2.12-7.13-.32-3.26,4.58-1.19,7.09S131,449.65,133.17,447.83Z" fill="#0033a1"/><path d="M144.83,448.25l3.06,3.06-1.55,9.58c-.32,2-.76,3.47-.76,3.52l0,0c.05,0,1-1.17,1.91-2.09l5.7-5.7L156,459.4l-12,12-2.78-2.78,1.66-10.39a25.55,25.55,0,0,1,.67-3.25l-.05,0s-.8.94-1.7,1.84l-6.21,6.2-2.74-2.73Z" fill="#0033a1"/><path d="M163,465.46l3.2,2.66-5.5,17.55-3.54-2.95,1-3-5.34-4.46-2.69,1.61-3.3-2.75Zm-3.65,11.13,1.31-3.65c.55-1.53,1.16-3,1.18-3l0-.05s-1.35.91-2.71,1.73l-3.35,1.94Z" fill="#0033a1"/><path d="M173.71,474.07l3.53,2.5-7.87,11.08,5.57,4-2,2.78-9.09-6.45Z" fill="#0033a1"/><path d="M190.63,485.5l5.49,3.1c3.82,2.16,5.15,4.89,3.53,7.77-1.43,2.52-3.78,2.65-5.71,2.05l0,0a9.51,9.51,0,0,1,.66,3.4l.37,5.62-4-2.28-.31-5.74c-.18-1.93-.43-2.29-1.08-2.66l-.19-.11-3.26,5.77-3.8-2.14Zm1.78,9.55c1.55.88,2.64.67,3.33-.55s.32-2.28-1.41-3.25l-1.47-.83-2.1,3.7Z" fill="#0033a1"/><path d="M205.58,493.7l10.13,4.74-1.44,3.06L208,498.57l-1.42,3,5.6,2.62L210.85,507l-5.59-2.61-1.6,3.41,6.42,3-1.43,3.06-10.28-4.81Z" fill="#0033a1"/><path d="M219.23,500l5.93,2.25c3.13,1.19,5.54,3.18,4.36,6.28a3.66,3.66,0,0,1-4.31,2.47l0,.06a4,4,0,0,1,2.18,5.17c-1.24,3.25-4.44,3.36-8.3,1.89l-5.87-2.22Zm.82,15.16c1.92.73,3,.57,3.53-.85s-.1-2.3-1.9-3l-1.91-.73-1.48,3.89Zm2.17-6.62c1.79.68,2.75.35,3.24-.93s-.15-2-1.79-2.62l-1.55-.59-1.36,3.59Z" fill="#0033a1"/><path d="M234.75,505.64l10.72,3.17-1,3.24-6.64-2-1,3.21,5.93,1.75-.89,3L236,516.29,235,519.91l6.8,2-1,3.24-10.88-3.22Z" fill="#0033a1"/><path d="M249.33,509.77l4.22.94L250.62,524l6.67,1.47-.74,3.33-10.88-2.4Z" fill="#0033a1"/><path d="M259.62,528.06l2.13-2.74a6.11,6.11,0,0,0,3.48,1.77c1.64.25,2.69-.18,2.83-1.15.2-1.32-1.37-1.82-3.49-3.22s-3.35-2.87-2.94-5.54c.48-3.22,3.48-4.54,6.69-4.06a9.55,9.55,0,0,1,5,2.15L271.3,518a6.36,6.36,0,0,0-3.23-1.5c-1.25-.19-2.22.12-2.36,1.09-.18,1.19,1,1.66,2.93,2.81,2.16,1.34,4,3,3.59,5.8-.5,3.31-3.2,4.84-7.28,4.23A9.53,9.53,0,0,1,259.62,528.06Z" fill="#0033a1"/></g></svg>