<?xml version="1.0" encoding="utf-8"?>
<!-- Generator: Adobe Illustrator 21.0.0, SVG Export Plug-In . SVG Version: 6.00 Build 0)  -->
<svg version="1.1" xmlns="http://www.w3.org/2000/svg" xmlns:xlink="http://www.w3.org/1999/xlink" x="0px" y="0px"
	 viewBox="0 0 776.27 133.3" enable-background="new 0 0 776.27 133.3" xml:space="preserve">
<g id="Logo">
	<g>
		<path fill="#0033A0" d="M124.13,66.65c0,31.73-25.72,57.44-57.44,57.44S9.24,98.38,9.24,66.65S34.96,9.21,66.69,9.21
			S124.13,34.93,124.13,66.65z M66.66,12.15c-30.05,0-54.42,24.36-54.42,54.42s24.36,54.42,54.42,54.42s54.42-24.36,54.42-54.42
			S96.71,12.15,66.66,12.15z"/>
		<rect x="65.55" fill="#0033A0" width="2.11" height="8.37"/>
		<rect x="124.94" y="65.69" fill="#0033A0" width="8.26" height="2.05"/>
		<rect x="65.59" y="125.06" fill="#0033A0" width="2.07" height="8.25"/>
		<rect y="65.69" fill="#0033A0" width="8.25" height="2.08"/>
		<path fill="#0033A0" d="M59.42,17.78v36.34h-9.96l9.6,13.04h-9.6L38.02,54.17H27.17c-0.87,2.79-2.13,10.14-1.84,12.98h-8
			C16.81,46.02,31.98,22.05,59.42,17.78z M30.85,45.96h20.63v-17.9C43.51,31.03,34.23,39.15,30.85,45.96z"/>
		<path fill="#0033A0" d="M66.35,46.64h1.52v6.25c-0.69-0.33-1.83,0.03-1.83,0.82s1.13,1.46,1.83,1.18v0.93
			c-0.64-0.26-1.83,0.08-1.83,0.82s1.18,1.31,1.83,0.9v4.66h-1.52v-3.68c-0.69-0.05-1.78-0.8-1.78-1.83c0-0.75,0.33-1.29,0.78-1.39
			c-0.57-0.31-0.78-0.72-0.78-1.49c0-0.93,0.82-2.06,1.8-2.08L66.35,46.64z"/>
		<path fill="#0033A0" d="M109.33,42.05l-1.7,5.09c1.11,0.45,4.94,3.14,6.01,4.52c0.98,2.04,2.72,11.3,2.19,15.49H73.5V17.78
			C90.53,19.93,104.1,31.94,109.33,42.05z M80.91,51.02v9.15h26.58c-0.53-2.93-2.4-7.53-6.96-9.15H80.91z M80.91,27.87v15.76h18.27
			V41.2C95.62,36.14,86.67,29.36,80.91,27.87z"/>
		<path fill="#0033A0" d="M112.61,84.38c-1.94,5.87-8.88,15.9-14.29,19.97H86.9V84.38H112.61z M93.24,90.67v7.26h4.9
			c1.69-1.7,4.76-5.69,5.22-7.26H93.24z"/>
		<path fill="#0033A0" d="M81.74,74.11v11.31H73.5v-4.18H27.92c7.56,20.18,30.82,32.39,53.82,23.93v8.37
			c-29.29,9.88-59.2-10.13-63.77-39.43H81.74z"/>
	</g>
	<rect x="-764.62" y="-197.83" display="none" fill="#022169" width="63.66" height="63.66"/>
	<g display="none">
		<path display="inline" d="M-678.55-176.78c0.88-0.15,2.04-0.27,3.51-0.27c1.81,0,3.13,0.42,3.97,1.18
			c0.78,0.67,1.24,1.7,1.24,2.96c0,1.28-0.38,2.29-1.09,3.02c-0.97,1.03-2.54,1.55-4.33,1.55c-0.55,0-1.05-0.02-1.47-0.13v5.67
			h-1.83V-176.78z M-676.73-169.96c0.4,0.1,0.9,0.15,1.51,0.15c2.2,0,3.55-1.07,3.55-3.02c0-1.87-1.32-2.77-3.34-2.77
			c-0.8,0-1.41,0.06-1.72,0.15V-169.96z"/>
		<path display="inline" d="M-663.58-162.8v-1.13l1.45-1.41c3.49-3.32,5.06-5.08,5.08-7.14c0-1.39-0.67-2.67-2.71-2.67
			c-1.24,0-2.27,0.63-2.9,1.15l-0.59-1.3c0.94-0.8,2.29-1.39,3.86-1.39c2.94,0,4.18,2.02,4.18,3.97c0,2.52-1.83,4.56-4.7,7.33
			l-1.09,1.01v0.04h6.13v1.53H-663.58z"/>
		<path display="inline" d="M-652.98-166.26c0-1.72,1.03-2.94,2.71-3.65l-0.02-0.06c-1.51-0.71-2.16-1.89-2.16-3.07
			c0-2.16,1.83-3.63,4.22-3.63c2.65,0,3.97,1.66,3.97,3.36c0,1.15-0.57,2.39-2.25,3.19v0.06c1.7,0.67,2.75,1.87,2.75,3.53
			c0,2.37-2.04,3.97-4.64,3.97C-651.25-162.57-652.98-164.27-652.98-166.26z M-645.63-166.35c0-1.66-1.15-2.46-3-2.98
			c-1.6,0.46-2.46,1.51-2.46,2.81c-0.06,1.39,0.99,2.6,2.73,2.6C-646.7-163.91-645.63-164.94-645.63-166.35z M-650.71-173.17
			c0,1.36,1.03,2.1,2.6,2.52c1.18-0.4,2.08-1.24,2.08-2.48c0-1.09-0.65-2.23-2.31-2.23C-649.87-175.35-650.71-174.34-650.71-173.17z
			"/>
		<path display="inline" d="M-632.96-169.77c0,4.64-1.72,7.2-4.75,7.2c-2.67,0-4.47-2.5-4.51-7.01c0-4.58,1.97-7.1,4.75-7.1
			C-634.6-176.68-632.96-174.11-632.96-169.77z M-640.38-169.56c0,3.55,1.09,5.56,2.77,5.56c1.89,0,2.79-2.2,2.79-5.69
			c0-3.36-0.86-5.56-2.77-5.56C-639.2-175.25-640.38-173.27-640.38-169.56z"/>
		<path display="inline" d="M-616.27-163.26c-0.67,0.34-2.02,0.67-3.74,0.67c-3.99,0-6.99-2.52-6.99-7.16c0-4.43,3-7.43,7.39-7.43
			c1.76,0,2.88,0.38,3.36,0.63l-0.44,1.49c-0.69-0.34-1.68-0.59-2.86-0.59c-3.32,0-5.52,2.12-5.52,5.84c0,3.46,1.99,5.69,5.44,5.69
			c1.11,0,2.25-0.23,2.98-0.59L-616.27-163.26z"/>
	</g>
</g>
<g id="R_x26_B_Company">
	<g>
		<path fill="#0033A0" d="M231.56,89.08h-5.16v-7.74c0-1.25-0.02-2.33-0.07-3.24c-0.04-0.91-0.2-1.68-0.46-2.33
			c-0.26-0.65-0.67-1.17-1.22-1.56c-0.56-0.39-1.34-0.7-2.37-0.91c-1.02-0.22-2.32-0.36-3.89-0.44c-1.57-0.08-3.5-0.12-5.79-0.12
			h-23.2v16.35h-5.16v-41.3h29.23c3.15,0,5.81,0.11,7.97,0.34c2.16,0.22,3.94,0.56,5.35,1.01c1.41,0.45,2.49,1,3.25,1.67
			c0.76,0.66,1.32,1.44,1.67,2.34c0.35,0.9,0.56,1.9,0.62,3.01c0.06,1.11,0.09,2.34,0.09,3.68c0,1.72-0.12,3.23-0.36,4.53
			c-0.24,1.3-0.65,2.41-1.22,3.32c-0.57,0.91-1.34,1.64-2.29,2.19c-0.95,0.55-2.14,0.93-3.58,1.14c1.43,0.22,2.58,0.59,3.44,1.13
			c0.86,0.54,1.52,1.24,1.99,2.1c0.47,0.86,0.78,1.88,0.93,3.07c0.15,1.18,0.23,2.53,0.23,4.03V89.08z M189.4,68.43h24.06
			c2.29,0,4.23-0.04,5.79-0.12c1.57-0.08,2.86-0.23,3.89-0.44s1.81-0.52,2.37-0.91c0.56-0.39,0.96-0.91,1.22-1.56
			c0.26-0.65,0.41-1.42,0.46-2.33c0.04-0.9,0.07-1.99,0.07-3.24c0-1.17-0.02-2.17-0.07-3.01c-0.04-0.84-0.2-1.55-0.46-2.12
			c-0.26-0.57-0.67-1.03-1.22-1.37c-0.56-0.34-1.34-0.6-2.37-0.79c-1.02-0.19-2.32-0.31-3.89-0.36c-1.57-0.05-3.5-0.08-5.79-0.08
			H189.4V68.43z"/>
		<path fill="#0033A0" d="M283.19,68.43h5.16v1.72c0,2.76-0.09,5.14-0.28,7.15c-0.19,2.01-0.57,3.71-1.14,5.11
			c-0.57,1.4-1.39,2.53-2.45,3.4c-1.06,0.87-2.45,1.55-4.17,2.03c-1.72,0.48-3.82,0.81-6.31,0.98c-2.48,0.17-5.44,0.26-8.89,0.26
			c-3.16,0-5.98-0.02-8.48-0.07c-2.5-0.05-4.71-0.19-6.61-0.44c-1.91-0.25-3.54-0.65-4.91-1.21c-1.36-0.56-2.47-1.34-3.33-2.37
			c-0.86-1.02-1.49-2.32-1.88-3.88c-0.39-1.57-0.59-3.5-0.59-5.79c0-1.72,0.19-3.21,0.58-4.48c0.39-1.26,0.88-2.34,1.49-3.24
			c0.61-0.9,1.28-1.62,2.02-2.18c0.73-0.56,1.45-0.99,2.15-1.32c0.7-0.32,1.34-0.54,1.92-0.66c0.58-0.12,1.02-0.17,1.3-0.17
			c-0.65-0.43-1.23-0.87-1.76-1.32c-0.53-0.45-0.98-0.94-1.36-1.48c-0.38-0.54-0.67-1.14-0.87-1.8c-0.21-0.66-0.31-1.43-0.31-2.29
			c0-1.72,0.28-3.15,0.85-4.29c0.56-1.14,1.33-2.06,2.29-2.76c0.96-0.7,2.07-1.22,3.33-1.56s2.59-0.57,3.99-0.7
			c1.4-0.13,2.82-0.18,4.28-0.17c1.45,0.01,2.85,0.01,4.19,0.01c2.87,0,5.37,0.04,7.52,0.12c2.14,0.08,3.97,0.26,5.5,0.52
			c1.52,0.27,2.78,0.66,3.76,1.18c0.99,0.52,1.77,1.23,2.34,2.12c0.57,0.9,0.97,2,1.2,3.32c0.22,1.32,0.34,2.91,0.34,4.77h-5.16
			c0-1.29-0.06-2.38-0.19-3.27c-0.13-0.89-0.38-1.62-0.77-2.19c-0.39-0.57-0.93-1.01-1.63-1.32c-0.7-0.31-1.62-0.53-2.77-0.67
			c-1.15-0.14-2.55-0.23-4.21-0.25c-1.66-0.03-3.63-0.04-5.93-0.04c-2.58,0-4.75,0.03-6.51,0.08c-1.76,0.05-3.17,0.24-4.25,0.56
			s-1.85,0.83-2.31,1.53c-0.47,0.7-0.7,1.69-0.7,2.98c0,0.47,0.07,0.92,0.22,1.36c0.14,0.44,0.38,0.87,0.71,1.3
			c0.33,0.43,0.77,0.85,1.32,1.26c0.55,0.41,1.23,0.82,2.06,1.24l43.88,22.37l-1.72,4.3l-43.02-21.54c-1.29,0-2.46,0.16-3.52,0.48
			c-1.06,0.32-1.96,0.83-2.72,1.52c-0.75,0.69-1.34,1.58-1.75,2.67c-0.41,1.09-0.62,2.41-0.62,3.95c0,1.43,0.11,2.64,0.34,3.63
			c0.22,0.99,0.62,1.8,1.2,2.43c0.57,0.64,1.35,1.12,2.34,1.46c0.99,0.34,2.25,0.59,3.78,0.75s3.37,0.26,5.5,0.28
			c2.13,0.03,4.63,0.04,7.5,0.04c2.29,0,4.33-0.01,6.12-0.04c1.78-0.03,3.34-0.12,4.68-0.27c1.34-0.15,2.46-0.4,3.39-0.74
			c0.92-0.34,1.67-0.83,2.25-1.47c0.57-0.64,0.99-1.45,1.25-2.43c0.26-0.99,0.39-2.2,0.39-3.66V68.43z"/>
		<path fill="#0033A0" d="M300.91,89.08v-41.3h34.44c2.58,0,4.66,0.21,6.24,0.63c1.58,0.42,2.79,1.04,3.64,1.85
			c0.85,0.82,1.42,1.83,1.71,3.05c0.29,1.22,0.43,2.62,0.43,4.19c0,1.15-0.1,2.16-0.3,3.04c-0.2,0.88-0.46,1.64-0.78,2.29
			c-0.32,0.65-0.69,1.19-1.1,1.63c-0.41,0.44-0.83,0.8-1.26,1.09c-1,0.68-2.15,1.07-3.44,1.16c1.61,0.09,3.05,0.48,4.3,1.18
			c0.54,0.31,1.06,0.69,1.57,1.14c0.51,0.46,0.97,1.02,1.37,1.69c0.4,0.67,0.73,1.46,0.98,2.37c0.25,0.9,0.38,1.95,0.38,3.13
			c0,1.43-0.07,2.75-0.2,3.94c-0.13,1.19-0.41,2.26-0.82,3.21c-0.41,0.95-1,1.78-1.77,2.5c-0.77,0.72-1.8,1.31-3.08,1.79
			c-1.28,0.47-2.85,0.83-4.71,1.06c-1.86,0.23-4.07,0.35-6.65,0.35H300.91z M330.14,64.99c1.76,0,3.27-0.04,4.54-0.11
			c1.27-0.07,2.36-0.21,3.25-0.4c0.9-0.2,1.62-0.47,2.18-0.82c0.56-0.35,0.99-0.8,1.3-1.36c0.31-0.56,0.52-1.22,0.63-2
			c0.11-0.78,0.16-1.71,0.16-2.78c0-1.15-0.13-2.08-0.38-2.8c-0.25-0.72-0.7-1.27-1.34-1.65c-0.65-0.38-1.52-0.65-2.62-0.78
			c-1.1-0.14-2.51-0.2-4.23-0.2h-27.56v12.91H330.14z M330.14,84.78c2.01,0,3.75-0.03,5.22-0.09c1.47-0.06,2.72-0.2,3.74-0.4
			c1.02-0.21,1.85-0.5,2.47-0.89c0.63-0.38,1.12-0.9,1.47-1.53c0.35-0.64,0.59-1.41,0.71-2.33c0.13-0.91,0.19-2.02,0.19-3.31
			c0-1-0.06-1.88-0.19-2.62c-0.13-0.74-0.36-1.37-0.71-1.88c-0.35-0.51-0.84-0.92-1.47-1.24c-0.63-0.31-1.45-0.56-2.47-0.74
			s-2.27-0.3-3.74-0.36c-1.47-0.06-3.21-0.09-5.22-0.09h-24.06v15.49H330.14z"/>
		<path fill="#0033A0" d="M417.14,60.69c0-2.15-0.23-3.85-0.7-5.11c-0.47-1.25-1.24-2.2-2.31-2.85c-1.08-0.65-2.49-1.06-4.23-1.24
			c-1.75-0.18-3.91-0.27-6.49-0.27h-12.07c-2.29,0-4.23,0.07-5.79,0.2c-1.57,0.13-2.86,0.41-3.89,0.82s-1.81,1-2.37,1.77
			c-0.56,0.77-0.96,1.79-1.21,3.07c-0.25,1.27-0.39,2.84-0.43,4.69c-0.04,1.86-0.05,4.07-0.05,6.66c0,2.58,0.02,4.8,0.07,6.66
			c0.04,1.85,0.19,3.42,0.44,4.69c0.25,1.27,0.65,2.29,1.2,3.07c0.55,0.77,1.33,1.36,2.35,1.77c1.02,0.41,2.32,0.69,3.89,0.82
			c1.57,0.14,3.5,0.2,5.79,0.2h12.07c2.01,0,3.74-0.05,5.19-0.16c1.45-0.11,2.69-0.31,3.71-0.59s1.85-0.68,2.47-1.18
			c0.63-0.5,1.12-1.13,1.47-1.9c0.35-0.76,0.59-1.68,0.71-2.74c0.13-1.07,0.19-2.32,0.19-3.75h5.16c0,1.72-0.11,3.28-0.32,4.67
			c-0.22,1.39-0.6,2.63-1.14,3.71c-0.55,1.08-1.28,2.02-2.19,2.81c-0.91,0.79-2.07,1.44-3.47,1.95c-1.4,0.51-3.07,0.89-5,1.13
			c-1.94,0.24-4.19,0.36-6.78,0.36h-12.07c-3.16,0-5.81-0.19-7.97-0.58c-2.16-0.38-3.94-0.97-5.34-1.75
			c-1.4-0.78-2.48-1.76-3.24-2.94c-0.76-1.18-1.32-2.57-1.67-4.17c-0.35-1.6-0.55-3.4-0.6-5.4s-0.08-4.23-0.08-6.67
			c0-2.44,0.03-4.66,0.08-6.67c0.05-2.01,0.26-3.81,0.6-5.4c0.35-1.6,0.9-2.98,1.67-4.17c0.76-1.18,1.84-2.16,3.24-2.94
			c1.4-0.78,3.18-1.36,5.34-1.75c2.16-0.39,4.82-0.58,7.97-0.58h12.07c2.58,0,4.84,0.12,6.78,0.36c1.94,0.24,3.6,0.61,5,1.1
			c1.4,0.49,2.55,1.12,3.47,1.87s1.64,1.64,2.19,2.66c0.55,1.02,0.93,2.18,1.14,3.47c0.22,1.29,0.32,2.72,0.32,4.3H417.14z"/>
		<path fill="#0033A0" d="M463.63,46.92c3.15,0,5.81,0.19,7.97,0.58c2.16,0.38,3.94,0.97,5.34,1.75c1.4,0.78,2.47,1.76,3.23,2.94
			c0.75,1.18,1.3,2.57,1.65,4.17c0.35,1.6,0.56,3.4,0.62,5.4c0.06,2.01,0.09,4.23,0.09,6.67c0,2.44-0.03,4.66-0.09,6.67
			c-0.06,2.01-0.27,3.81-0.62,5.4c-0.35,1.6-0.9,2.98-1.65,4.17c-0.75,1.18-1.83,2.16-3.23,2.94c-1.4,0.78-3.18,1.36-5.34,1.75
			c-2.16,0.39-4.82,0.58-7.97,0.58h-15.54c-3.16,0-5.81-0.19-7.97-0.58c-2.16-0.38-3.94-0.97-5.34-1.75
			c-1.4-0.78-2.48-1.76-3.24-2.94c-0.76-1.18-1.32-2.57-1.67-4.17s-0.55-3.4-0.6-5.4s-0.08-4.23-0.08-6.67
			c0-2.44,0.03-4.66,0.08-6.67c0.05-2.01,0.26-3.81,0.6-5.4s0.9-2.98,1.67-4.17c0.76-1.18,1.84-2.16,3.24-2.94
			c1.4-0.78,3.18-1.36,5.34-1.75c2.16-0.39,4.82-0.58,7.97-0.58H463.63z M463.63,85.64c2.28,0,4.2-0.07,5.77-0.2
			c1.57-0.13,2.86-0.41,3.89-0.82c1.02-0.41,1.81-1,2.37-1.77c0.56-0.77,0.96-1.79,1.21-3.07c0.25-1.27,0.4-2.84,0.44-4.69
			c0.04-1.86,0.07-4.07,0.07-6.66c0-2.58-0.02-4.8-0.07-6.66c-0.04-1.85-0.19-3.42-0.44-4.69c-0.25-1.27-0.65-2.29-1.21-3.07
			c-0.56-0.77-1.34-1.36-2.35-1.77c-1.01-0.41-2.3-0.69-3.87-0.82c-1.57-0.14-3.5-0.2-5.79-0.2h-15.54c-2.29,0-4.23,0.07-5.79,0.2
			c-1.57,0.13-2.86,0.41-3.89,0.82s-1.81,1-2.37,1.77c-0.56,0.77-0.96,1.79-1.21,3.07c-0.25,1.27-0.39,2.84-0.43,4.69
			c-0.04,1.86-0.05,4.07-0.05,6.66c0,2.58,0.02,4.8,0.07,6.66c0.04,1.85,0.19,3.42,0.44,4.69c0.25,1.27,0.65,2.29,1.2,3.07
			c0.55,0.77,1.33,1.36,2.35,1.77c1.02,0.41,2.32,0.69,3.89,0.82c1.57,0.14,3.5,0.2,5.79,0.2H463.63z"/>
		<path fill="#0033A0" d="M496.3,51.22v37.86h-5.16v-41.3h8.31l24.06,36.14l24.08-36.14h8.51v41.3h-5.16V51.79l-24.52,37.29h-5.22
			L496.3,51.22z"/>
		<path fill="#0033A0" d="M566.42,47.78h31.03c2.56,0,4.73,0.11,6.49,0.34c1.77,0.22,3.22,0.56,4.37,1.01
			c1.15,0.45,2.03,1,2.65,1.67c0.62,0.66,1.07,1.44,1.36,2.34s0.45,1.9,0.5,3.01c0.04,1.11,0.07,2.34,0.07,3.68
			c0,1.4-0.03,2.69-0.09,3.87c-0.06,1.18-0.27,2.25-0.62,3.21c-0.35,0.96-0.91,1.8-1.67,2.53c-0.76,0.73-1.85,1.33-3.25,1.81
			c-1.41,0.48-3.19,0.85-5.35,1.1c-2.16,0.25-4.82,0.38-7.97,0.38h-22.34v16.35h-5.16V47.78z M571.59,68.43h22.34
			c2.29,0,4.23-0.04,5.79-0.12c1.57-0.08,2.86-0.23,3.89-0.44c1.02-0.22,1.81-0.52,2.37-0.91c0.56-0.39,0.96-0.91,1.22-1.56
			c0.26-0.65,0.41-1.42,0.46-2.33c0.04-0.9,0.07-1.99,0.07-3.24c0-1.17-0.02-2.17-0.07-3.01c-0.05-0.84-0.2-1.55-0.46-2.12
			c-0.26-0.57-0.67-1.03-1.22-1.37c-0.56-0.34-1.34-0.6-2.37-0.79c-1.02-0.19-2.32-0.31-3.89-0.36c-1.57-0.05-3.5-0.08-5.79-0.08
			h-22.34V68.43z"/>
		<path fill="#0033A0" d="M654.49,79.62h-32.31l-5.39,9.46h-5.98l23.56-41.3h7.41l23.48,41.3h-5.42L654.49,79.62z M652.05,75.31
			l-13.68-24.12l-13.73,24.12H652.05z"/>
		<path fill="#0033A0" d="M673.53,89.08h-5.16v-41.3h9.06l37.86,36.14V47.78h5.16v41.3h-6.88l-40.04-37V89.08z"/>
		<path fill="#0033A0" d="M724.64,47.78h6.88l18.93,20.21l18.93-20.21h6.88l-23.23,24.09v17.21h-5.16V71.87L724.64,47.78z"/>
	</g>
	<g>
	</g>
	<g>
	</g>
	<g>
	</g>
	<g>
	</g>
	<g>
	</g>
	<g>
	</g>
</g>
</svg>
