<?xml version="1.0" encoding="utf-8"?>
<!-- Generator: Adobe Illustrator 21.0.0, SVG Export Plug-In . SVG Version: 6.00 Build 0)  -->
<svg version="1.1" id="Layer_1" xmlns="http://www.w3.org/2000/svg" xmlns:xlink="http://www.w3.org/1999/xlink" x="0px" y="0px"
	 viewBox="0 0 55 55" enable-background="new 0 0 55 55" xml:space="preserve">
<g>
	<path fill="#AB2C29" d="M45.77,7.61c2.56,1.64,4.36,3.79,4.65,5.53c0.16,0.97-0.31,1.94-0.8,2.78c-0.94,1.63-3.87,2.15-3.87,2.15
		l-4.74-2.93l-1.85,3.1l2.36,1.44c-0.37,0.72-2.87,1.53-3.51,1.73c-0.65,0.2-1.97,0.66-2.6,1.65S20.35,45.96,19.56,47.37
		c-0.8,1.4-2.01,4.33-2.85,5.63c-1.13,1.75-3.03,1.46-3.94,0.89c-0.87-0.55-1.58-1.84-0.68-3.6c0.88-1.72,2.05-2.44,3.52-4.89
		c8.6-14.31,19.11-30.55,24.5-40.74C40.11,4.65,43.97,6.46,45.77,7.61z M14.85,51.92l1.14-1.81c0.24-0.37,0.12-0.87-0.25-1.11h0
		c-0.37-0.24-0.87-0.12-1.11,0.25l-1.14,1.81c-0.24,0.37-0.12,0.87,0.25,1.11l0,0C14.11,52.41,14.61,52.3,14.85,51.92z"/>
	<path fill="#AB2C29" d="M44.18,18.83l-0.29,0.45l1.06,0.67l-0.57,0.91l-1.06-0.67l-0.38,0.6l0.45,0.29l-0.19,0.3l-0.45-0.29
		l-0.19,0.3l0.45,0.29l-0.19,0.3l-0.45-0.29L42.18,22l0.45,0.29l-0.19,0.3l-0.45-0.29l-0.19,0.3l0.45,0.29l-0.19,0.3l-0.45-0.29
		l-0.19,0.3l0.45,0.29l-0.19,0.3l-0.45-0.29l-0.19,0.3l0.45,0.29l-0.19,0.3l-0.45-0.29l-0.19,0.3l0.45,0.29L40.91,25l-0.45-0.29
		l-0.19,0.3l0.45,0.29l-0.19,0.3l-0.45-0.29l-0.19,0.3l0.45,0.29l-0.19,0.3l-0.45-0.29l-0.19,0.3l0.45,0.29l-0.19,0.3l-0.45-0.29
		l-0.19,0.3l0.45,0.29l-0.19,0.3l-0.45-0.29l-0.19,0.3l0.45,0.29l-0.19,0.3l-0.45-0.29l-0.19,0.3l0.45,0.29l-0.19,0.3l-0.45-0.29
		l-0.19,0.3l0.45,0.29l-0.19,0.3l-0.45-0.29l-0.19,0.3l0.45,0.29l-0.19,0.3l-0.45-0.29l-0.05,0.08c-0.5,0.79-1.55,1.03-2.34,0.53
		S34,28.6,34.5,27.81l0.05-0.08l-0.45-0.29l0.19-0.3l0.45,0.29l0.19-0.3l-0.45-0.29l0.19-0.3l0.45,0.29l0.19-0.3l-0.45-0.29
		l0.19-0.3l0.45,0.29l0.19-0.3l-0.45-0.29l0.19-0.3l0.45,0.29l0.19-0.3l-0.45-0.29l0.19-0.3l0.45,0.29l0.19-0.3L36,24.43l0.19-0.3
		l0.45,0.29l0.19-0.3l-0.45-0.29l0.19-0.3l0.45,0.29l0.19-0.3l-0.45-0.29l0.19-0.3l0.45,0.29l0.19-0.3l-0.45-0.29l0.19-0.3
		l0.45,0.29l0.19-0.3l-0.45-0.29l0.19-0.3L38.17,22l0.19-0.3l-0.45-0.29l0.19-0.3l0.45,0.29l1.91-3.02l-1.06-0.67l0.57-0.91
		l1.06,0.67l0.29-0.45l-1.06-0.67l0.57-0.91l1.07,0.68c0.54-0.61,1.47-0.76,2.18-0.31c0.4,0.25,0.65,0.64,0.75,1.06
		c0.08,0.34,0.05,0.71-0.09,1.04l1.07,0.68l-0.57,0.91L44.18,18.83z"/>
	<path fill="#AB2C29" d="M49.52,11.09c-0.68-0.82-2.38-2.63-3.2-3.11c0.25-0.3,0.44-0.6,0.63-0.91c0.29-0.45,0.12-1.19-0.33-1.48
		l-0.3-0.19l-0.19,0.3l-0.3-0.19l0.19-0.3l-0.3-0.19l-0.19,0.3l-0.3-0.19l0.19-0.3l-0.3-0.19l-0.19,0.3l-0.3-0.19l0.19-0.3
		l-0.3-0.19l-0.19,0.3l-0.3-0.19l0.19-0.3l-0.3-0.19l-0.19,0.3L43.41,4l0.19-0.3L43.3,3.5l-0.19,0.3l-0.3-0.19L43,3.31l-0.3-0.19
		l-0.19,0.3l-0.3-0.19l0.19-0.3l-0.3-0.19l-0.19,0.3l-0.3-0.19l0.19-0.3l-0.3-0.19l-0.19,0.3l-0.3-0.19l0.19-0.3
		c-0.3-0.19-0.87-0.97,0.21-1.34c3.1-1.07,7.39,0.66,9,2.62c0.98,1.19,1.64,3.25,1.15,4.53C51.23,8.83,50.15,10.36,49.52,11.09z"/>
</g>
<g>
	<path fill="#0033A0" d="M14.89,4.82c5.39,10.19,15.9,26.43,24.5,40.74c1.47,2.45,2.64,3.18,3.52,4.89c0.9,1.76,0.18,3.05-0.68,3.6
		c-0.91,0.57-2.81,0.86-3.94-0.89c-0.84-1.29-2.05-4.22-2.85-5.63s-15.23-23.3-15.86-24.29s-1.95-1.45-2.6-1.65
		s-3.15-1.01-3.51-1.73l2.36-1.44l-1.85-3.1l-4.73,2.93c0,0-2.93-0.52-3.87-2.15c-0.49-0.85-0.97-1.81-0.8-2.78
		c0.29-1.74,2.1-3.9,4.65-5.53C11.03,6.64,14.89,4.82,14.89,4.82z M41.26,52.35L41.26,52.35c0.37-0.24,0.49-0.73,0.25-1.11
		l-1.14-1.81c-0.24-0.37-0.73-0.49-1.11-0.25h0c-0.37,0.24-0.49,0.73-0.25,1.11l1.14,1.81C40.39,52.48,40.89,52.59,41.26,52.35z"/>
	<path fill="#0033A0" d="M10.82,19.01l0.29,0.45l-1.06,0.67l0.57,0.91l1.06-0.67l0.38,0.6l-0.45,0.29l0.19,0.3l0.45-0.29l0.19,0.3
		l-0.45,0.29l0.19,0.3l0.45-0.29l0.19,0.3l-0.45,0.29l0.19,0.3l0.45-0.29l0.19,0.3l-0.45,0.29l0.19,0.3l0.45-0.29l0.19,0.3
		l-0.45,0.29l0.19,0.3l0.45-0.29l0.19,0.3l-0.45,0.29l0.19,0.3l0.45-0.29l0.19,0.3l-0.45,0.29l0.19,0.3l0.45-0.29l0.19,0.3
		l-0.45,0.29l0.19,0.3l0.45-0.29l0.19,0.3l-0.45,0.29l0.19,0.3l0.45-0.29l0.19,0.3l-0.45,0.29l0.19,0.3l0.45-0.29l0.19,0.3
		l-0.45,0.29l0.19,0.3l0.45-0.29l0.19,0.3L15.8,27.9l0.19,0.3l0.45-0.29l0.19,0.3l-0.45,0.29l0.19,0.3l0.45-0.29l0.19,0.3
		l-0.45,0.29l0.19,0.3l0.45-0.29l0.19,0.3l-0.45,0.29l0.19,0.3l0.45-0.29l0.05,0.08c0.5,0.79,1.55,1.03,2.34,0.53
		c0.79-0.5,1.03-1.55,0.53-2.34l-0.05-0.08l0.45-0.29l-0.19-0.3l-0.45,0.29l-0.19-0.3l0.45-0.29l-0.19-0.3l-0.45,0.29l-0.19-0.3
		l0.45-0.29l-0.19-0.3l-0.45,0.29l-0.19-0.3l0.45-0.29l-0.19-0.3l-0.45,0.29l-0.19-0.3l0.45-0.29l-0.19-0.3l-0.45,0.29l-0.19-0.3
		L19,24.61l-0.19-0.3l-0.45,0.29l-0.19-0.3l0.45-0.29l-0.19-0.3l-0.45,0.29l-0.19-0.3l0.45-0.29l-0.19-0.3l-0.45,0.29l-0.19-0.3
		l0.45-0.29l-0.19-0.3l-0.45,0.29l-0.19-0.3l0.45-0.29l-0.19-0.3l-0.45,0.29l-0.19-0.3l0.45-0.29l-0.19-0.3l-0.45,0.29l-1.91-3.02
		l1.06-0.67l-0.57-0.91l-1.06,0.67l-0.29-0.45l1.06-0.67l-0.57-0.91l-1.07,0.68c-0.54-0.61-1.47-0.76-2.18-0.31
		c-0.4,0.25-0.65,0.64-0.75,1.06c-0.08,0.34-0.05,0.71,0.09,1.04L9.2,18.77l0.57,0.91L10.82,19.01z"/>
	<path fill="#0033A0" d="M5.48,11.27c0.68-0.82,2.38-2.63,3.2-3.11c-0.25-0.3-0.44-0.6-0.63-0.91C7.76,6.8,7.93,6.06,8.38,5.78
		l0.3-0.19l0.19,0.3l0.3-0.19L8.98,5.4l0.3-0.19l0.19,0.3l0.3-0.19l-0.19-0.3l0.3-0.19l0.19,0.3l0.3-0.19l-0.19-0.3l0.3-0.19
		l0.19,0.3l0.3-0.19l-0.19-0.3l0.3-0.19l0.19,0.3l0.3-0.19l-0.19-0.3l0.3-0.19l0.19,0.3l0.3-0.19L12,3.49l0.3-0.19l0.19,0.3
		l0.3-0.19l-0.19-0.3l0.3-0.19l0.19,0.3l0.3-0.19l-0.19-0.3l0.3-0.19l0.19,0.3l0.3-0.19l-0.19-0.3c0.3-0.19,0.87-0.97-0.21-1.34
		c-3.1-1.07-7.39,0.66-9,2.62C3.62,4.82,2.96,6.88,3.44,8.16C3.77,9.01,4.85,10.54,5.48,11.27z"/>
</g>
<g>
</g>
<g>
</g>
<g>
</g>
<g>
</g>
<g>
</g>
<g>
</g>
<g>
</g>
<g>
</g>
<g>
</g>
<g>
</g>
<g>
</g>
<g>
</g>
<g>
</g>
<g>
</g>
<g>
</g>
</svg>
